SplineFontDB: 3.0
FontName: Rokkitt-Light
FullName: Rokkitt Light
FamilyName: Rokkitt
Weight: Light
Copyright: 
Version: 2
ItalicAngle: 0
UnderlinePosition: 0
UnderlineWidth: 0
Ascent: 1638
Descent: 410
UFOAscent: 1152
UFODescent: -410
LayerCount: 2
Layer: 0 0 "Back"  1
Layer: 1 0 "Fore"  0
FSType: 0
OS2Version: 0
OS2_WeightWidthSlopeOnly: 0
OS2_UseTypoMetrics: 1
CreationTime: 1390510916
ModificationTime: 1390528760
PfmFamily: 17
TTFWeight: 300
TTFWidth: 5
LineGap: 0
VLineGap: 0
OS2TypoAscent: 0
OS2TypoAOffset: 1
OS2TypoDescent: 0
OS2TypoDOffset: 1
OS2TypoLinegap: 0
OS2WinAscent: 0
OS2WinAOffset: 1
OS2WinDescent: 0
OS2WinDOffset: 1
HheadAscent: 0
HheadAOffset: 1
HheadDescent: 0
HheadDOffset: 1
OS2Vendor: 'NeWT'
Lookup: 258 0 0 "'kern' Horizontal Kerning in Latin lookup 0"  {"'kern' Horizontal Kerning in Latin lookup 0 subtable"  } ['kern' ('latn' <'dflt' > ) ]
MarkAttachClasses: 1
DEI: 91125
LangName: 1033 
PickledData: "(dp1
S'com.typemytype.robofont.compileSettings.generateFormat'
p2
I0
sS'com.petr.ptt'
p3
(dp4
S'originals'
p5
(dp6
S'maxp'
p7
(dp8
S'numGlyphs'
p9
I423
sS'tableTag'
p10
S'maxp'
p11
sS'tableVersion'
p12
I20480
ssssS'com.schriftgestaltung.weight'
p13
S'Light'
p14
sS'com.typemytype.robofont.compileSettings.autohint'
p15
I0
sS'GSDimensionPlugin.Dimensions'
p16
(dp17
S'1F09728C-766D-4240-AE17-E499EF32E23D'
p18
(dp19
sS'98C086B7-81AA-4491-8494-0C6A76849168'
p20
(dp21
sS'EFCDB4D9-E20B-4A8D-9DB5-150AD166B0AE'
p22
(dp23
ssS'com.typemytype.robofont.compileSettings.checkOutlines'
p24
I1
sS'com.typemytype.robofont.compileSettings.MacRomanFirst'
p25
I1
sS'com.typemytype.robofont.shouldAddPointsInSplineConversion'
p26
I1
sS'com.typemytype.robofont.compileSettings.decompose'
p27
I1
sS'com.typemytype.robofont.compileSettings.path'
p28
S'/Users/vern/Github/RokkittFont/in-progress/roman/Light/Rokkitt-Light.otf'
p29
sS'com.typemytype.robofont.layerOrder'
p30
(S'b'
tp31
sS'com.typemytype.robofont.segmentType'
p32
S'curve'
p33

StartChar: A
Encoding: 65 65 0
Width: 1383
VWidth: 0
Flags: HW
PickledData: "(dp1
S'org.robofab.postScriptHintData'
p2
(dp3
sS'com.typemytype.robofont.layerData'
p4
(dp5
S'b'
(dp6
S'name'
p7
S'A'
sS'lib'
p8
(dp9
sS'unicodes'
p10
(tsS'width'
p11
I1383
sS'contours'
p12
(tsS'components'
p13
(tsS'anchors'
p14
(tsss."
AnchorPoint: "top" 692 1152 basechar 0
LayerCount: 2
Fore
SplineSet
482 529 m 1
 686 1091 l 1
 692 1091 l 1
 897 529 l 1
 482 529 l 1
82 0 m 1
 462 0 l 1
 462 55 l 1
 312 55 l 1
 465 476 l 1
 913 476 l 1
 1067 55 l 1
 916 55 l 1
 916 0 l 1
 1300 0 l 1
 1300 55 l 1
 1150 55 l 1
 763 1097 l 1
 908 1097 l 1
 908 1152 l 1
 478 1152 l 1
 478 1097 l 1
 620 1097 l 1
 235 55 l 1
 82 55 l 1
 82 0 l 1
EndSplineSet
EndChar

StartChar: AE
Encoding: 198 198 1
Width: 2170
VWidth: 0
Flags: HW
PickledData: "(dp1
S'org.robofab.postScriptHintData'
p2
(dp3
sS'com.typemytype.robofont.layerData'
p4
(dp5
S'b'
(dp6
S'name'
p7
S'AE'
p8
sS'lib'
p9
(dp10
sS'unicodes'
p11
(tsS'width'
p12
I2243
sS'contours'
p13
(tsS'components'
p14
(tsS'anchors'
p15
(tsss."
AnchorPoint: "top" 1237 1152 basechar 0
LayerCount: 2
Fore
SplineSet
137 0 m 257
 544 0 l 257
 544 55 l 257
 398 55 l 257
 610 432 l 257
 1079 432 l 257
 1132 55 l 257
 971 55 l 257
 971 0 l 257
 1988 0 l 257
 1936 387 l 257
 1872 387 l 257
 1918 55 l 257
 1212 55 l 257
 1146 542 l 257
 1572 542 l 257
 1603 357 l 257
 1654 357 l 257
 1592 765 l 257
 1541 765 l 257
 1567 599 l 257
 1141 599 l 257
 1073 1097 l 257
 1731 1097 l 257
 1777 764 l 257
 1842 764 l 257
 1791 1152 l 257
 772 1152 l 257
 772 1097 l 257
 909 1097 l 257
 310 55 l 257
 137 55 l 257
 137 0 l 257
639 486 m 257
 982 1097 l 257
 993 1097 l 257
 1076 486 l 257
 639 486 l 257
EndSplineSet
EndChar

StartChar: B
Encoding: 66 66 13
Width: 1279
VWidth: 0
Flags: HW
PickledData: "(dp1
S'org.robofab.postScriptHintData'
p2
(dp3
sS'com.typemytype.robofont.layerData'
p4
(dp5
S'b'
(dp6
S'name'
p7
S'B'
sS'lib'
p8
(dp9
sS'unicodes'
p10
(tsS'width'
p11
I1354
sS'contours'
p12
((dp13
S'points'
p14
((dp15
S'segmentType'
p16
S'line'
p17
sS'x'
I353
sS'smooth'
p18
I0
sS'y'
I1095
s(dp19
g16
S'line'
p20
sS'x'
I740
sg18
I1
sS'y'
I1095
s(dp21
S'y'
I1095
sS'x'
I917
sg18
I0
s(dp22
S'y'
I983
sS'x'
I1004
sg18
I0
s(dp23
g16
S'curve'
p24
sS'x'
I1004
sg18
I1
sS'y'
I868
s(dp25
S'y'
I751
sS'x'
I1004
sg18
I0
s(dp26
S'y'
I634
sS'x'
I928
sg18
I0
s(dp27
g16
S'curve'
p28
sS'x'
I784
sg18
I1
sS'y'
I634
s(dp29
g16
S'line'
p30
sS'x'
I353
sg18
I0
sS'y'
I634
stp31
s(dp32
g14
((dp33
g16
S'line'
p34
sS'x'
I353
sg18
I0
sS'y'
I573
s(dp35
g16
S'line'
p36
sS'x'
I793
sg18
I1
sS'y'
I573
s(dp37
S'y'
I573
sS'x'
I979
sg18
I0
s(dp38
S'y'
I439
sS'x'
I1072
sg18
I0
s(dp39
g16
S'curve'
p40
sS'x'
I1072
sg18
I1
sS'y'
I320
s(dp41
S'y'
I187
sS'x'
I1072
sg18
I0
s(dp42
S'y'
I58
sS'x'
I985
sg18
I0
s(dp43
g16
S'curve'
p44
sS'x'
I807
sg18
I1
sS'y'
I58
s(dp45
g16
S'line'
p46
sS'x'
I353
sg18
I0
sS'y'
I58
stp47
s(dp48
g14
((dp49
g16
S'line'
p50
sS'x'
I807
sg18
I1
sS'y'
I0
s(dp51
S'y'
I0
sS'x'
I1031
sg18
I0
s(dp52
S'y'
I158
sS'x'
I1146
sg18
I0
s(dp53
g16
S'curve'
p54
sS'x'
I1146
sg18
I1
sS'y'
I316
s(dp55
S'y'
I439
sS'x'
I1146
sg18
I0
s(dp56
S'y'
I568
sS'x'
I1074
sg18
I0
s(dp57
g16
S'curve'
p58
sS'x'
I919
sg18
I0
sS'y'
I611
s(dp59
S'y'
I669
sS'x'
I1029
sg18
I0
s(dp60
S'y'
I769
sS'x'
I1079
sg18
I0
s(dp61
g16
S'curve'
p62
sS'x'
I1079
sg18
I1
sS'y'
I870
s(dp63
S'y'
I1012
sS'x'
I1079
sg18
I0
s(dp64
S'y'
I1154
sS'x'
I964
sg18
I0
s(dp65
g16
S'curve'
p66
sS'x'
I740
sg18
I1
sS'y'
I1154
s(dp67
g16
S'line'
p68
sS'x'
I122
sg18
I0
sS'y'
I1154
s(dp69
g16
S'line'
p70
sS'x'
I122
sg18
I0
sS'y'
I1095
s(dp71
g16
S'line'
p72
sS'x'
I278
sg18
I0
sS'y'
I1095
s(dp73
g16
S'line'
p74
sS'x'
I278
sg18
I0
sS'y'
I58
s(dp75
g16
S'line'
p76
sS'x'
I135
sg18
I0
sS'y'
I58
s(dp77
g16
S'line'
p78
sS'x'
I135
sg18
I0
sS'y'
I0
stp79
stp80
sS'components'
p81
(tsS'anchors'
p82
(tsss."
AnchorPoint: "top" 574 1152 basechar 0
LayerCount: 2
Fore
SplineSet
754 1152 m 2
 116 1152 l 1
 116 1097 l 1
 287 1097 l 1
 287 55 l 1
 116 55 l 1
 116 0 l 1
 839 0 l 2
 1053 0 1170 137 1170 317 c 0
 1170 448 1110 577 927 610 c 1
 1035 634 1101 734 1101 871 c 0
 1101 1058 979 1152 754 1152 c 2
366 1097 m 1
 491 1097 616 1097 741 1097 c 0
 929 1097 1026 1029 1026 869 c 0
 1026 733 962 634 800 634 c 2
 366 634 l 1
 366 1097 l 1
366 578 m 1
 806 578 l 2
 1004 578 1091 465 1091 319 c 0
 1091 159 995 55 831 55 c 0
 676 55 521 55 366 55 c 1
 366 578 l 1
EndSplineSet
EndChar

StartChar: C
Encoding: 67 67 15
Width: 1397
VWidth: 0
Flags: HW
PickledData: "(dp1
S'org.robofab.postScriptHintData'
p2
(dp3
sS'com.typemytype.robofont.layerData'
p4
(dp5
S'b'
(dp6
S'name'
p7
S'C'
sS'lib'
p8
(dp9
sS'unicodes'
p10
(tsS'width'
p11
I1411
sS'contours'
p12
(tsS'components'
p13
(tsS'anchors'
p14
(tsss."
AnchorPoint: "bot" 712 0 basechar 0
AnchorPoint: "top" 720 1152 basechar 0
LayerCount: 2
Fore
SplineSet
712 -22 m 0
 938 -22 1126 55 1242 264 c 1
 1189 298 l 1
 1084 101 894 39 715 39 c 0
 455 39 195 220 195 580 c 0
 195 860 385 1112 715 1112 c 0
 955 1112 1081 1016 1182 814 c 1
 1237 827 l 1
 1237 1153 l 1
 1169 1153 l 1
 1169 930 l 1
 1080 1080 954 1172 712 1172 c 0
 354 1172 116 912 116 581 c 0
 116 174 419 -22 712 -22 c 0
EndSplineSet
EndChar

StartChar: D
Encoding: 68 68 22
Width: 1425
VWidth: 0
Flags: HW
PickledData: "(dp1
S'org.robofab.postScriptHintData'
p2
(dp3
sS'com.typemytype.robofont.layerData'
p4
(dp5
S'b'
(dp6
S'name'
p7
S'D'
sS'lib'
p8
(dp9
sS'unicodes'
p10
(tsS'width'
p11
I1434
sS'contours'
p12
(tsS'components'
p13
(tsS'anchors'
p14
(tsss."
AnchorPoint: "top" 640 1152 basechar 0
LayerCount: 2
Fore
SplineSet
287 55 m 1
 230 55 173 55 116 55 c 1
 116 0 l 1
 797 0 l 2
 1135 0 1304 300 1304 575 c 0
 1304 836 1143 1152 793 1152 c 2
 116 1152 l 1
 116 1097 l 1
 173 1097 230 1097 287 1097 c 1
 287 55 l 1
366 1097 m 1
 508 1097 650 1097 792 1097 c 0
 1082 1097 1225 821 1225 574 c 0
 1225 319 1083 55 785 55 c 0
 645.333333333 55 505.666666667 55 366 55 c 1
 366 1097 l 1
EndSplineSet
EndChar

StartChar: Delta
Encoding: 916 916 26
Width: 1167
VWidth: 0
Flags: HW
PickledData: "(dp1
S'org.robofab.postScriptHintData'
p2
(dp3
s."
LayerCount: 2
Fore
SplineSet
84 0 m 257
 1083 0 l 257
 1083 38 l 257
 605 1152 l 257
 532 1152 l 257
 84 38 l 257
 84 0 l 257
157 56 m 257
 562 1081 l 257
 998 56 l 257
 157 56 l 257
EndSplineSet
EndChar

StartChar: E
Encoding: 69 69 29
Width: 1217
VWidth: 0
Flags: HW
PickledData: "(dp1
S'org.robofab.postScriptHintData'
p2
(dp3
sS'com.typemytype.robofont.layerData'
p4
(dp5
S'b'
(dp6
S'name'
p7
S'E'
sS'lib'
p8
(dp9
sS'unicodes'
p10
(tsS'width'
p11
I1227
sS'contours'
p12
(tsS'components'
p13
(tsS'anchors'
p14
(tsss."
AnchorPoint: "bot" 644 0 basechar 0
AnchorPoint: "top" 664 1152 basechar 0
LayerCount: 2
Fore
SplineSet
1001 822 m 1
 1066 822 l 1
 1066 1152 l 1
 116 1152 l 1
 116 1097 l 1
 287 1097 l 1
 287 55 l 1
 116 55 l 1
 116 0 l 1
 1089 0 l 1
 1089 337 l 1
 1024 337 l 1
 1024 55 l 1
 804.666666667 55 585.333333333 55 366 55 c 1
 366 561 l 1
 777 561 l 1
 777 387 l 1
 829 387 l 1
 829 782 l 1
 777 782 l 1
 777 618 l 1
 366 618 l 1
 366 1097 l 1
 577.666666667 1097 789.333333333 1097 1001 1097 c 1
 1001 822 l 1
EndSplineSet
EndChar

StartChar: Eng
Encoding: 330 330 38
Width: 1443
VWidth: 0
Flags: HW
PickledData: "(dp1
S'org.robofab.postScriptHintData'
p2
(dp3
s."
LayerCount: 2
Fore
SplineSet
849 -376 m 257
 1083 -376 1235 -269 1235 -20 c 258
 1235 234 l 257
 1167 234 l 257
 1167 -33 l 258
 1167 -214 1064 -321 851 -321 c 257
 849 -376 l 257
EndSplineSet
Refer: 78 78 N 1 0 0 1 0 0 2
EndChar

StartChar: Euro
Encoding: 8364 8364 41
Width: 1395
VWidth: 0
Flags: HW
PickledData: "(dp1
S'org.robofab.postScriptHintData'
p2
(dp3
s."
LayerCount: 2
Fore
SplineSet
-25 436 m 257
 602 436 l 257
 631 486 l 257
 4 486 l 257
 -25 436 l 257
-25 636 m 257
 602 636 l 257
 631 686 l 257
 4 686 l 257
 -25 636 l 257
EndSplineSet
Refer: 15 67 N 1 0 0 1 0 0 2
EndChar

StartChar: F
Encoding: 70 70 42
Width: 1158
VWidth: 0
Flags: HW
PickledData: "(dp1
S'org.robofab.postScriptHintData'
p2
(dp3
sS'com.typemytype.robofont.layerData'
p4
(dp5
S'b'
(dp6
S'name'
p7
S'F'
sS'lib'
p8
(dp9
sS'unicodes'
p10
(tsS'width'
p11
I1177
sS'contours'
p12
((dp13
S'points'
p14
((dp15
S'segmentType'
p16
S'line'
p17
sS'x'
I990
sS'smooth'
p18
I0
sS'y'
I1086
s(dp19
g16
S'line'
p20
sS'x'
I990
sg18
I0
sS'y'
I802
s(dp21
g16
S'line'
p22
sS'x'
I1062
sg18
I0
sS'y'
I802
s(dp23
g16
S'line'
p24
sS'x'
I1062
sg18
I0
sS'y'
I1152
s(dp25
g16
S'line'
p26
sS'x'
I122
sg18
I0
sS'y'
I1152
s(dp27
g16
S'line'
p28
sS'x'
I122
sg18
I0
sS'y'
I1086
s(dp29
g16
S'line'
p30
sS'x'
I286
sg18
I0
sS'y'
I1086
s(dp31
g16
S'line'
p32
sS'x'
I286
sg18
I0
sS'y'
I1039
s(dp33
g16
S'line'
p34
sS'x'
I363
sg18
I0
sS'y'
I1039
s(dp35
g16
S'line'
p36
sS'x'
I363
sg18
I0
sS'y'
I1086
stp37
s(dp38
g14
((dp39
g16
S'line'
p40
sS'x'
I286
sg18
I0
sS'y'
I1039
s(dp41
g16
S'line'
p42
sS'x'
I286
sg18
I0
sS'y'
I677
s(dp43
g16
S'line'
p44
sS'x'
I363
sg18
I0
sS'y'
I677
s(dp45
g16
S'line'
p46
sS'x'
I363
sg18
I0
sS'y'
I1039
stp47
s(dp48
g14
((dp49
g16
S'line'
p50
sS'x'
I286
sg18
I0
sS'y'
I677
s(dp51
g16
S'line'
p52
sS'x'
I286
sg18
I0
sS'y'
I65
s(dp53
g16
S'line'
p54
sS'x'
I122
sg18
I0
sS'y'
I65
s(dp55
g16
S'line'
p56
sS'x'
I122
sg18
I0
sS'y'
I0
s(dp57
g16
S'line'
p58
sS'x'
I552
sg18
I0
sS'y'
I0
s(dp59
g16
S'line'
p60
sS'x'
I552
sg18
I0
sS'y'
I65
s(dp61
g16
S'line'
p62
sS'x'
I363
sg18
I0
sS'y'
I65
s(dp63
g16
S'line'
p64
sS'x'
I363
sg18
I0
sS'y'
I539
s(dp65
g16
S'line'
p66
sS'x'
I824
sg18
I0
sS'y'
I539
s(dp67
g16
S'line'
p68
sS'x'
I824
sg18
I0
sS'y'
I378
s(dp69
g16
S'line'
p70
sS'x'
I886
sg18
I0
sS'y'
I378
s(dp71
g16
S'line'
p72
sS'x'
I886
sg18
I0
sS'y'
I764
s(dp73
g16
S'line'
p74
sS'x'
I824
sg18
I0
sS'y'
I764
s(dp75
g16
S'line'
p76
sS'x'
I824
sg18
I0
sS'y'
I601
s(dp77
g16
S'line'
p78
sS'x'
I363
sg18
I0
sS'y'
I601
s(dp79
g16
S'line'
p80
sS'x'
I363
sg18
I0
sS'y'
I677
stp81
stp82
sS'components'
p83
(tsS'anchors'
p84
(tsss."
AnchorPoint: "top" 639 1152 basechar 0
LayerCount: 2
Fore
SplineSet
1010 798 m 1
 1072 798 l 1
 1072 1152 l 1
 116 1152 l 1
 116 1097 l 1
 287 1097 l 1
 287 55 l 1
 116 55 l 1
 116 0 l 1
 538 0 l 1
 538 55 l 1
 366 55 l 1
 366 565 l 1
 824 565 l 1
 824 395 l 1
 874 395 l 1
 874 774 l 1
 824 774 l 1
 824 623 l 1
 366 623 l 1
 366 1097 l 1
 580.666666667 1097 795.333333333 1097 1010 1097 c 1
 1010 798 l 1
EndSplineSet
EndChar

StartChar: G
Encoding: 71 71 44
Width: 1396
VWidth: 0
Flags: HW
PickledData: "(dp1
S'org.robofab.postScriptHintData'
p2
(dp3
sS'com.typemytype.robofont.layerData'
p4
(dp5
S'b'
(dp6
S'name'
p7
S'G'
sS'lib'
p8
(dp9
sS'unicodes'
p10
(tsS'width'
p11
I1394
sS'contours'
p12
(tsS'components'
p13
(tsS'anchors'
p14
(tsss."
AnchorPoint: "bot" 711 0 basechar 0
AnchorPoint: "top" 710 1152 basechar 0
LayerCount: 2
Fore
SplineSet
714 -21 m 0
 940 -21 1262 80 1263 554 c 1
 935 554 l 1
 935 497 l 1
 1186 497 l 1
 1181 140 905 40 715 39 c 0
 396 39 194 249 194 584 c 0
 194 910 395 1113 714 1113 c 0
 914 1113 1082 1014 1159 835 c 1
 1216 835 l 1
 1216 1153 l 1
 1146 1153 l 1
 1146 963 l 1
 1056 1098 893 1174 713 1174 c 0
 349 1174 113 947 113 584 c 0
 113 212 347 -21 714 -21 c 0
EndSplineSet
EndChar

StartChar: H
Encoding: 72 72 51
Width: 1484
VWidth: 0
Flags: HW
PickledData: "(dp1
S'org.robofab.postScriptHintData'
p2
(dp3
sS'com.typemytype.robofont.layerData'
p4
(dp5
S'b'
(dp6
S'name'
p7
S'H'
sS'lib'
p8
(dp9
sS'unicodes'
p10
(tsS'width'
p11
I1506
sS'contours'
p12
(tsS'components'
p13
(tsS'anchors'
p14
(tsss."
AnchorPoint: "bot" 740 0 basechar 0
AnchorPoint: "top" 741 1152 basechar 0
LayerCount: 2
Fore
SplineSet
116 0 m 1
 538 0 l 1
 538 55 l 1
 366 55 l 1
 366 555 l 1
 1116 555 l 1
 1116 55 l 1
 945 55 l 1
 945 0 l 1
 1367 0 l 1
 1367 55 l 1
 1195 55 l 1
 1195 1097 l 1
 1367 1097 l 1
 1367 1152 l 1
 945 1152 l 1
 945 1097 l 1
 1116 1097 l 1
 1116 613 l 1
 366 613 l 1
 366 1097 l 1
 538 1097 l 1
 538 1152 l 1
 116 1152 l 1
 116 1097 l 1
 287 1097 l 1
 287 55 l 1
 116 55 l 1
 116 0 l 1
EndSplineSet
EndChar

StartChar: Hbar
Encoding: 294 294 52
Width: 1456
VWidth: 0
Flags: HW
PickledData: "(dp1
S'org.robofab.postScriptHintData'
p2
(dp3
sS'com.typemytype.robofont.layerData'
p4
(dp5
S'b'
(dp6
S'name'
p7
S'Hbar'
p8
sS'lib'
p9
(dp10
sS'unicodes'
p11
(tsS'width'
p12
I1471
sS'contours'
p13
(tsS'components'
p14
(tsS'anchors'
p15
(tsss."
LayerCount: 2
Fore
SplineSet
143 829 m 257
 1317 829 l 257
 1317 881 l 257
 143 881 l 257
 143 829 l 257
EndSplineSet
Refer: 51 72 N 1 0 0 1 0 0 2
EndChar

StartChar: I
Encoding: 73 73 54
Width: 645
VWidth: 0
Flags: HW
PickledData: "(dp1
S'org.robofab.postScriptHintData'
p2
(dp3
sS'com.typemytype.robofont.layerData'
p4
(dp5
S'b'
(dp6
S'name'
p7
S'I'
sS'lib'
p8
(dp9
sS'unicodes'
p10
(tsS'width'
p11
I626
sS'contours'
p12
(tsS'components'
p13
(tsS'anchors'
p14
(tsss."
AnchorPoint: "top" 325 1152 basechar 0
LayerCount: 2
Fore
SplineSet
111 0 m 1
 533 0 l 1
 533 55 l 1
 361 55 l 1
 361 1097 l 1
 533 1097 l 1
 533 1152 l 1
 111 1152 l 1
 111 1097 l 1
 282 1097 l 1
 282 55 l 1
 111 55 l 1
 111 0 l 1
EndSplineSet
EndChar

StartChar: J
Encoding: 74 74 65
Width: 584
VWidth: 0
Flags: HW
PickledData: "(dp1
S'org.robofab.postScriptHintData'
p2
(dp3
sS'com.typemytype.robofont.layerData'
p4
(dp5
S'b'
(dp6
S'name'
p7
S'J'
sS'lib'
p8
(dp9
sS'unicodes'
p10
(tsS'width'
p11
I551
sS'contours'
p12
(tsS'components'
p13
(tsS'anchors'
p14
(tsss."
AnchorPoint: "top" 359 1152 basechar 0
LayerCount: 2
Fore
SplineSet
96 -91 m 1
 214 -91 l 1
 339 -90 394 -48 394 139 c 2
 394 1097 l 1
 523 1097 l 1
 523 1152 l 1
 178 1152 l 1
 178 1097 l 1
 315 1097 l 1
 315 147 l 2
 315 24 302 -29 218 -29 c 2
 96 -29 l 1
 96 -91 l 1
EndSplineSet
EndChar

StartChar: K
Encoding: 75 75 67
Width: 1302
VWidth: 0
Flags: HW
PickledData: "(dp1
S'org.robofab.postScriptHintData'
p2
(dp3
sS'com.typemytype.robofont.guides'
p4
((dp5
S'y'
I593
sS'x'
I467
sS'magnetic'
p6
I5
sS'angle'
p7
I0
sS'isGlobal'
p8
I0
stp9
sS'com.typemytype.robofont.layerData'
p10
(dp11
S'b'
(dp12
S'name'
p13
S'K'
sS'lib'
p14
(dp15
sS'unicodes'
p16
(tsS'width'
p17
I1304
sS'contours'
p18
(tsS'components'
p19
(tsS'anchors'
p20
(tsss."
AnchorPoint: "bot" 675 0 basechar 0
AnchorPoint: "top" 659 1152 basechar 0
LayerCount: 2
Fore
SplineSet
813 0 m 1
 1222 0 l 1
 1222 55 l 1
 1061 55 l 1
 456 586 l 1
 1025 1097 l 1
 1193 1097 l 1
 1193 1152 l 1
 782 1152 l 1
 782 1097 l 1
 934 1097 l 1
 366 594 l 1
 366 1097 l 1
 538 1097 l 1
 538 1152 l 1
 116 1152 l 1
 116 1097 l 1
 287 1097 l 1
 287 55 l 1
 116 55 l 1
 116 0 l 1
 538 0 l 1
 538 55 l 1
 366 55 l 1
 366 576 l 1
 964 55 l 1
 813 55 l 1
 813 0 l 1
EndSplineSet
EndChar

StartChar: L
Encoding: 76 76 69
Width: 1061
VWidth: 0
Flags: HW
PickledData: "(dp1
S'org.robofab.postScriptHintData'
p2
(dp3
sS'com.typemytype.robofont.layerData'
p4
(dp5
S'b'
(dp6
S'name'
p7
S'L'
sS'lib'
p8
(dp9
sS'unicodes'
p10
(tsS'width'
p11
I1055
sS'contours'
p12
(tsS'components'
p13
(tsS'anchors'
p14
(tsss."
AnchorPoint: "bot" 627 0 basechar 0
AnchorPoint: "caron.alt" 555 804 basechar 0
AnchorPoint: "top" 721 1152 basechar 0
LayerCount: 2
Fore
SplineSet
366 55 m 1
 366 1097 l 1
 538 1097 l 1
 538 1152 l 1
 116 1152 l 1
 116 1097 l 1
 287 1097 l 1
 287 55 l 1
 116 55 l 1
 116 0 l 1
 1008 0 l 1
 1008 388 l 1
 943 388 l 1
 943 55 l 1
 750.666666667 55 558.333333333 55 366 55 c 1
EndSplineSet
EndChar

StartChar: Lslash
Encoding: 321 321 75
Width: 1232
VWidth: 0
Flags: HW
PickledData: "(dp1
S'org.robofab.postScriptHintData'
p2
(dp3
sS'com.typemytype.robofont.layerData'
p4
(dp5
S'b'
(dp6
S'name'
p7
S'Lslash'
p8
sS'lib'
p9
(dp10
sS'unicodes'
p11
(tsS'width'
p12
I1243
sS'contours'
p13
(tsS'components'
p14
(tsS'anchors'
p15
(tsss."
LayerCount: 2
Fore
SplineSet
125 427 m 257
 556 691 l 257
 556 759 l 257
 125 490 l 257
 125 427 l 257
EndSplineSet
Refer: 69 76 N 1 0 0 1 0 0 2
EndChar

StartChar: M
Encoding: 77 77 76
Width: 1629
VWidth: 0
Flags: HW
PickledData: "(dp1
S'org.robofab.postScriptHintData'
p2
(dp3
sS'com.typemytype.robofont.layerData'
p4
(dp5
S'b'
(dp6
S'name'
p7
S'M'
sS'lib'
p8
(dp9
sS'unicodes'
p10
(tsS'width'
p11
I1606
sS'contours'
p12
(tsS'components'
p13
(tsS'anchors'
p14
(tsss."
AnchorPoint: "top" 808 1152 basechar 0
LayerCount: 2
Fore
SplineSet
128 0 m 1
 503 0 l 1
 503 55 l 1
 349 55 l 1
 349 1046 l 1
 814 92 l 1
 832 92 l 1
 1276 1046 l 1
 1276 55 l 1
 1121 55 l 1
 1121 0 l 1
 1507 0 l 1
 1507 55 l 1
 1353 55 l 1
 1353 1097 l 1
 1507 1097 l 1
 1507 1152 l 1
 1251 1152 l 1
 828 234 l 1
 380 1152 l 1
 128 1152 l 1
 128 1097 l 1
 282 1097 l 1
 282 55 l 1
 128 55 l 1
 128 0 l 1
EndSplineSet
EndChar

StartChar: N
Encoding: 78 78 78
Width: 1443
VWidth: 0
Flags: HW
PickledData: "(dp1
S'org.robofab.postScriptHintData'
p2
(dp3
sS'com.typemytype.robofont.layerData'
p4
(dp5
S'b'
(dp6
S'name'
p7
S'N'
sS'lib'
p8
(dp9
sS'unicodes'
p10
(tsS'width'
p11
I1444
sS'contours'
p12
(tsS'components'
p13
(tsS'anchors'
p14
(tsss."
AnchorPoint: "bot" 713 0 basechar 0
AnchorPoint: "top" 720 1152 basechar 0
LayerCount: 2
Fore
SplineSet
124 0 m 1
 494 0 l 1
 494 55 l 1
 341 55 l 1
 341 1047 l 1
 1157 0 l 1
 1235 0 l 1
 1235 1097 l 1
 1369 1097 l 1
 1369 1152 l 1
 1012 1152 l 1
 1012 1097 l 1
 1167 1097 l 1
 1167 108 l 1
 353 1152 l 1
 124 1152 l 1
 124 1097 l 1
 273 1097 l 1
 273 55 l 1
 124 55 l 1
 124 0 l 1
EndSplineSet
EndChar

StartChar: O
Encoding: 79 79 84
Width: 1455
VWidth: 0
Flags: HW
PickledData: "(dp1
S'org.robofab.postScriptHintData'
p2
(dp3
sS'com.typemytype.robofont.layerData'
p4
(dp5
S'b'
(dp6
S'name'
p7
S'O'
sS'lib'
p8
(dp9
sS'unicodes'
p10
(tsS'width'
p11
I1456
sS'contours'
p12
(tsS'components'
p13
(tsS'anchors'
p14
(tsss."
AnchorPoint: "top" 726 1152 basechar 0
LayerCount: 2
Fore
SplineSet
727 -22 m 0
 1135 -22 1334 278 1334 572 c 0
 1334 864 1133 1174 727 1174 c 0
 323 1174 120 865 120 572 c 0
 120 279.483909825 319.339917789 -22.0024766513 724.985127661 -22.0024766513 c 0
 725.656187165 -22.0024766513 726.327811268 -22.0016515694 727 -22 c 0
727 39 m 0
 369 39 201 305 201 572 c 0
 201 831 372 1114 727 1114 c 0
 1078 1114 1253 831 1253 572 c 0
 1253 313 1078 39 727 39 c 0
EndSplineSet
EndChar

StartChar: OE
Encoding: 338 338 85
Width: 1972
VWidth: 0
Flags: HW
PickledData: "(dp1
S'org.robofab.postScriptHintData'
p2
(dp3
sS'com.typemytype.robofont.layerData'
p4
(dp5
S'b'
(dp6
S'name'
p7
S'OE'
p8
sS'lib'
p9
(dp10
sS'unicodes'
p11
(tsS'width'
p12
I1953
sS'contours'
p13
(tsS'components'
p14
(tsS'anchors'
p15
(tsss."
LayerCount: 2
Fore
SplineSet
787 0 m 258
 1839 0 l 257
 1839 384 l 257
 1774 384 l 257
 1774 59 l 257
 1092 59 l 257
 1092 539 l 257
 1545 539 l 257
 1545 358 l 257
 1598 358 l 257
 1598 763 l 257
 1545 763 l 257
 1545 598 l 257
 1093 598 l 257
 1093 1093 l 257
 1749 1093 l 257
 1749 789 l 257
 1815 789 l 257
 1815 1152 l 257
 786 1152 l 258
 382 1152 136 935 135 573 c 256
 136 215 382 0 787 0 c 258
790 59 m 258
 435 59 216 254 216 572 c 256
 216 900 439 1093 790 1093 c 258
 1014 1093 l 257
 1014 59 l 257
 790 59 l 258
EndSplineSet
EndChar

StartChar: Omega
Encoding: 937 937 93
Width: 1426
VWidth: 0
Flags: HW
PickledData: "(dp1
S'org.robofab.postScriptHintData'
p2
(dp3
s."
LayerCount: 2
Fore
SplineSet
173 0 m 257
 566 0 l 257
 566 57 l 257
 344 187 236 421 236 631 c 256
 236 885 395 1113 713 1113 c 256
 1030 1113 1190 885 1190 631 c 256
 1190 421 1082 187 860 57 c 257
 860 0 l 257
 1253 0 l 257
 1253 55 l 257
 939 55 l 257
 1161 187 1268 416 1268 627 c 256
 1268 911 1075 1174 713 1174 c 256
 351 1174 158 911 158 627 c 256
 158 416 265 187 487 55 c 257
 173 55 l 257
 173 0 l 257
EndSplineSet
EndChar

StartChar: Oslash
Encoding: 216 216 94
Width: 1568
VWidth: 0
Flags: HW
PickledData: "(dp1
S'org.robofab.postScriptHintData'
p2
(dp3
sS'com.typemytype.robofont.layerData'
p4
(dp5
S'b'
(dp6
S'name'
p7
S'Oslash'
p8
sS'lib'
p9
(dp10
sS'unicodes'
p11
(tsS'width'
p12
I1598
sS'contours'
p13
(tsS'components'
p14
(tsS'anchors'
p15
(tsss."
LayerCount: 2
Fore
SplineSet
273 -72 m 257
 1246 1186 l 257
 1207 1215 l 257
 232 -42 l 257
 273 -72 l 257
EndSplineSet
Refer: 84 79 N 1 0 0 1 6 -8 2
EndChar

StartChar: P
Encoding: 80 80 97
Width: 1205
VWidth: 0
Flags: HW
PickledData: "(dp1
S'org.robofab.postScriptHintData'
p2
(dp3
sS'com.typemytype.robofont.layerData'
p4
(dp5
S'b'
(dp6
S'name'
p7
S'P'
sS'lib'
p8
(dp9
sS'unicodes'
p10
(tsS'width'
p11
I1226
sS'contours'
p12
((dp13
S'points'
p14
((dp15
S'segmentType'
p16
S'line'
p17
sS'x'
I353
sS'smooth'
p18
I0
sS'y'
I1095
s(dp19
g16
S'line'
p20
sS'x'
I759
sg18
I1
sS'y'
I1095
s(dp21
S'y'
I1095
sS'x'
I936
sg18
I0
s(dp22
S'y'
I960
sS'x'
I1024
sg18
I0
s(dp23
g16
S'curve'
p24
sS'x'
I1024
sg18
I1
sS'y'
I823
s(dp25
S'y'
I683
sS'x'
I1024
sg18
I0
s(dp26
S'y'
I544
sS'x'
I934
sg18
I0
s(dp27
g16
S'curve'
p28
sS'x'
I759
sg18
I1
sS'y'
I544
s(dp29
g16
S'line'
p30
sS'x'
I353
sg18
I0
sS'y'
I544
stp31
s(dp32
g14
((dp33
g16
S'line'
p34
sS'x'
I135
sg18
I0
sS'y'
I0
s(dp35
g16
S'line'
p36
sS'x'
I512
sg18
I0
sS'y'
I0
s(dp37
g16
S'line'
p38
sS'x'
I512
sg18
I0
sS'y'
I58
s(dp39
g16
S'line'
p40
sS'x'
I353
sg18
I0
sS'y'
I58
s(dp41
g16
S'line'
p42
sS'x'
I353
sg18
I0
sS'y'
I483
s(dp43
g16
S'line'
p44
sS'x'
I759
sg18
I1
sS'y'
I483
s(dp45
S'y'
I483
sS'x'
I984
sg18
I0
s(dp46
S'y'
I656
sS'x'
I1098
sg18
I0
s(dp47
g16
S'curve'
p48
sS'x'
I1098
sg18
I1
sS'y'
I826
s(dp49
S'y'
I989
sS'x'
I1098
sg18
I0
s(dp50
S'y'
I1154
sS'x'
I984
sg18
I0
s(dp51
g16
S'curve'
p52
sS'x'
I759
sg18
I1
sS'y'
I1154
s(dp53
g16
S'line'
p54
sS'x'
I122
sg18
I0
sS'y'
I1154
s(dp55
g16
S'line'
p56
sS'x'
I122
sg18
I0
sS'y'
I1095
s(dp57
g16
S'line'
p58
sS'x'
I278
sg18
I0
sS'y'
I1095
s(dp59
g16
S'line'
p60
sS'x'
I278
sg18
I0
sS'y'
I58
s(dp61
g16
S'line'
p62
sS'x'
I135
sg18
I0
sS'y'
I58
stp63
stp64
sS'components'
p65
(tsS'anchors'
p66
(tsss."
AnchorPoint: "top" 656 1152 basechar 0
LayerCount: 2
Fore
SplineSet
459 493 m 1
 730 493 l 2
 950 493 1077 622 1077 844 c 0
 1077 1040 949 1152 724 1152 c 2
 116 1152 l 1
 116 1097 l 1
 287 1097 l 1
 287 55 l 1
 116 55 l 1
 116 0 l 1
 538 0 l 1
 538 55 l 1
 366 55 l 1
 366 1097 l 1
 487 1097 608 1097 729 1097 c 0
 897.961246971 1097 996.007579239 1003.15254994 996.007579239 841.170770029 c 0
 996.007579239 655.91109718 898.140822013 549 729 549 c 2
 459 549 l 1
 459 493 l 1
EndSplineSet
EndChar

StartChar: Q
Encoding: 81 81 99
Width: 1440
VWidth: 0
Flags: HW
PickledData: "(dp1
S'org.robofab.postScriptHintData'
p2
(dp3
sS'com.typemytype.robofont.layerData'
p4
(dp5
S'b'
(dp6
S'name'
p7
S'Q'
sS'lib'
p8
(dp9
sS'unicodes'
p10
(tsS'width'
p11
I1438
sS'contours'
p12
(tsS'components'
p13
(tsS'anchors'
p14
(tsss."
LayerCount: 2
Fore
SplineSet
1166 -198 m 257
 1157 -146 l 257
 1113.1938909 -159.478802801 1075.99884689 -165.640014459 1043.04542375 -165.640014459 c 0
 929.308861316 -165.640014459 866.100166703 -92.2452206901 756 7 c 257
 680 7 l 257
 818.854206168 -128.716258006 904.166879583 -219.506862092 1040.22043325 -219.506862092 c 0
 1077.59683655 -219.506862092 1118.80266187 -212.654881246 1166 -198 c 257
EndSplineSet
Refer: 84 79 N 1 0 0 1 0 0 2
EndChar

StartChar: R
Encoding: 82 82 100
Width: 1288
VWidth: 0
Flags: HW
PickledData: "(dp1
S'org.robofab.postScriptHintData'
p2
(dp3
sS'com.typemytype.robofont.layerData'
p4
(dp5
S'b'
(dp6
S'name'
p7
S'R'
sS'lib'
p8
(dp9
sS'unicodes'
p10
(tsS'width'
p11
I1296
sS'contours'
p12
((dp13
S'points'
p14
((dp15
S'segmentType'
p16
S'line'
p17
sS'x'
I135
sS'smooth'
p18
I0
sS'y'
I0
s(dp19
g16
S'line'
p20
sS'x'
I512
sg18
I0
sS'y'
I0
s(dp21
g16
S'line'
p22
sS'x'
I512
sg18
I0
sS'y'
I58
s(dp23
g16
S'line'
p24
sS'x'
I353
sg18
I0
sS'y'
I58
s(dp25
g16
S'line'
p26
sS'x'
I353
sg18
I0
sS'y'
I539
s(dp27
g16
S'line'
p28
sS'x'
I641
sg18
I0
sS'y'
I539
s(dp29
g16
S'line'
p30
sS'x'
I961
sg18
I0
sS'y'
I0
s(dp31
g16
S'line'
p32
sS'x'
I1178
sg18
I0
sS'y'
I0
s(dp33
g16
S'line'
p34
sS'x'
I1178
sg18
I0
sS'y'
I58
s(dp35
g16
S'line'
p36
sS'x'
I1015
sg18
I0
sS'y'
I58
s(dp37
g16
S'line'
p38
sS'x'
I721
sg18
I0
sS'y'
I539
s(dp39
S'y'
I539
sS'x'
I945
sg18
I0
s(dp40
S'y'
I696
sS'x'
I1059
sg18
I0
s(dp41
g16
S'curve'
p42
sS'x'
I1059
sg18
I1
sS'y'
I848
s(dp43
S'y'
I1000
sS'x'
I1059
sg18
I0
s(dp44
S'y'
I1154
sS'x'
I945
sg18
I0
s(dp45
g16
S'curve'
p46
sS'x'
I721
sg18
I1
sS'y'
I1154
s(dp47
g16
S'line'
p48
sS'x'
I122
sg18
I0
sS'y'
I1154
s(dp49
g16
S'line'
p50
sS'x'
I122
sg18
I0
sS'y'
I1095
s(dp51
g16
S'line'
p52
sS'x'
I278
sg18
I0
sS'y'
I1095
s(dp53
g16
S'line'
p54
sS'x'
I278
sg18
I0
sS'y'
I58
s(dp55
g16
S'line'
p56
sS'x'
I135
sg18
I0
sS'y'
I58
stp57
s(dp58
g14
((dp59
g16
S'line'
p60
sS'x'
I353
sg18
I0
sS'y'
I1095
s(dp61
g16
S'line'
p62
sS'x'
I721
sg18
I1
sS'y'
I1095
s(dp63
S'y'
I1095
sS'x'
I898
sg18
I0
s(dp64
S'y'
I971
sS'x'
I985
sg18
I0
s(dp65
g16
S'curve'
p66
sS'x'
I985
sg18
I1
sS'y'
I845
s(dp67
S'y'
I723
sS'x'
I985
sg18
I0
s(dp68
S'y'
I600
sS'x'
I896
sg18
I0
s(dp69
g16
S'curve'
p70
sS'x'
I721
sg18
I1
sS'y'
I600
s(dp71
g16
S'line'
p72
sS'x'
I353
sg18
I0
sS'y'
I600
stp73
stp74
sS'components'
p75
(tsS'anchors'
p76
(tsss."
AnchorPoint: "bot" 703 0 basechar 0
AnchorPoint: "top" 641 1152 basechar 0
LayerCount: 2
Fore
SplineSet
980 0 m 1
 1203 0 l 1
 1203 55 l 1
 1033 55 l 1
 731 541 l 1
 995 550 1078 697 1078 847 c 0
 1078 1006 976 1152 738 1152 c 2
 116 1152 l 1
 116 1097 l 1
 287 1097 l 1
 287 55 l 1
 116 55 l 1
 116 0 l 1
 538 0 l 1
 538 55 l 1
 366 55 l 1
 366 1097 l 1
 491.333333333 1097 616.666666667 1097 742 1097 c 0
 935 1097 1000 968 1000 846 c 0
 1000 733 944 592 690 592 c 2
 433 592 l 1
 433 536 l 1
 649 536 l 1
 980 0 l 1
EndSplineSet
EndChar

StartChar: S
Encoding: 83 83 104
Width: 1122
VWidth: 0
Flags: HW
PickledData: "(dp1
S'org.robofab.postScriptHintData'
p2
(dp3
sS'com.typemytype.robofont.layerData'
p4
(dp5
S'b'
(dp6
S'name'
p7
S'S'
sS'lib'
p8
(dp9
sS'unicodes'
p10
(tsS'width'
p11
I1143
sS'contours'
p12
((dp13
S'points'
p14
((dp15
S'segmentType'
p16
S'curve'
p17
sS'x'
I636
sS'smooth'
p18
I1
sS'y'
S'-23'
p19
s(dp20
S'y'
S'-23'
p21
sS'x'
I930
sg18
I0
s(dp22
S'y'
I171
sS'x'
I1026
sg18
I0
s(dp23
g16
S'curve'
p24
sS'x'
I1026
sg18
I1
sS'y'
I295
s(dp25
S'y'
I543
sS'x'
I1026
sg18
I0
s(dp26
S'y'
I599
sS'x'
I829
sg18
I0
s(dp27
g16
S'curve'
p28
sS'x'
I606
sg18
I1
sS'y'
I622
s(dp29
S'y'
I643
sS'x'
I405
sg18
I0
s(dp30
S'y'
I667
sS'x'
I269
sg18
I0
s(dp31
g16
S'curve'
p32
sS'x'
I269
sg18
I1
sS'y'
I851
s(dp33
S'y'
I998
sS'x'
I269
sg18
I0
s(dp34
S'y'
I1104
sS'x'
I360
sg18
I0
s(dp35
g16
S'curve'
p36
sS'x'
I573
sg18
I1
sS'y'
I1104
s(dp37
S'y'
I1104
sS'x'
I719
sg18
I0
s(dp38
S'y'
I1024
sS'x'
I885
sg18
I0
s(dp39
g16
S'curve'
p40
sS'x'
I885
sg18
I1
sS'y'
I941
s(dp41
g16
S'line'
p42
sS'x'
I885
sg18
I0
sS'y'
I839
s(dp43
g16
S'line'
p44
sS'x'
I959
sg18
I0
sS'y'
I839
s(dp45
g16
S'line'
p46
sS'x'
I959
sg18
I0
sS'y'
I1152
s(dp47
g16
S'line'
p48
sS'x'
I885
sg18
I0
sS'y'
I1152
s(dp49
g16
S'line'
p50
sS'x'
I885
sg18
I0
sS'y'
I1049
s(dp51
S'y'
I1131
sS'x'
I828
sg18
I0
s(dp52
S'y'
I1172
sS'x'
I673
sg18
I0
s(dp53
g16
S'curve'
p54
sS'x'
I561
sg18
I1
sS'y'
I1172
s(dp55
S'y'
I1172
sS'x'
I360
sg18
I0
s(dp56
S'y'
I1066
sS'x'
I184
sg18
I0
s(dp57
g16
S'curve'
p58
sS'x'
I184
sg18
I1
sS'y'
I863
s(dp59
S'y'
I635
sS'x'
I184
sg18
I0
s(dp60
S'y'
I579
sS'x'
I332
sg18
I0
s(dp61
g16
S'curve'
p62
sS'x'
I584
sg18
I1
sS'y'
I553
s(dp63
S'y'
I531
sS'x'
I805
sg18
I0
s(dp64
S'y'
I488
sS'x'
I942
sg18
I0
s(dp65
g16
S'curve'
p66
sS'x'
I942
sg18
I1
sS'y'
I300
s(dp67
S'y'
I169
sS'x'
I942
sg18
I0
s(dp68
S'y'
I47
sS'x'
I831
sg18
I0
s(dp69
g16
S'curve'
p70
sS'x'
I644
sg18
I1
sS'y'
I47
s(dp71
S'y'
I47
sS'x'
I448
sg18
I0
s(dp72
S'y'
I118
sS'x'
I261
sg18
I0
s(dp73
g16
S'curve'
p74
sS'x'
I261
sg18
I1
sS'y'
I247
s(dp75
g16
S'line'
p76
sS'x'
I261
sg18
I0
sS'y'
I387
s(dp77
g16
S'line'
p78
sS'x'
I187
sg18
I0
sS'y'
I387
s(dp79
g16
S'line'
p80
sS'x'
I187
sg18
I0
sS'y'
S'-1'
p81
s(dp82
g16
S'line'
p83
sS'x'
I261
sg18
I0
sS'y'
S'-1'
p84
s(dp85
g16
S'line'
p86
sS'x'
I261
sg18
I0
sS'y'
I122
s(dp87
S'y'
I22
sS'x'
I335
sg18
I0
s(dp88
S'y'
S'-23'
p89
sS'x'
I496
sg18
I0
stp90
stp91
sS'components'
p92
(tsS'anchors'
p93
(tsss."
AnchorPoint: "bot" 634 0 basechar 0
AnchorPoint: "top" 577 1152 basechar 0
LayerCount: 2
Fore
SplineSet
630 -21 m 0
 947 -21 1020 179 1020 297 c 0
 1020 565 826 591 605 615 c 0
 407 637 241 662 241 858 c 0
 241 1001 337 1115 565 1115 c 0
 746 1115 872 1034 883 951 c 1
 883 842 l 1
 952 842 l 1
 952 1153 l 1
 883 1153 l 1
 883 1046 l 1
 830 1130 670 1174 558 1174 c 0
 341 1174 168 1073 168 859 c 0
 168 603 382 570 593 550 c 0
 809 530 944 495 944 302 c 0
 944 168 864 38 629 38 c 0
 403 38 281 105 240 238 c 1
 240 388 l 1
 171 388 l 1
 171 -1 l 1
 240 -1 l 1
 240 141 l 1
 297 24 442 -21 630 -21 c 0
EndSplineSet
EndChar

StartChar: Sigma
Encoding: 931 931 112
Width: 865
VWidth: 0
Flags: HW
PickledData: "(dp1
S'org.robofab.postScriptHintData'
p2
(dp3
s."
LayerCount: 2
Fore
SplineSet
111 0 m 257
 832 0 l 257
 832 59 l 257
 212 59 l 257
 632 569 l 257
 227 1094 l 257
 798 1094 l 257
 798 1152 l 257
 128 1152 l 257
 128 1110 l 257
 538 569 l 257
 111 45 l 257
 111 0 l 257
EndSplineSet
EndChar

StartChar: T
Encoding: 84 84 113
Width: 1146
VWidth: 0
Flags: HW
PickledData: "(dp1
S'org.robofab.postScriptHintData'
p2
(dp3
sS'com.typemytype.robofont.layerData'
p4
(dp5
S'b'
(dp6
S'name'
p7
S'T'
sS'lib'
p8
(dp9
sS'unicodes'
p10
(tsS'width'
p11
I1147
sS'contours'
p12
(tsS'components'
p13
(tsS'anchors'
p14
(tsss."
AnchorPoint: "bot" 566 0 basechar 0
AnchorPoint: "top" 567 1152 basechar 0
LayerCount: 2
Fore
SplineSet
52 770 m 1
 116 770 l 1
 116 1097 l 1
 253.333333333 1097 390.666666667 1097 528 1097 c 1
 528 55 l 1
 357 55 l 1
 357 0 l 1
 779 0 l 1
 779 55 l 1
 607 55 l 1
 607 1097 l 1
 747.333333333 1097 887.666666667 1097 1028 1097 c 1
 1028 770 l 1
 1096 770 l 1
 1096 1152 l 1
 52 1152 l 1
 52 770 l 1
EndSplineSet
EndChar

StartChar: Thorn
Encoding: 222 222 118
Width: 1198
VWidth: 0
Flags: HW
PickledData: "(dp1
S'org.robofab.postScriptHintData'
p2
(dp3
sS'com.typemytype.robofont.layerData'
p4
(dp5
S'b'
(dp6
S'name'
p7
S'Thorn'
p8
sS'lib'
p9
(dp10
sS'unicodes'
p11
(tsS'width'
p12
I1226
sS'contours'
p13
(tsS'components'
p14
(tsS'anchors'
p15
(tsss."
LayerCount: 2
Fore
SplineSet
116 0 m 257
 538 0 l 257
 538 55 l 257
 366 55 l 257
 366 1097 l 257
 538 1097 l 257
 538 1152 l 257
 116 1152 l 257
 116 1097 l 257
 287 1097 l 257
 287 55 l 257
 116 55 l 257
 116 0 l 257
460 338 m 257
 725 338 l 258
 934 338 1056 451 1056 646 c 256
 1056 814 931 914 716 914 c 258
 326 914 l 257
 326 859 l 257
 715 859 l 258
 880 859 978 780 979 646 c 256
 979 483 886 390 726 390 c 258
 461 390 l 257
 460 338 l 257
EndSplineSet
EndChar

StartChar: U
Encoding: 85 85 119
Width: 1473
VWidth: 0
Flags: HW
PickledData: "(dp1
S'org.robofab.postScriptHintData'
p2
(dp3
sS'com.typemytype.robofont.layerData'
p4
(dp5
S'b'
(dp6
S'name'
p7
S'U'
sS'lib'
p8
(dp9
sS'unicodes'
p10
(tsS'width'
p11
I1514
sS'contours'
p12
(tsS'components'
p13
(tsS'anchors'
p14
(tsss."
AnchorPoint: "top" 743 1152 basechar 0
LayerCount: 2
Fore
SplineSet
730 -21 m 0
 1036 -21 1252 131 1252 378 c 2
 1252 1097 l 1
 1410 1097 l 1
 1410 1152 l 1
 1029 1152 l 1
 1029 1097 l 1
 1180 1097 l 1
 1180 377 l 2
 1180 173 999 39 731 39 c 0
 479 39 313 175 313 379 c 2
 313 1097 l 1
 465 1097 l 1
 465 1152 l 1
 80 1152 l 1
 80 1097 l 1
 233 1097 l 1
 233 382 l 2
 233 145 422 -21 730 -21 c 0
EndSplineSet
EndChar

StartChar: V
Encoding: 86 86 130
Width: 1255
VWidth: 0
Flags: HW
PickledData: "(dp1
S'org.robofab.postScriptHintData'
p2
(dp3
sS'com.typemytype.robofont.layerData'
p4
(dp5
S'b'
(dp6
S'name'
p7
S'V'
sS'lib'
p8
(dp9
sS'unicodes'
p10
(tsS'width'
p11
I1228
sS'contours'
p12
(tsS'components'
p13
(tsS'anchors'
p14
(tsss."
LayerCount: 2
Fore
SplineSet
591 0 m 1
 669 0 l 1
 1087 1097 l 1
 1214 1097 l 1
 1214 1152 l 1
 848 1152 l 1
 848 1097 l 1
 1002 1097 l 1
 632 94 l 1
 260 1097 l 1
 418 1097 l 1
 418 1152 l 1
 37 1152 l 1
 37 1097 l 1
 176 1097 l 1
 591 0 l 1
EndSplineSet
EndChar

StartChar: W
Encoding: 87 87 131
Width: 1941
VWidth: 0
Flags: HW
PickledData: "(dp1
S'org.robofab.postScriptHintData'
p2
(dp3
sS'com.typemytype.robofont.layerData'
p4
(dp5
S'b'
(dp6
S'name'
p7
S'W'
sS'lib'
p8
(dp9
sS'unicodes'
p10
(tsS'width'
p11
I1962
sS'contours'
p12
(tsS'components'
p13
(tsS'anchors'
p14
(tsss."
AnchorPoint: "top" 971 1152 basechar 0
LayerCount: 2
Fore
SplineSet
578 0 m 1
 656 0 l 1
 970 950 l 1
 1295 0 l 1
 1372 0 l 1
 1734 1097 l 1
 1873 1097 l 1
 1873 1152 l 1
 1500 1152 l 1
 1500 1097 l 1
 1654 1097 l 1
 1336 95 l 1
 999 1100 l 1
 940 1100 l 1
 620 95 l 1
 289 1097 l 1
 448 1097 l 1
 448 1152 l 1
 68 1152 l 1
 68 1097 l 1
 207 1097 l 1
 578 0 l 1
EndSplineSet
EndChar

StartChar: X
Encoding: 88 88 136
Width: 1296
VWidth: 0
Flags: HW
PickledData: "(dp1
S'org.robofab.postScriptHintData'
p2
(dp3
sS'com.typemytype.robofont.layerData'
p4
(dp5
S'b'
(dp6
S'name'
p7
S'X'
sS'lib'
p8
(dp9
sS'unicodes'
p10
(tsS'width'
p11
I1293
sS'contours'
p12
(tsS'components'
p13
(tsS'anchors'
p14
(tsss."
LayerCount: 2
Fore
SplineSet
102 0 m 1
 475 0 l 1
 475 54 l 1
 327 54 l 1
 646 538 l 1
 971 54 l 1
 819 54 l 1
 819 0 l 1
 1198 0 l 1
 1198 54 l 1
 1047 54 l 1
 687 587 l 1
 1027 1098 l 1
 1177 1098 l 1
 1177 1152 l 1
 801 1152 l 1
 801 1098 l 1
 950 1098 l 1
 647 645 l 1
 342 1098 l 1
 492 1098 l 1
 492 1152 l 1
 114 1152 l 1
 114 1098 l 1
 265 1098 l 1
 606 595 l 1
 245 54 l 1
 102 54 l 1
 102 0 l 1
EndSplineSet
EndChar

StartChar: Y
Encoding: 89 89 137
Width: 1266
VWidth: 0
Flags: HW
PickledData: "(dp1
S'org.robofab.postScriptHintData'
p2
(dp3
sS'com.typemytype.robofont.layerData'
p4
(dp5
S'b'
(dp6
S'name'
p7
S'Y'
sS'lib'
p8
(dp9
sS'unicodes'
p10
(tsS'width'
p11
I1254
sS'contours'
p12
(tsS'components'
p13
(tsS'anchors'
p14
(tsss."
AnchorPoint: "top" 640 1152 basechar 0
LayerCount: 2
Fore
SplineSet
426 0 m 1
 841 0 l 1
 841 55 l 1
 672 55 l 1
 672 469 l 1
 1092 1097 l 1
 1245 1097 l 1
 1245 1152 l 1
 855 1152 l 1
 855 1097 l 1
 1013 1097 l 1
 637 530 l 1
 258 1097 l 1
 409 1097 l 1
 409 1152 l 1
 17 1152 l 1
 17 1097 l 1
 173 1097 l 1
 594 469 l 1
 594 55 l 1
 426 55 l 1
 426 0 l 1
EndSplineSet
EndChar

StartChar: Z
Encoding: 90 90 142
Width: 1223
VWidth: 0
Flags: HW
PickledData: "(dp1
S'org.robofab.postScriptHintData'
p2
(dp3
sS'com.typemytype.robofont.layerData'
p4
(dp5
S'b'
(dp6
S'name'
p7
S'Z'
sS'lib'
p8
(dp9
sS'unicodes'
p10
(tsS'width'
p11
I1241
sS'contours'
p12
(tsS'components'
p13
(tsS'anchors'
p14
(tsss."
AnchorPoint: "top" 641 1152 basechar 0
LayerCount: 2
Fore
SplineSet
138 0 m 1
 1085 0 l 1
 1085 370 l 1
 1022 370 l 1
 1022 55 l 1
 229 55 l 1
 1060 1097 l 1
 1060 1152 l 1
 167 1152 l 1
 167 798 l 1
 231 798 l 1
 231 1097 l 1
 968 1097 l 1
 138 59 l 1
 138 0 l 1
EndSplineSet
EndChar

StartChar: a
Encoding: 97 97 146
Width: 946
VWidth: 0
Flags: HW
PickledData: "(dp1
S'org.robofab.postScriptHintData'
p2
(dp3
sS'com.typemytype.robofont.layerData'
p4
(dp5
S'b'
(dp6
S'name'
p7
S'a'
sS'lib'
p8
(dp9
sS'unicodes'
p10
(tsS'width'
p11
I951
sS'contours'
p12
((dp13
S'points'
p14
((dp15
S'segmentType'
p16
S'curve'
p17
sS'x'
I391
sS'smooth'
p18
I1
sS'y'
S'-14'
p19
s(dp20
S'y'
S'-14'
p21
sS'x'
I507
sg18
I0
s(dp22
S'y'
I21
sS'x'
I593
sg18
I0
s(dp23
g16
S'curve'
p24
sS'x'
I687
sg18
I0
sS'y'
I91
s(dp25
g16
S'line'
p26
sS'x'
I703
sg18
I0
sS'y'
S'-1'
p27
s(dp28
g16
S'line'
p29
sS'x'
I890
sg18
I0
sS'y'
S'-1'
p30
s(dp31
g16
S'line'
p32
sS'x'
I890
sg18
I0
sS'y'
I57
s(dp33
g16
S'line'
p34
sS'x'
I764
sg18
I0
sS'y'
I57
s(dp35
g16
S'line'
p36
sS'x'
I764
sg18
I1
sS'y'
I569
s(dp37
S'y'
I672
sS'x'
I764
sg18
I0
s(dp38
S'y'
I819
sS'x'
I710
sg18
I0
s(dp39
g16
S'curve'
p40
sS'x'
I461
sg18
I1
sS'y'
I819
s(dp41
S'y'
I819
sS'x'
I332
sg18
I0
s(dp42
S'y'
I792
sS'x'
I226
sg18
I0
s(dp43
g16
S'curve'
p44
sS'x'
I155
sg18
I0
sS'y'
I724
s(dp45
g16
S'line'
p46
sS'x'
I190
sg18
I0
sS'y'
I668
s(dp47
S'y'
I726
sS'x'
I247
sg18
I0
s(dp48
S'y'
I755
sS'x'
I339
sg18
I0
s(dp49
g16
S'curve'
p50
sS'x'
I459
sg18
I1
sS'y'
I755
s(dp51
S'y'
I755
sS'x'
I600
sg18
I0
s(dp52
S'y'
I706
sS'x'
I687
sg18
I0
s(dp53
g16
S'curve'
p54
sS'x'
I687
sg18
I1
sS'y'
I551
s(dp55
g16
S'line'
p56
sS'x'
I687
sg18
I0
sS'y'
I428
s(dp57
S'y'
I443
sS'x'
I609
sg18
I0
s(dp58
S'y'
I455
sS'x'
I539
sg18
I0
s(dp59
g16
S'curve'
p60
sS'x'
I465
sg18
I1
sS'y'
I455
s(dp61
S'y'
I455
sS'x'
I295
sg18
I0
s(dp62
S'y'
I433
sS'x'
I117
sg18
I0
s(dp63
g16
S'curve'
p64
sS'x'
I117
sg18
I1
sS'y'
I222
s(dp65
S'y'
I96
sS'x'
I117
sg18
I0
s(dp66
S'y'
S'-14'
p67
sS'x'
I206
sg18
I0
stp68
s(dp69
g14
((dp70
g16
S'curve'
p71
sS'x'
I401
sg18
I1
sS'y'
I50
s(dp72
S'y'
I50
sS'x'
I246
sg18
I0
s(dp73
S'y'
I142
sS'x'
I195
sg18
I0
s(dp74
g16
S'curve'
p75
sS'x'
I195
sg18
I1
sS'y'
I220
s(dp76
S'y'
I390
sS'x'
I195
sg18
I0
s(dp77
S'y'
I393
sS'x'
I346
sg18
I0
s(dp78
g16
S'curve'
p79
sS'x'
I462
sg18
I1
sS'y'
I393
s(dp80
S'y'
I393
sS'x'
I559
sg18
I0
s(dp81
S'y'
I368
sS'x'
I687
sg18
I0
s(dp82
g16
S'curve'
p83
sS'x'
I687
sg18
I0
sS'y'
I368
s(dp84
g16
S'line'
p85
sS'x'
I687
sg18
I0
sS'y'
I151
s(dp86
S'y'
I76
sS'x'
I606
sg18
I0
s(dp87
S'y'
I50
sS'x'
I511
sg18
I0
stp88
stp89
sS'components'
p90
(tsS'anchors'
p91
(tsss."
AnchorPoint: "top" 466 805 basechar 0
LayerCount: 2
Fore
SplineSet
394 32 m 0
 262 32 189 118 189 218 c 0
 189 358 293 405 409 405 c 0
 501 405 596 386 693 371 c 1
 693 133 l 1
 568 61 487 32 394 32 c 0
389 -22 m 0
 485 -22 582 10 696 81 c 1
 709 0 l 1
 891 0 l 1
 891 55 l 1
 767 55 l 1
 767 553 l 2
 767 682 696 826 460 826 c 0
 382 826 269 803 163 756 c 1
 185 701 l 1
 270 738 372 769 465 769 c 0
 599 769 693 697 693 536 c 2
 693 422 l 1
 598 439 497 455 405 455 c 0
 252 455 118 397 118 217 c 0
 118 76 225 -22 389 -22 c 0
EndSplineSet
EndChar

StartChar: acute
Encoding: 180 180 150
Width: 219
VWidth: 0
Flags: HW
PickledData: "(dp1
S'org.robofab.postScriptHintData'
p2
(dp3
sS'com.typemytype.robofont.layerData'
p4
(dp5
S'b'
(dp6
S'name'
p7
S'acute'
p8
sS'lib'
p9
(dp10
sS'unicodes'
p11
(tsS'width'
p12
I45
sS'contours'
p13
(tsS'components'
p14
(tsS'anchors'
p15
(tsss."
AnchorPoint: "top" 53 804 mark 0
LayerCount: 2
Fore
SplineSet
106 1183 m 257
 63 987 l 257
 123 1051 l 257
 164 1247 l 257
 106 1183 l 257
EndSplineSet
EndChar

StartChar: ae
Encoding: 230 230 152
Width: 1618
VWidth: 0
Flags: HW
PickledData: "(dp1
S'org.robofab.postScriptHintData'
p2
(dp3
sS'com.typemytype.robofont.layerData'
p4
(dp5
S'b'
(dp6
S'name'
p7
S'ae'
p8
sS'lib'
p9
(dp10
sS'unicodes'
p11
(tsS'width'
p12
I1657
sS'contours'
p13
(tsS'components'
p14
(tsS'anchors'
p15
(tsss."
AnchorPoint: "top" 857 804 basechar 0
LayerCount: 2
Fore
SplineSet
423 -22 m 256
 534 -22 678 -9 813 108 c 257
 889 15 995 -21 1125 -21 c 256
 1297 -21 1382 30 1495 139 c 257
 1467 187 l 257
 1371 87 1249 36 1126 36 c 256
 904 36 803 158 802 388 c 257
 1490 388 l 257
 1490 675 1344 826 1127 826 c 256
 960 826 823 742 781 583 c 257
 767 746 683 826 487 826 c 256
 360 826 245 784 169 714 c 257
 199 666 l 257
 265 725 369 769 485 769 c 256
 647 769 730 709 730 532 c 258
 730 433 l 257
 717 436 541 437 529 437 c 256
 303 437 133 394 133 215 c 256
 133 54 246 -22 423 -22 c 256
429 30 m 256
 280 30 204 93 204 217 c 256
 204 359 333 387 529 387 c 256
 540 387 720 385 730 384 c 257
 732 318 748 218 782 152 c 257
 695 66 582 30 429 30 c 256
1421 438 m 257
 803 439 l 257
 812 610 917 770 1126 770 c 256
 1308 770 1419 644 1421 438 c 257
EndSplineSet
EndChar

StartChar: ampersand
Encoding: 38 38 157
Width: 1143
VWidth: 0
Flags: HW
PickledData: "(dp1
S'org.robofab.postScriptHintData'
p2
(dp3
sS'com.typemytype.robofont.layerData'
p4
(dp5
S'b'
(dp6
S'name'
p7
S'ampersand'
p8
sS'lib'
p9
(dp10
sS'unicodes'
p11
(tsS'width'
p12
I1088
sS'contours'
p13
(tsS'components'
p14
(tsS'anchors'
p15
(tsss."
LayerCount: 2
Fore
SplineSet
485 -21 m 256
 626 -21 745 27 818 110 c 257
 903 0 l 257
 1092 0 l 257
 1092 57 l 257
 941 57 l 257
 861 157 l 257
 906 224 952 361 959 423 c 257
 1092 423 l 257
 1092 479 l 257
 908 479 l 257
 903 408 865 271 825 206 c 257
 478 635 l 257
 659 708 767 829 767 968 c 256
 767 1103 667 1184 501 1184 c 256
 329 1184 227 1103 227 966 c 256
 227 871 289 772 384 655 c 257
 204 596 115 479 115 313 c 256
 115 102 253 -21 485 -21 c 256
492 40 m 256
 300 40 189 141 189 315 c 256
 189 459 264 560 419 607 c 257
 780 157 l 257
 714 80 610 40 492 40 c 256
446 681 m 257
 362 787 292 878 292 968 c 256
 292 1068 374 1128 500 1128 c 256
 627 1128 700 1069 700 966 c 256
 700 844 603 741 446 681 c 257
EndSplineSet
EndChar

StartChar: apostrophemod
Encoding: 700 700 159
Width: 600
VWidth: 0
Flags: HW
PickledData: "(dp1
S'org.robofab.postScriptHintData'
p2
(dp3
s."
AnchorPoint: "top" 76 804 mark 0
LayerCount: 2
Fore
SplineSet
53 918 m 257
 150 918 176 990 175 1081 c 257
 176 1207 l 257
 61 1208 l 257
 61 1086 l 257
 128 1086 l 257
 128 981 110 958 53 950 c 257
 53 918 l 257
EndSplineSet
EndChar

StartChar: approxequal
Encoding: 8776 8776 160
Width: 729
VWidth: 0
Flags: HW
PickledData: "(dp1
S'org.robofab.postScriptHintData'
p2
(dp3
s."
LayerCount: 2
Fore
SplineSet
657 762 m 257
 601 727 556 704 509 704 c 256
 471 704 435 714 374 739 c 256
 301 768 252 784 198 784 c 256
 148 784 101 768 55 730 c 257
 55 655 l 257
 100 691 145 710 188 710 c 256
 234 710 277 695 341 670 c 256
 410 642 453 630 500 630 c 256
 555 630 604 648 657 688 c 257
 657 762 l 257
657 533 m 257
 601 498 556 475 509 475 c 256
 471 475 435 486 374 511 c 256
 301 540 252 555 198 555 c 256
 148 555 101 539 55 502 c 257
 55 427 l 257
 100 462 145 481 188 481 c 256
 234 481 277 466 341 442 c 256
 410 413 453 402 500 402 c 256
 555 402 604 420 657 459 c 257
 657 533 l 257
EndSplineSet
EndChar

StartChar: asciicircum
Encoding: 94 94 162
Width: 915
VWidth: 0
Flags: HW
PickledData: "(dp1
S'org.robofab.postScriptHintData'
p2
(dp3
sS'com.typemytype.robofont.layerData'
p4
(dp5
S'b'
(dp6
S'name'
p7
S'asciicircum'
p8
sS'lib'
p9
(dp10
sS'unicodes'
p11
(tsS'width'
p12
I911
sS'contours'
p13
(tsS'components'
p14
(tsS'anchors'
p15
(tsss."
LayerCount: 2
Fore
SplineSet
71 776 m 257
 142 776 l 257
 464 1210 l 257
 771 776 l 257
 840 776 l 257
 504 1278 l 257
 423 1278 l 257
 71 776 l 257
EndSplineSet
EndChar

StartChar: asciitilde
Encoding: 126 126 163
Width: 810
VWidth: 0
Flags: HW
PickledData: "(dp1
S'org.robofab.postScriptHintData'
p2
(dp3
sS'com.typemytype.robofont.layerData'
p4
(dp5
S'b'
(dp6
S'name'
p7
S'asciitilde'
p8
sS'lib'
p9
(dp10
sS'unicodes'
p11
(tsS'width'
p12
I708
sS'contours'
p13
(tsS'components'
p14
(tsS'anchors'
p15
(tsss."
LayerCount: 2
Fore
SplineSet
676 622 m 257
 646.3 609.9 612.0625 607.1775 575.117625 607.1775 c 0
 544.89 607.1775 512.85 609 480 609 c 256
 388.328158018 609.907642 308.189712034 654.477425991 226.87328288 654.477425991 c 0
 218.598850032 654.477425991 210.312220016 654.015938002 202 653 c 256
 199.832945734 653.216705427 197.704047478 653.321877904 195.606944758 653.321877904 c 0
 158.995229646 653.321877904 132.074476741 621.266356587 81 591 c 257
 96 605 108 577 124 577 c 257
 157.843357033 589.870009013 191.232291208 593.651560852 225.141540238 593.651560852 c 0
 262.37052607 593.651560852 300.226692036 589.093331998 340 587 c 256
 418.511918273 581.707061689 487.685437893 540.616928542 579.099282853 540.616928542 c 0
 591.310879487 540.616928542 603.919358745 541.350189391 617 543 c 256
 617.590323936 542.987701585 618.176261592 542.981604461 618.757894815 542.981604461 c 0
 665.469608548 542.981604461 684.418146121 582.307460383 718 607 c 257
 705 594 691 622 676 622 c 257
EndSplineSet
EndChar

StartChar: asterisk
Encoding: 42 42 164
Width: 939
VWidth: 0
Flags: HW
PickledData: "(dp1
S'org.robofab.postScriptHintData'
p2
(dp3
sS'com.typemytype.robofont.layerData'
p4
(dp5
S'b'
(dp6
S'name'
p7
S'asterisk'
p8
sS'lib'
p9
(dp10
sS'unicodes'
p11
(tsS'width'
p12
I941
sS'contours'
p13
(tsS'components'
p14
(tsS'anchors'
p15
(tsss."
LayerCount: 2
Fore
SplineSet
251 415 m 257
 470 760 l 257
 688 415 l 257
 766 473 l 257
 497 784 l 257
 892 903 l 257
 860 992 l 257
 488 818 l 257
 521 1228 l 257
 418 1228 l 257
 451 818 l 257
 78 992 l 257
 46 903 l 257
 441 784 l 257
 173 473 l 257
 251 415 l 257
EndSplineSet
EndChar

StartChar: at
Encoding: 64 64 165
Width: 1399
VWidth: 0
Flags: HW
PickledData: "(dp1
S'org.robofab.postScriptHintData'
p2
(dp3
sS'com.typemytype.robofont.layerData'
p4
(dp5
S'b'
(dp6
S'name'
p7
S'at'
p8
sS'lib'
p9
(dp10
sS'unicodes'
p11
(tsS'width'
p12
I1379
sS'contours'
p13
(tsS'components'
p14
(tsS'anchors'
p15
(tsss."
LayerCount: 2
Fore
SplineSet
863.291042426 347.28912035 m 0
 863.291042426 265.468834734 908.511151492 242.628438147 958.032544886 242.628438147 c 0
 1115.88104102 242.628438147 1288 432.384347873 1288 683 c 256
 1288 927 1133 1171 750 1171 c 256
 341 1171 115 854 115 548 c 256
 115 249 318 -33 760 -33 c 256
 929 -33 1048 5 1147 77 c 257
 1122 109 l 257
 1028 44 909 13 760 13 c 256
 390 13 179 226 179 546 c 256
 179 877 416 1125 746 1125 c 256
 1081 1125 1234 909 1234 682 c 256
 1234 430.648806615 1059.69314294 289.953089902 968.844069157 289.953089902 c 0
 932.124703239 289.953089902 914.191238056 308.962629134 914.191238056 357.988921135 c 0
 914.191238056 385.615691461 919.77834753 423.321569492 931 474 c 258
 1022 889 l 257
 959 889 l 257
 925 715 l 257
 917 836 831 908 716 908 c 256
 495 908 389 706 389 522 c 256
 389 338 501 243 631 243 c 256
 751 243 836 329 881 449 c 257
 868.541195119 407.730208833 863.291042426 374.275405083 863.291042426 347.28912035 c 0
641 289 m 256
 513 289 450 389 450 520 c 256
 450 700 550 859 710 859 c 256
 825 859 898 792 898 654 c 256
 898 488 795 289 641 289 c 256
EndSplineSet
EndChar

StartChar: b
Encoding: 98 98 167
Width: 1046
VWidth: 0
Flags: HW
PickledData: "(dp1
S'org.robofab.postScriptHintData'
p2
(dp3
sS'com.typemytype.robofont.layerData'
p4
(dp5
S'b'
(dp6
S'name'
p7
S'b'
sS'lib'
p8
(dp9
sS'unicodes'
p10
(tsS'width'
p11
I1037
sS'contours'
p12
(tsS'components'
p13
(tsS'anchors'
p14
(tsss."
AnchorPoint: "top" 611 804 basechar 0
LayerCount: 2
Fore
SplineSet
561 -22 m 0
 812.356779165 -22 986.071572634 142.164627613 986.071572634 412.412133313 c 0
 986.071572634 670.774513845 823.050614464 826 579 826 c 0
 481 826 369 786 279 718 c 1
 279 1174 l 1
 69 1174 l 1
 69 1119 l 1
 205 1119 l 1
 205 55 l 1
 62 55 l 1
 62 0 l 1
 279 0 l 1
 279 89 l 1
 357 19 461 -22 561 -22 c 0
279 658 m 1
 369 728 476 768 567 768 c 0
 775 768 911 629 911 400 c 0
 911 173 769 35 553 35 c 0
 458 35 358 76 279 148 c 1
 279 658 l 1
EndSplineSet
EndChar

StartChar: backslash
Encoding: 92 92 168
Width: 391
VWidth: 0
Flags: HW
PickledData: "(dp1
S'org.robofab.postScriptHintData'
p2
(dp3
sS'com.typemytype.robofont.layerData'
p4
(dp5
S'b'
(dp6
S'name'
p7
S'backslash'
p8
sS'lib'
p9
(dp10
sS'unicodes'
p11
(tsS'width'
p12
I296
sS'contours'
p13
(tsS'components'
p14
(tsS'anchors'
p15
(tsss."
LayerCount: 2
Fore
SplineSet
334 -24 m 257
 407 -24 l 257
 44 1182 l 257
 -24 1182 l 257
 334 -24 l 257
EndSplineSet
EndChar

StartChar: bar
Encoding: 124 124 169
Width: 380
VWidth: 0
Flags: HW
PickledData: "(dp1
S'org.robofab.postScriptHintData'
p2
(dp3
sS'com.typemytype.robofont.layerData'
p4
(dp5
S'b'
(dp6
S'name'
p7
S'bar'
p8
sS'lib'
p9
(dp10
sS'unicodes'
p11
(tsS'width'
p12
I348
sS'contours'
p13
(tsS'components'
p14
(tsS'anchors'
p15
(tsss."
LayerCount: 2
Fore
SplineSet
162 -45 m 257
 227 -45 l 257
 227 1189 l 257
 162 1189 l 257
 162 -45 l 257
EndSplineSet
EndChar

StartChar: braceleft
Encoding: 123 123 171
Width: 454
VWidth: 0
Flags: HW
PickledData: "(dp1
S'org.robofab.postScriptHintData'
p2
(dp3
sS'com.typemytype.robofont.layerData'
p4
(dp5
S'b'
(dp6
S'name'
p7
S'braceleft'
p8
sS'lib'
p9
(dp10
sS'unicodes'
p11
(tsS'width'
p12
I404
sS'contours'
p13
(tsS'components'
p14
(tsS'anchors'
p15
(tsss."
LayerCount: 2
Fore
SplineSet
347 -30 m 258
 409 -30 l 257
 409 23 l 257
 275 23 245 49 245 211 c 256
 245 443 232 564 117 574 c 257
 233 583 245 706 245 941 c 256
 245 1100 276 1124 409 1124 c 257
 409 1178 l 257
 347 1178 l 258
 168 1178 163 1055 163 849 c 256
 163 674 162 615 24 615 c 257
 24 533 l 257
 155 533 163 481 163 318 c 256
 163 93 167 -30 347 -30 c 258
EndSplineSet
EndChar

StartChar: braceright
Encoding: 125 125 172
Width: 456
VWidth: 0
Flags: HW
PickledData: "(dp1
S'org.robofab.postScriptHintData'
p2
(dp3
sS'com.typemytype.robofont.layerData'
p4
(dp5
S'b'
(dp6
S'name'
p7
S'braceright'
p8
sS'lib'
p9
(dp10
sS'unicodes'
p11
(tsS'width'
p12
I406
sS'contours'
p13
(tsS'components'
p14
(tsS'anchors'
p15
(tsss."
LayerCount: 2
Fore
SplineSet
47 -30 m 257
 109 -30 l 258
 290 -30 295 93 295 268 c 256
 295 476 295 533 433 533 c 257
 433 615 l 257
 303 615 295 668 295 879 c 256
 295 1055 290 1178 109 1178 c 258
 47 1178 l 257
 47 1124 l 257
 181 1124 212 1100 212 941 c 256
 212 706 224 583 340 574 c 257
 225 565 211 443 211 211 c 256
 211 49 182 23 47 23 c 257
 47 -30 l 257
EndSplineSet
EndChar

StartChar: bracketleft
Encoding: 91 91 173
Width: 392
VWidth: 0
Flags: HW
PickledData: "(dp1
S'org.robofab.postScriptHintData'
p2
(dp3
sS'com.typemytype.robofont.layerData'
p4
(dp5
S'b'
(dp6
S'name'
p7
S'bracketleft'
p8
sS'lib'
p9
(dp10
sS'unicodes'
p11
(tsS'width'
p12
I318
sS'contours'
p13
(tsS'components'
p14
(tsS'anchors'
p15
(tsss."
LayerCount: 2
Fore
SplineSet
161 -141 m 257
 370 -141 l 257
 370 -80 l 257
 243 -80 l 257
 243 1145 l 257
 370 1145 l 257
 370 1205 l 257
 161 1205 l 257
 161 -141 l 257
EndSplineSet
EndChar

StartChar: bracketright
Encoding: 93 93 174
Width: 390
VWidth: 0
Flags: HW
PickledData: "(dp1
S'org.robofab.postScriptHintData'
p2
(dp3
sS'com.typemytype.robofont.layerData'
p4
(dp5
S'b'
(dp6
S'name'
p7
S'bracketright'
p8
sS'lib'
p9
(dp10
sS'unicodes'
p11
(tsS'width'
p12
I316
sS'contours'
p13
(tsS'components'
p14
(tsS'anchors'
p15
(tsss."
LayerCount: 2
Fore
SplineSet
13 -141 m 257
 223 -141 l 257
 223 1205 l 257
 13 1205 l 257
 13 1145 l 257
 140 1145 l 257
 140 -80 l 257
 13 -80 l 257
 13 -141 l 257
EndSplineSet
EndChar

StartChar: breve
Encoding: 728 728 175
Width: 301
VWidth: 0
Flags: HW
PickledData: "(dp1
S'org.robofab.postScriptHintData'
p2
(dp3
sS'com.typemytype.robofont.layerData'
p4
(dp5
S'b'
(dp6
S'name'
p7
S'breve'
p8
sS'lib'
p9
(dp10
sS'unicodes'
p11
(tsS'width'
p12
I233
sS'contours'
p13
(tsS'components'
p14
(tsS'anchors'
p15
(tsss."
AnchorPoint: "top" 155 804 mark 0
LayerCount: 2
Fore
SplineSet
153 930 m 256
 153.840221303 929.990559311 154.677412302 929.985842332 155.511567947 929.985842332 c 0
 243.034910704 929.985842332 297.141610332 981.915746814 312 1078 c 257
 263 1078 l 257
 247 1013 209 980 153 980 c 256
 96 980 60 1013 43 1078 c 257
 -7 1078 l 257
 9.83950829039 981.915746814 65.927326541 929.985842332 150.57206556 929.985842332 c 0
 151.378786198 929.985842332 152.188100763 929.990559311 153 930 c 256
EndSplineSet
EndChar

StartChar: breveinvertedcomb
Encoding: 785 785 176
Width: 886
VWidth: 0
Flags: W
PickledData: "(dp1
S'org.robofab.postScriptHintData'
p2
(dp3
sS'com.typemytype.robofont.layerData'
p4
(dp5
S'b'
(dp6
S'name'
p7
S'uni0311'
p8
sS'lib'
p9
(dp10
sS'unicodes'
p11
(tsS'width'
p12
I962
sS'contours'
p13
(tsS'components'
p14
(tsS'anchors'
p15
(tsss."
AnchorPoint: "top" 448 813 mark 0
LayerCount: 2
Fore
SplineSet
282 939 m 257
 338 939 l 257
 354 1003 390 1035 446 1035 c 256
 501 1035 538 1003 554 939 c 257
 609 939 l 257
 594 1038 537 1092 446 1091 c 256
 358 1092 299 1038 282 939 c 257
EndSplineSet
EndChar

StartChar: brokenbar
Encoding: 166 166 177
Width: 428
VWidth: 0
Flags: HW
PickledData: "(dp1
S'org.robofab.postScriptHintData'
p2
(dp3
sS'com.typemytype.robofont.layerData'
p4
(dp5
S'b'
(dp6
S'name'
p7
S'brokenbar'
p8
sS'lib'
p9
(dp10
sS'unicodes'
p11
(tsS'width'
p12
I418
sS'contours'
p13
(tsS'components'
p14
(tsS'anchors'
p15
(tsss."
LayerCount: 2
Fore
SplineSet
182 -65 m 257
 244 -65 l 257
 244 500 l 257
 182 500 l 257
 182 -65 l 257
182 714 m 257
 244 714 l 257
 244 1280 l 257
 182 1280 l 257
 182 714 l 257
EndSplineSet
EndChar

StartChar: bullet
Encoding: 8226 8226 178
Width: 726
VWidth: 0
Flags: HW
PickledData: "(dp1
S'org.robofab.postScriptHintData'
p2
(dp3
sS'com.typemytype.robofont.layerData'
p4
(dp5
S'b'
(dp6
S'name'
p7
S'bullet'
p8
sS'lib'
p9
(dp10
sS'unicodes'
p11
(tsS'width'
p12
I768
sS'contours'
p13
(tsS'components'
p14
(tsS'anchors'
p15
(tsss."
LayerCount: 2
Fore
SplineSet
363 451 m 256
 500 451 609 557 609 688 c 256
 609 820 500 923 363 923 c 256
 226 923 118 820 118 688 c 256
 118 558 226 451 363 451 c 256
EndSplineSet
EndChar

StartChar: c
Encoding: 99 99 179
Width: 957
VWidth: 0
Flags: HW
PickledData: "(dp1
S'org.robofab.postScriptHintData'
p2
(dp3
sS'com.typemytype.robofont.layerData'
p4
(dp5
S'b'
(dp6
S'name'
p7
S'c'
sS'lib'
p8
(dp9
sS'unicodes'
p10
(tsS'width'
p11
I956
sS'contours'
p12
((dp13
S'points'
p14
((dp15
S'y'
S'-14'
p16
sS'x'
I633
sS'smooth'
p17
I0
s(dp18
S'y'
I33
sS'x'
I758
sg17
I0
s(dp19
S'segmentType'
p20
S'curve'
p21
sS'x'
I868
sg17
I0
sS'y'
I142
s(dp22
g20
S'line'
p23
sS'x'
I845
sg17
I0
sS'y'
I213
s(dp24
S'y'
I105
sS'x'
I763
sg17
I0
s(dp25
S'y'
I51
sS'x'
I637
sg17
I0
s(dp26
g20
S'curve'
p27
sS'x'
I515
sg17
I1
sS'y'
I51
s(dp28
S'y'
I51
sS'x'
I316
sg17
I0
s(dp29
S'y'
I193
sS'x'
I169
sg17
I0
s(dp30
g20
S'curve'
p31
sS'x'
I169
sg17
I1
sS'y'
I406
s(dp32
S'y'
I630
sS'x'
I169
sg17
I0
s(dp33
S'y'
I755
sS'x'
I336
sg17
I0
s(dp34
g20
S'curve'
p35
sS'x'
I515
sg17
I1
sS'y'
I755
s(dp36
S'y'
I755
sS'x'
I705
sg17
I0
s(dp37
S'y'
I657
sS'x'
I768
sg17
I0
s(dp38
g20
S'curve'
p39
sS'x'
I776
sg17
I0
sS'y'
I570
s(dp40
g20
S'line'
p41
sS'x'
I840
sg17
I0
sS'y'
I570
s(dp42
g20
S'line'
p43
sS'x'
I840
sg17
I0
sS'y'
I825
s(dp44
g20
S'line'
p45
sS'x'
I767
sg17
I0
sS'y'
I825
s(dp46
g20
S'line'
p47
sS'x'
I767
sg17
I0
sS'y'
I714
s(dp48
S'y'
I764
sS'x'
I736
sg17
I0
s(dp49
S'y'
I819
sS'x'
I645
sg17
I0
s(dp50
g20
S'curve'
p51
sS'x'
I522
sg17
I1
sS'y'
I819
s(dp52
S'y'
I819
sS'x'
F268.96812951340218
sg17
I0
s(dp53
S'y'
I650
sS'x'
I90
sg17
I0
s(dp54
g20
S'curve'
p55
sS'x'
I90
sg17
I1
sS'y'
I406
s(dp56
S'y'
I145
sS'x'
I90
sg17
I0
s(dp57
S'y'
S'-14'
p58
sS'x'
I286
sg17
I0
s(dp59
g20
S'curve'
p60
sS'x'
I515
sg17
I1
sS'y'
S'-14'
p61
stp62
stp63
sS'components'
p64
(tsS'anchors'
p65
(tsss."
AnchorPoint: "bot" 453 0 basechar 0
AnchorPoint: "top" 487 805 basechar 0
LayerCount: 2
Fore
SplineSet
135 405 m 0
 135 617.748957293 283.760161094 768.00883271 493.471311211 768.00883271 c 0
 632.293049796 768.00883271 741.12372236 684.269448922 762 561 c 1
 822 561 l 1
 822 805 l 1
 754 805 l 1
 752 699 l 1
 714 772 603 826 488 826 c 0
 238 826 60 652 60 406 c 0
 60 156 234 -21 480 -21 c 0
 628 -21 736 28 825 125 c 1
 807 180 l 1
 714 83 624 37 483 37 c 0
 280 37 135 190 135 405 c 0
EndSplineSet
EndChar

StartChar: caron
Encoding: 711 711 181
Width: 398
VWidth: 0
Flags: HW
PickledData: "(dp1
S'org.robofab.postScriptHintData'
p2
(dp3
sS'com.typemytype.robofont.layerData'
p4
(dp5
S'b'
(dp6
S'name'
p7
S'caron'
p8
sS'lib'
p9
(dp10
sS'unicodes'
p11
(tsS'width'
p12
I351
sS'contours'
p13
(tsS'components'
p14
(tsS'anchors'
p15
(tsss."
AnchorPoint: "top" 199 804 mark 0
LayerCount: 2
Fore
SplineSet
166 926 m 257
 224 926 l 257
 394 1233 l 257
 338 1233 l 257
 196 979 l 257
 51 1233 l 257
 -7 1233 l 257
 166 926 l 257
EndSplineSet
EndChar

StartChar: caron.alt
Encoding: 65539 -1 182
Width: 600
VWidth: 0
Flags: HW
PickledData: "(dp1
S'org.robofab.postScriptHintData'
p2
(dp3
s."
AnchorPoint: "caron.alt" 188 804 mark 0
LayerCount: 2
Fore
SplineSet
279 879 m 257
 384 879 406 958 406 1052 c 258
 406 1174 l 257
 291 1174 l 257
 291 1064 l 257
 357 1064 l 257
 357 980 350 918 279 912 c 257
 279 879 l 257
EndSplineSet
EndChar

StartChar: cedilla
Encoding: 184 184 187
Width: 571
VWidth: 0
Flags: HW
PickledData: "(dp1
S'org.robofab.postScriptHintData'
p2
(dp3
s."
AnchorPoint: "bot" 288 0 mark 0
LayerCount: 2
Fore
SplineSet
279 -301 m 256
 342 -301 396 -274 396 -208 c 256
 396 -158 361 -113 264 -110 c 257
 301 6 l 257
 262 6 l 257
 202 -148 l 257
 292 -150 322 -172 322 -201 c 256
 322 -235 294 -253 247 -253 c 256
 221 -253 191 -248 158 -237 c 257
 158 -273 l 257
 195 -291 238 -301 279 -301 c 256
EndSplineSet
EndChar

StartChar: cent
Encoding: 162 162 188
Width: 919
VWidth: 0
Flags: HW
PickledData: "(dp1
S'org.robofab.postScriptHintData'
p2
(dp3
sS'com.typemytype.robofont.layerData'
p4
(dp5
S'b'
(dp6
S'name'
p7
S'cent'
p8
sS'lib'
p9
(dp10
sS'unicodes'
p11
(tsS'width'
p12
I909
sS'contours'
p13
(tsS'components'
p14
(tsS'anchors'
p15
(tsss."
LayerCount: 2
Fore
SplineSet
336 -241 m 257
 650 1038 l 257
 612 1043 l 257
 298 -234 l 257
 336 -241 l 257
EndSplineSet
Refer: 179 99 N 1 0 0 1 0 0 2
EndChar

StartChar: circumflex
Encoding: 710 710 189
Width: 401
VWidth: 0
Flags: HW
PickledData: "(dp1
S'org.robofab.postScriptHintData'
p2
(dp3
sS'com.typemytype.robofont.layerData'
p4
(dp5
S'b'
(dp6
S'name'
p7
S'circumflex'
p8
sS'lib'
p9
(dp10
sS'unicodes'
p11
(tsS'width'
p12
I347
sS'contours'
p13
(tsS'components'
p14
(tsS'anchors'
p15
(tsss."
AnchorPoint: "top" 203 804 mark 0
LayerCount: 2
Fore
SplineSet
52 927 m 257
 198 1191 l 257
 343 927 l 257
 402 927 l 257
 229 1237 l 257
 166 1237 l 257
 -7 927 l 257
 52 927 l 257
EndSplineSet
EndChar

StartChar: colon
Encoding: 58 58 190
Width: 474
VWidth: 0
Flags: HW
PickledData: "(dp1
S'org.robofab.postScriptHintData'
p2
(dp3
sS'com.typemytype.robofont.layerData'
p4
(dp5
S'b'
(dp6
S'name'
p7
S'colon'
p8
sS'lib'
p9
(dp10
sS'unicodes'
p11
(tsS'width'
p12
I453
sS'contours'
p13
(tsS'components'
p14
(tsS'anchors'
p15
(tsss."
LayerCount: 2
Fore
SplineSet
186 234 m 257
 295 234 l 257
 295 349 l 257
 186 349 l 257
 186 234 l 257
186 707 m 257
 295 707 l 257
 295 824 l 257
 186 824 l 257
 186 707 l 257
EndSplineSet
EndChar

StartChar: comma
Encoding: 44 44 191
Width: 404
VWidth: 0
Flags: HW
PickledData: "(dp1
S'org.robofab.postScriptHintData'
p2
(dp3
sS'com.typemytype.robofont.layerData'
p4
(dp5
S'b'
(dp6
S'name'
p7
S'comma'
p8
sS'lib'
p9
(dp10
sS'unicodes'
p11
(tsS'width'
p12
I374
sS'contours'
p13
(tsS'components'
p14
(tsS'anchors'
p15
(tsss."
LayerCount: 2
Fore
SplineSet
167 -180 m 257
 272 -180 292 -102 292 -1 c 258
 292 125 l 257
 284 125 239.111111111 125.444444444 207.407407407 125.444444444 c 0
 191.555555556 125.444444444 179 125.333333333 176 125 c 257
 176 0 l 257
 241 0 l 257
 241 -111 226 -137 167 -145 c 257
 167 -180 l 257
EndSplineSet
EndChar

StartChar: commaaccent
Encoding: 806 806 192
Width: 405
VWidth: 0
Flags: HW
PickledData: "(dp1
S'org.robofab.postScriptHintData'
p2
(dp3
sS'com.typemytype.robofont.layerData'
p4
(dp5
S'b'
(dp6
S'name'
p7
S'uni0326'
p8
sS'lib'
p9
(dp10
sS'unicodes'
p11
(tsS'width'
p12
I418
sS'contours'
p13
(tsS'components'
p14
(tsS'anchors'
p15
(tsss."
AnchorPoint: "bot" 239 0 mark 0
LayerCount: 2
Fore
SplineSet
167 -419 m 258
 167.649836304 -419.006188917 168.296493484 -419.009275316 168.939986001 -419.009275316 c 0
 272.271469697 -419.009275316 294 -339.424430702 294 -247 c 258
 294 -125 l 257
 179 -125 l 257
 179 -235 l 257
 245 -235 l 257
 245 -318 238 -381 167 -387 c 257
 167 -419 l 258
EndSplineSet
EndChar

StartChar: commaturnedabovecomb
Encoding: 786 786 193
Width: 600
VWidth: 0
Flags: HW
PickledData: "(dp1
S'org.robofab.postScriptHintData'
p2
(dp3
s."
AnchorPoint: "top" 265 804 mark 0
LayerCount: 2
Fore
SplineSet
330 926 m 257
 330 1047 l 257
 263 1047 l 257
 263 1152 280 1175 338 1184 c 257
 338 1216 l 257
 240 1216 215 1143 215 1052 c 258
 215 927 l 257
 330 926 l 257
EndSplineSet
EndChar

StartChar: copyright
Encoding: 169 169 194
Width: 1517
VWidth: 0
Flags: HW
PickledData: "(dp1
S'org.robofab.postScriptHintData'
p2
(dp3
sS'com.typemytype.robofont.layerData'
p4
(dp5
S'b'
(dp6
S'name'
p7
S'copyright'
p8
sS'lib'
p9
(dp10
sS'unicodes'
p11
(tsS'width'
p12
I1512
sS'contours'
p13
(tsS'components'
p14
(tsS'anchors'
p15
(tsss."
LayerCount: 2
Fore
SplineSet
762 178 m 256
 886 178 1006 228 1087 318 c 257
 1068 365 l 257
 983 276 886 229 766 229 c 256
 765.367490747 228.996524674 764.735319674 228.994788565 764.103492071 228.994788565 c 0
 582.93145972 228.994788565 430 371.740244346 430 584 c 256
 430 832 616 937 773 937 c 256
 922 937 1014 862 1027 740 c 257
 1080 740 l 257
 1080 967 l 257
 1028 967 l 257
 1027 867 l 257
 978 952 879 987 769 987 c 256
 584 987 366 865 366 585 c 256
 366 340 546 178 762 178 c 256
758 -43 m 256
 1120 -43 1401 227 1401 582 c 256
 1401 937 1120 1207 758 1207 c 256
 397 1207 117 937 117 582 c 256
 117 227 397 -43 758 -43 c 256
758 9 m 256
 435 9 184 256 184 582 c 256
 184 907 435 1155 758 1155 c 256
 1082 1155 1333 907 1333 582 c 256
 1333 259 1082 9 758 9 c 256
EndSplineSet
EndChar

StartChar: currency
Encoding: 164 164 195
Width: 1101
VWidth: 0
Flags: HW
PickledData: "(dp1
S'org.robofab.postScriptHintData'
p2
(dp3
sS'com.typemytype.robofont.layerData'
p4
(dp5
S'b'
(dp6
S'name'
p7
S'currency'
p8
sS'lib'
p9
(dp10
sS'unicodes'
p11
(tsS'width'
p12
I1124
sS'contours'
p13
(tsS'components'
p14
(tsS'anchors'
p15
(tsss."
LayerCount: 2
Fore
SplineSet
897 574 m 257
 947 622 l 257
 840 727 l 257
 903 816 935 911 935 1005 c 256
 935 1100 903 1195 839 1279 c 257
 947 1385 l 257
 897 1432 l 257
 799 1324 l 257
 710 1372 627 1398 545 1398 c 256
 467 1398 388 1374 309 1326 c 257
 210 1431 l 257
 154 1385 l 257
 259 1281 l 257
 191 1201 157 1098 157 998 c 256
 157 898 192 799 259 725 c 257
 154 622 l 257
 210 575 l 257
 308 680 l 257
 390 632 470 609 549 609 c 256
 632 609 714 634 799 682 c 257
 897 574 l 257
546 670 m 256
 386 670 221 783 221 1004 c 256
 221 1224 387 1337 547 1337 c 256
 708 1337 878 1229 878 1004 c 256
 878 779 709 670 546 670 c 256
EndSplineSet
EndChar

StartChar: d
Encoding: 100 100 196
Width: 1022
VWidth: 0
Flags: HW
PickledData: "(dp1
S'org.robofab.postScriptHintData'
p2
(dp3
sS'com.typemytype.robofont.layerData'
p4
(dp5
S'b'
(dp6
S'name'
p7
S'd'
sS'lib'
p8
(dp9
sS'unicodes'
p10
(tsS'width'
p11
I1011
sS'contours'
p12
(tsS'components'
p13
(tsS'anchors'
p14
(tsss."
AnchorPoint: "caron.alt" 864 804 basechar 0
AnchorPoint: "top" 447 804 basechar 0
LayerCount: 2
Fore
SplineSet
61.9611335504 404.671579916 m 0
 61.9611335504 149.157270403 242.465666999 -22 484 -22 c 0
 583 -22 692 18 774 82 c 1
 774 0 l 1
 985 0 l 1
 985 55 l 1
 849 55 l 1
 849 1174 l 1
 639 1174 l 1
 639 1119 l 1
 774 1119 l 1
 774 720 l 1
 687 785 568 826 461 826 c 0
 231.997034992 826 61.9611335504 658.92665323 61.9611335504 404.671579916 c 0
774 140 m 1
 693 76 586 35 493 35 c 0
 287 35 137 180 137 395 c 0
 137 620 276 769 470 769 c 0
 571 769 686 729 774 665 c 1
 774 140 l 1
EndSplineSet
EndChar

StartChar: dagger
Encoding: 8224 8224 197
Width: 458
VWidth: 0
Flags: HW
PickledData: "(dp1
S'org.robofab.postScriptHintData'
p2
(dp3
sS'com.typemytype.robofont.layerData'
p4
(dp5
S'b'
(dp6
S'name'
p7
S'dagger'
p8
sS'lib'
p9
(dp10
sS'unicodes'
p11
(tsS'width'
p12
I364
sS'contours'
p13
(tsS'components'
p14
(tsS'anchors'
p15
(tsss."
LayerCount: 2
Fore
SplineSet
190.956104252 573.697861098 m 0
 190.956104252 541.713512723 189.604224059 508.205553729 189.604224059 477.030275204 c 0
 189.604224059 351.157024793 212 220.696969697 212 30 c 257
 247 30 l 257
 247 216.119402985 268.732234351 347.533526398 268.732234351 473.545349661 c 0
 268.732234351 493.098908443 268.208955224 512.52238806 267 532 c 257
 267 548.153846154 267.047337278 563.479289941 267.047337278 578.278561675 c 0
 267.047337278 659.674556213 265.615384615 725.153846154 247 825 c 257
 451 806 l 257
 451 878 l 257
 247 866 l 257
 278 1105 l 257
 180 1105 l 257
 212 866 l 257
 5 878 l 257
 5 806 l 257
 212 825 l 257
 192.407407407 722.777777778 190.956104252 656.112482853 190.956104252 573.697861098 c 0
EndSplineSet
EndChar

StartChar: daggerdbl
Encoding: 8225 8225 198
Width: 546
VWidth: 0
Flags: HW
PickledData: "(dp1
S'org.robofab.postScriptHintData'
p2
(dp3
sS'com.typemytype.robofont.layerData'
p4
(dp5
S'b'
(dp6
S'name'
p7
S'daggerdbl'
p8
sS'lib'
p9
(dp10
sS'unicodes'
p11
(tsS'width'
p12
I486
sS'contours'
p13
(tsS'components'
p14
(tsS'anchors'
p15
(tsss."
LayerCount: 2
Fore
SplineSet
219 -32 m 257
 329 -32 l 257
 295 254 l 257
 524 235 l 257
 524 319 l 257
 296 293 l 257
 304 341 309 468 309 584 c 256
 309 701 304 835 296 886 c 257
 524 860 l 257
 524 944 l 257
 295 925 l 257
 329 1211 l 257
 219 1211 l 257
 253 925 l 257
 20 944 l 257
 20 860 l 257
 252 886 l 257
 242 836 239 706 239 590 c 256
 239 474 242 342 252 293 c 257
 20 319 l 257
 20 235 l 257
 253 254 l 257
 219 -32 l 257
EndSplineSet
EndChar

StartChar: dblgravecmb
Encoding: 783 783 199
Width: 650
VWidth: 0
Flags: HW
PickledData: "(dp1
S'org.robofab.postScriptHintData'
p2
(dp3
sS'com.typemytype.robofont.layerData'
p4
(dp5
S'b'
(dp6
S'name'
p7
S'uni030F'
p8
sS'lib'
p9
(dp10
sS'unicodes'
p11
(tsS'width'
p12
I643
sS'contours'
p13
(tsS'components'
p14
(tsS'anchors'
p15
(tsss."
AnchorPoint: "top" 347 804 mark 0
LayerCount: 2
Fore
SplineSet
203 987 m 257
 246 987 l 257
 136 1287 l 257
 57 1287 l 257
 203 987 l 257
411 987 m 257
 454 987 l 257
 344 1287 l 257
 265 1287 l 257
 411 987 l 257
EndSplineSet
EndChar

StartChar: degree
Encoding: 176 176 203
Width: 868
VWidth: 0
Flags: HW
PickledData: "(dp1
S'org.robofab.postScriptHintData'
p2
(dp3
sS'com.typemytype.robofont.layerData'
p4
(dp5
S'b'
(dp6
S'name'
p7
S'degree'
p8
sS'lib'
p9
(dp10
sS'unicodes'
p11
(tsS'width'
p12
I922
sS'contours'
p13
(tsS'components'
p14
(tsS'anchors'
p15
(tsss."
LayerCount: 2
Fore
SplineSet
435 782 m 256
 323 782 244 860 244 961 c 256
 245 1062 323 1140 434 1140 c 256
 546 1140 625 1062 625 962 c 256
 625 860 546 782 435 782 c 256
434 729 m 256
 582 729 687 831 687 961 c 256
 687 1091 582 1193 434 1193 c 256
 287 1193 182 1091 182 961 c 256
 182 831 287 729 434 729 c 256
EndSplineSet
EndChar

StartChar: dieresis
Encoding: 168 168 204
Width: 368
VWidth: 0
Flags: HW
PickledData: "(dp1
S'org.robofab.postScriptHintData'
p2
(dp3
sS'com.typemytype.robofont.layerData'
p4
(dp5
S'b'
(dp6
S'name'
p7
S'dieresis'
p8
sS'lib'
p9
(dp10
sS'unicodes'
p11
(tsS'width'
p12
I295
sS'contours'
p13
(tsS'components'
p14
(tsS'anchors'
p15
(tsss."
AnchorPoint: "top" 191 804 mark 0
LayerCount: 2
Fore
SplineSet
14 944 m 256
 47 944 68 963 68 995 c 256
 68 1026 47 1046 14 1046 c 256
 -18 1046 -38 1026 -38 995 c 256
 -38 963 -18 944 14 944 c 256
348 943 m 256
 381 943 402 962 403 994 c 256
 403 1026 382 1046 348 1046 c 256
 316 1046 296 1026 296 994 c 256
 296 962 316 943 348 943 c 256
EndSplineSet
EndChar

StartChar: divide
Encoding: 247 247 205
Width: 749
VWidth: 0
Flags: HW
PickledData: "(dp1
S'org.robofab.postScriptHintData'
p2
(dp3
sS'com.typemytype.robofont.layerData'
p4
(dp5
S'b'
(dp6
S'name'
p7
S'divide'
p8
sS'lib'
p9
(dp10
sS'unicodes'
p11
(tsS'width'
p12
I339
sS'contours'
p13
(tsS'components'
p14
(tsS'anchors'
p15
(tsss."
LayerCount: 2
Fore
SplineSet
334 247 m 257
 417 247 l 257
 417 366 l 257
 334 366 l 257
 334 247 l 257
108 493 m 257
 641 493 l 257
 641 545 l 257
 108 545 l 257
 108 493 l 257
334 660 m 257
 417 660 l 257
 417 779 l 257
 334 779 l 257
 334 660 l 257
EndSplineSet
EndChar

StartChar: dollar
Encoding: 36 36 206
Width: 1121
VWidth: 0
Flags: HW
PickledData: "(dp1
S'org.robofab.postScriptHintData'
p2
(dp3
s."
LayerCount: 2
Fore
SplineSet
558 -182 m 257
 604 -182 l 257
 604 1333 l 257
 558 1333 l 257
 558 -182 l 257
EndSplineSet
Refer: 104 83 N 1 0 0 1 -12 0 2
EndChar

StartChar: dotaccent
Encoding: 729 729 208
Width: 461
VWidth: 0
Flags: HW
PickledData: "(dp1
S'org.robofab.postScriptHintData'
p2
(dp3
s."
AnchorPoint: "top" 234 804 mark 0
LayerCount: 2
Fore
SplineSet
234 1008 m 256
 272 1008 299 1033 299 1068 c 256
 299 1102 272 1127 234 1127 c 256
 198 1127 171 1102 171 1068 c 256
 171 1033 198 1008 234 1008 c 256
EndSplineSet
EndChar

StartChar: dotlessi
Encoding: 305 305 209
Width: 562
VWidth: 0
Flags: HW
PickledData: "(dp1
S'org.robofab.postScriptHintData'
p2
(dp3
sS'com.typemytype.robofont.layerData'
p4
(dp5
S'b'
(dp6
S'name'
p7
S'dotlessi'
p8
sS'lib'
p9
(dp10
sS'unicodes'
p11
(tsS'width'
p12
I513
sS'contours'
p13
(tsS'components'
p14
(tsS'anchors'
p15
(tsss."
AnchorPoint: "top" 297 804 basechar 0
LayerCount: 2
Fore
SplineSet
103 0 m 257
 518 0 l 257
 518 55 l 257
 351 55 l 257
 351 304.666992188 351 554.333007812 351 804 c 257
 106 804 l 257
 106 749 l 257
 277 749 l 257
 277 55 l 257
 103 55 l 257
 103 0 l 257
EndSplineSet
EndChar

StartChar: dotlessj
Encoding: 567 567 210
Width: 430
VWidth: 0
Flags: W
PickledData: "(dp1
S'org.robofab.postScriptHintData'
p2
(dp3
sS'com.typemytype.robofont.layerData'
p4
(dp5
S'b'
(dp6
S'name'
p7
S'uni0237'
p8
sS'lib'
p9
(dp10
sS'unicodes'
p11
(tsS'width'
p12
I398
sS'contours'
p13
(tsS'components'
p14
(tsS'anchors'
p15
(tsss."
AnchorPoint: "top" 241 805 basechar 0
LayerCount: 2
Fore
SplineSet
19 -260 m 257
 96 -260 l 258
 315 -260 301 -118 301 -18 c 258
 301 805 l 257
 64 805 l 257
 64 752 l 257
 223 752 l 257
 223 -34 l 258
 223 -148 223 -204 88 -204 c 258
 19 -204 l 257
 19 -260 l 257
EndSplineSet
EndChar

StartChar: e
Encoding: 101 101 213
Width: 966
VWidth: 0
Flags: HW
PickledData: "(dp1
S'org.robofab.postScriptHintData'
p2
(dp3
sS'com.typemytype.robofont.layerData'
p4
(dp5
S'b'
(dp6
S'name'
p7
S'e'
sS'lib'
p8
(dp9
sS'unicodes'
p10
(tsS'width'
p11
I975
sS'contours'
p12
((dp13
S'points'
p14
((dp15
S'segmentType'
p16
S'line'
p17
sS'x'
I171
sS'smooth'
p18
I0
sS'y'
I442
s(dp19
S'y'
I592
sS'x'
I182
sg18
I0
s(dp20
S'y'
I755
sS'x'
I296
sg18
I0
s(dp21
g16
S'curve'
p22
sS'x'
I507
sg18
I1
sS'y'
I755
s(dp23
S'y'
I755
sS'x'
I699
sg18
I0
s(dp24
S'y'
I616
sS'x'
I803
sg18
I0
s(dp25
g16
S'curve'
p26
sS'x'
I820
sg18
I0
sS'y'
I442
stp27
s(dp28
g14
((dp29
g16
S'line'
p30
sS'x'
I890
sg18
I0
sS'y'
I383
s(dp31
S'y'
I601
sS'x'
I889
sg18
I0
s(dp32
S'y'
I819
sS'x'
F778.76831688899995
sg18
I0
s(dp33
g16
S'curve'
p34
sS'x'
I502
sg18
I1
sS'y'
I819
s(dp35
S'y'
I819
sS'x'
I232
sg18
I0
s(dp36
S'y'
I618
sS'x'
I90
sg18
I0
s(dp37
g16
S'curve'
p38
sS'x'
I90
sg18
I1
sS'y'
I403
s(dp39
S'y'
I150
sS'x'
I90
sg18
I0
s(dp40
S'y'
S'-14'
p41
sS'x'
I284
sg18
I0
s(dp42
g16
S'curve'
p43
sS'x'
I511
sg18
I1
sS'y'
S'-14'
p44
s(dp45
S'y'
S'-14'
p46
sS'x'
I657
sg18
I0
s(dp47
S'y'
I34
sS'x'
I761
sg18
I0
s(dp48
g16
S'curve'
p49
sS'x'
I868
sg18
I0
sS'y'
I139
s(dp50
g16
S'line'
p51
sS'x'
I836
sg18
I0
sS'y'
I197
s(dp52
S'y'
I103
sS'x'
I747
sg18
I0
s(dp53
S'y'
I50
sS'x'
I652
sg18
I0
s(dp54
g16
S'curve'
p55
sS'x'
I515
sg18
I1
sS'y'
I50
s(dp56
S'y'
I50
sS'x'
I347
sg18
I0
s(dp57
S'y'
I162
sS'x'
I182
sg18
I0
s(dp58
g16
S'curve'
p59
sS'x'
I169
sg18
I0
sS'y'
I383
stp60
stp61
sS'components'
p62
(tsS'anchors'
p63
(tsss."
AnchorPoint: "bot" 497 0 basechar 0
LayerCount: 2
Fore
SplineSet
136 435 m 1
 145 639 292 770 469 770 c 0
 628 770 771 662 792 435 c 1
 136 435 l 1
487 -21 m 0
 615 -21 748 30 845 129 c 1
 820 182 l 1
 749 101 616 36 489 36 c 0
 317 36 147 158 136 385 c 1
 864 385 l 1
 857 701 656 826 469 826 c 0
 261 826 60 680 60 402 c 0
 60 137 262 -21 487 -21 c 0
EndSplineSet
EndChar

StartChar: eight
Encoding: 56 56 221
Width: 993
VWidth: 0
Flags: HW
PickledData: "(dp1
S'org.robofab.postScriptHintData'
p2
(dp3
sS'com.typemytype.robofont.layerData'
p4
(dp5
S'b'
(dp6
S'name'
p7
S'eight'
p8
sS'lib'
p9
(dp10
sS'unicodes'
p11
(tsS'width'
p12
I964
sS'contours'
p13
(tsS'components'
p14
(tsS'anchors'
p15
(tsss."
LayerCount: 2
Fore
SplineSet
497 -22 m 256
 734 -22 879 105 879 298 c 256
 879 455 792 569 630 602 c 257
 777 633 842 746 842 883 c 256
 842 1060.2253394 709.163804952 1174.00652594 499.750452498 1174.00652594 c 0
 498.835096521 1174.00652594 497.918277455 1174.00435203 497 1174 c 256
 496.081722545 1174.00435203 495.164922419 1174.00652594 494.249604158 1174.00652594 c 0
 284.84488016 1174.00652594 153 1060.2253394 153 883 c 256
 153 750 210 662 357 612 c 257
 190 583 114 454 114 298 c 256
 114 106 257 -22 497 -22 c 256
497 37 m 256
 309 37 191 139 191 300 c 256
 191 466 273 563 416 586 c 257
 701 566 802 471 802 300 c 256
 802 139 684 37 497 37 c 256
588 626 m 257
 331 639 227 723 227 879 c 256
 227 1024 330 1115 497 1115 c 256
 665 1115 767 1023 767 879 c 256
 767 720 693 658 588 626 c 257
EndSplineSet
EndChar

StartChar: emdash
Encoding: 8212 8212 224
Width: 1018
VWidth: 0
Flags: HW
PickledData: "(dp1
S'org.robofab.postScriptHintData'
p2
(dp3
sS'com.typemytype.robofont.layerData'
p4
(dp5
S'b'
(dp6
S'name'
p7
S'emdash'
p8
sS'lib'
p9
(dp10
sS'unicodes'
p11
(tsS'width'
p12
I1309
sS'contours'
p13
(tsS'components'
p14
(tsS'anchors'
p15
(tsss."
LayerCount: 2
Fore
SplineSet
0 454 m 257
 1018 454 l 257
 1018 508 l 257
 0 508 l 257
 0 454 l 257
EndSplineSet
EndChar

StartChar: emptyset
Encoding: 8709 8709 225
Width: 1347
VWidth: 0
Flags: HW
PickledData: "(dp1
S'org.robofab.postScriptHintData'
p2
(dp3
s."
LayerCount: 2
Fore
SplineSet
232 -46 m 257
 344 86 l 257
 436 18 550 -22 673 -22 c 256
 976 -22 1222 223 1222 525 c 256
 1222 681 1157 821 1053 921 c 257
 1173 1063 l 257
 1139 1094 l 257
 1017 951 l 257
 923 1027 803 1073 673 1073 c 256
 371 1073 125 832 125 525 c 256
 125 360 196 214 309 115 c 257
 199 -15 l 257
 232 -46 l 257
343 155 m 257
 242 245 179 377 179 525 c 256
 179 801 399 1021 673 1021 c 256
 791 1021 899 980 984 911 c 257
 343 155 l 257
673 30 m 256
 562 30 461 65 379 126 c 257
 1018 880 l 257
 1111 789 1168 663 1168 525 c 256
 1168 253 947 30 673 30 c 256
EndSplineSet
EndChar

StartChar: endash
Encoding: 8211 8211 226
Width: 697
VWidth: 0
Flags: HW
PickledData: "(dp1
S'org.robofab.postScriptHintData'
p2
(dp3
sS'com.typemytype.robofont.layerData'
p4
(dp5
S'b'
(dp6
S'name'
p7
S'endash'
p8
sS'lib'
p9
(dp10
sS'unicodes'
p11
(tsS'width'
p12
I1113
sS'contours'
p13
(tsS'components'
p14
(tsS'anchors'
p15
(tsss."
LayerCount: 2
Fore
SplineSet
0 449 m 257
 697 449 l 257
 697 504 l 257
 0 504 l 257
 0 449 l 257
EndSplineSet
EndChar

StartChar: eng
Encoding: 331 331 227
Width: 1023
VWidth: 0
Flags: HW
PickledData: "(dp1
S'org.robofab.postScriptHintData'
p2
(dp3
s."
LayerCount: 2
Fore
SplineSet
37 0 m 257
 452 0 l 257
 452 55 l 257
 285 55 l 257
 285 304.666992188 285 554.333007812 285 804 c 257
 40 804 l 257
 40 749 l 257
 211 749 l 257
 211 55 l 257
 37 55 l 257
 37 0 l 257
480 -360 m 257
 714 -360 866 -253 866 -4 c 258
 866 575 l 258
 866 732 765 826 617 826 c 256
 511 826 370 768 241 685 c 257
 241 630 l 257
 377 712 516 766 602 766 c 256
 719 766 792 697 792 583 c 258
 792 -17 l 258
 792 -198 695 -305 482 -305 c 257
 480 -360 l 257
EndSplineSet
EndChar

StartChar: equal
Encoding: 61 61 229
Width: 814
VWidth: 0
Flags: HW
PickledData: "(dp1
S'org.robofab.postScriptHintData'
p2
(dp3
sS'com.typemytype.robofont.layerData'
p4
(dp5
S'b'
(dp6
S'name'
p7
S'equal'
p8
sS'lib'
p9
(dp10
sS'unicodes'
p11
(tsS'width'
p12
I715
sS'contours'
p13
(tsS'components'
p14
(tsS'anchors'
p15
(tsss."
LayerCount: 2
Fore
SplineSet
173 298 m 257
 642 298 l 257
 642 360 l 257
 173 360 l 257
 173 298 l 257
173 561 m 257
 642 561 l 257
 642 621 l 257
 173 621 l 257
 173 561 l 257
EndSplineSet
EndChar

StartChar: estimated
Encoding: 8494 8494 230
Width: 704
VWidth: 0
Flags: HW
PickledData: "(dp1
S'org.robofab.postScriptHintData'
p2
(dp3
s."
LayerCount: 2
Fore
SplineSet
536 -15 m 256
 681 -15 800 47 890 135 c 257
 862 166 l 257
 785.689207469 86.7160597083 675.984341751 31.9865849955 549.4329885 31.9865849955 c 0
 359.806987458 31.9865849955 227.028313335 182.333063664 218 395 c 257
 889 395 l 257
 889 648 736 820 514 820 c 256
 274 820 112 649 112 406 c 256
 112 156 294 -15 536 -15 c 256
218 436 m 257
 226 644 351 788 523 788 c 256
 684 787 818 644 827 436 c 257
 218 436 l 257
EndSplineSet
EndChar

StartChar: eth
Encoding: 240 240 231
Width: 913
VWidth: 0
Flags: HW
PickledData: "(dp1
S'org.robofab.postScriptHintData'
p2
(dp3
sS'com.typemytype.robofont.layerData'
p4
(dp5
S'b'
(dp6
S'name'
p7
S'eth'
p8
sS'lib'
p9
(dp10
sS'unicodes'
p11
(tsS'width'
p12
I886
sS'contours'
p13
(tsS'components'
p14
(tsS'anchors'
p15
(tsss."
LayerCount: 2
Fore
SplineSet
451 -22 m 256
 662 -22 842 129 842 396 c 256
 842 818 408 1152 168 1358 c 257
 126 1313 l 257
 319 1154 571 956 691 701 c 257
 627 759 526 802 437 802 c 256
 225 802 52 629 52 432 c 256
 52 201 179 -22 451 -22 c 256
451 41 m 256
 226 41 127 231 127 411 c 256
 127 636 288 744 445 744 c 256
 602 744 771 640 771 404 c 256
 771 228 680 41 451 41 c 256
184 908 m 257
 747 1153 l 257
 718 1204 l 257
 155 961 l 257
 184 908 l 257
EndSplineSet
EndChar

StartChar: exclam
Encoding: 33 33 232
Width: 220
VWidth: 0
Flags: HW
PickledData: "(dp1
S'org.robofab.postScriptHintData'
p2
(dp3
sS'com.typemytype.robofont.layerData'
p4
(dp5
S'b'
(dp6
S'name'
p7
S'exclam'
p8
sS'lib'
p9
(dp10
sS'unicodes'
p11
(tsS'width'
p12
I150
sS'contours'
p13
(tsS'components'
p14
(tsS'anchors'
p15
(tsss."
LayerCount: 2
Fore
SplineSet
96 339 m 257
 129 339 l 257
 151 765 l 257
 151 1169 l 257
 72 1169 l 257
 72 765 l 257
 96 339 l 257
112 -14 m 256
 150 -14 177 11 177 45 c 256
 177 79 150 104 112 104 c 256
 76 104 49 79 49 45 c 256
 49 11 76 -14 112 -14 c 256
EndSplineSet
EndChar

StartChar: f
Encoding: 102 102 234
Width: 679
VWidth: 0
Flags: HW
PickledData: "(dp1
S'org.robofab.postScriptHintData'
p2
(dp3
sS'com.typemytype.robofont.layerData'
p4
(dp5
S'b'
(dp6
S'name'
p7
S'f'
sS'lib'
p8
(dp9
sS'unicodes'
p10
(tsS'width'
p11
I671
sS'contours'
p12
(tsS'components'
p13
(tsS'anchors'
p14
(tsss."
AnchorPoint: "top" 382 1090 basechar 0
LayerCount: 2
Fore
SplineSet
105 0 m 1
 532 0 l 1
 532 55 l 1
 336 55 l 1
 336 749 l 1
 566 749 l 1
 566 804 l 1
 336 804 l 1
 336 1018 l 2
 336 1101 379 1143 443 1143 c 0
 508 1143 544 1105 554 1033 c 1
 611 1053 l 1
 602 1151 535 1199 440 1199 c 0
 324 1199 258 1131 258 1019 c 2
 258 804 l 1
 103 804 l 1
 103 749 l 1
 258 749 l 1
 258 55 l 1
 105 55 l 1
 105 0 l 1
EndSplineSet
EndChar

StartChar: ff
Encoding: 64256 64256 236
Width: 1251
VWidth: 0
Flags: HW
PickledData: "(dp1
S'org.robofab.postScriptHintData'
p2
(dp3
sS'com.typemytype.robofont.layerData'
p4
(dp5
S'b'
(dp6
S'name'
p7
S'ff'
p8
sS'lib'
p9
(dp10
sS'unicodes'
p11
(tsS'width'
p12
I1226
sS'contours'
p13
(tsS'components'
p14
(tsS'anchors'
p15
(tsss."
LayerCount: 2
Fore
SplineSet
675 0 m 257
 1086 0 l 257
 1086 55 l 257
 898 55 l 257
 898 750 l 257
 1122 750 l 257
 1122 805 l 257
 898 805 l 257
 898 1021 l 258
 898 1100 948 1142 997 1142 c 256
 1048 1142 1099 1123 1110 1033 c 257
 1166 1053 l 257
 1154 1169 1072 1199 995 1199 c 256
 906 1199 823 1135 823 1017 c 258
 823 805 l 257
 509 805 l 257
 509 750 l 257
 823 750 l 257
 823 55 l 257
 675 55 l 257
 675 0 l 257
EndSplineSet
Refer: 234 102 N 1 0 0 1 0 0 2
EndChar

StartChar: ffi
Encoding: 64259 64259 237
Width: 1709
VWidth: 0
Flags: HW
PickledData: "(dp1
S'org.robofab.postScriptHintData'
p2
(dp3
sS'com.typemytype.robofont.layerData'
p4
(dp5
S'b'
(dp6
S'name'
p7
S'ffi'
p8
sS'lib'
p9
(dp10
sS'unicodes'
p11
(tsS'width'
p12
I1699
sS'contours'
p13
(tsS'components'
p14
(tsS'anchors'
p15
(tsss."
LayerCount: 2
Fore
SplineSet
178 0 m 257
 582 0 l 257
 582 55 l 257
 402 55 l 257
 402 749 l 257
 822 749 l 257
 822 804 l 257
 402 804 l 257
 402 996 l 258
 402 1100 502 1159 652 1159 c 256
 751 1159 875 1119 971 1055 c 257
 1002 1097 l 257
 897 1170 759 1214 644 1214 c 256
 457 1214 327 1133 327 994 c 258
 327 804 l 257
 174 804 l 257
 174 749 l 257
 327 749 l 257
 327 55 l 257
 178 55 l 257
 178 0 l 257
EndSplineSet
Refer: 239 64257 N 1 0 0 1 643 0 2
EndChar

StartChar: ffl
Encoding: 64260 64260 238
Width: 1795
VWidth: 0
Flags: HW
PickledData: "(dp1
S'org.robofab.postScriptHintData'
p2
(dp3
sS'com.typemytype.robofont.layerData'
p4
(dp5
S'b'
(dp6
S'name'
p7
S'ffl'
p8
sS'lib'
p9
(dp10
sS'unicodes'
p11
(tsS'width'
p12
I1801
sS'contours'
p13
(tsS'components'
p14
(tsS'anchors'
p15
(tsss."
LayerCount: 2
Fore
SplineSet
100 0 m 257
 503 0 l 257
 503 55 l 257
 323 55 l 257
 323 749 l 257
 743 749 l 257
 743 804 l 257
 323 804 l 257
 323 996 l 258
 323 1100 423 1159 574 1159 c 256
 673 1159 797 1119 892 1055 c 257
 923 1097 l 257
 818 1170 680 1214 566 1214 c 256
 379 1214 248 1133 248 994 c 258
 248 804 l 257
 95 804 l 257
 95 749 l 257
 248 749 l 257
 248 55 l 257
 100 55 l 257
 100 0 l 257
EndSplineSet
Refer: 242 64258 N 1 0 0 1 562 0 2
EndChar

StartChar: fi
Encoding: 64257 64257 239
Width: 1080
VWidth: 0
Flags: HW
PickledData: "(dp1
S'org.robofab.postScriptHintData'
p2
(dp3
sS'com.typemytype.robofont.layerData'
p4
(dp5
S'b'
(dp6
S'name'
p7
S'fi'
p8
sS'lib'
p9
(dp10
sS'unicodes'
p11
(tsS'width'
p12
I1044
sS'contours'
p13
(tsS'components'
p14
(tsS'anchors'
p15
(tsss."
LayerCount: 2
Fore
SplineSet
111 0 m 257
 541 0 l 257
 541 55 l 257
 346 55 l 257
 346 749 l 257
 838 749 l 257
 838 55 l 257
 687 55 l 257
 687 0 l 257
 1064 0 l 257
 1064 55 l 257
 912 55 l 257
 912 804 l 257
 346 804 l 257
 346 941 l 258
 346 1089 463 1169 646 1169 c 256
 713 1169 809 1153 835 1106 c 257
 810 1098 800 1076 800 1055 c 256
 800 1022 830 999 869 999 c 256
 909 999 933 1026 933 1066 c 256
 933 1160 815 1220 649 1220 c 256
 422 1220 271 1121 271 940 c 258
 271 804 l 257
 106 804 l 257
 106 749 l 257
 271 749 l 257
 271 55 l 257
 111 55 l 257
 111 0 l 257
EndSplineSet
EndChar

StartChar: five
Encoding: 53 53 240
Width: 982
VWidth: 0
Flags: HW
PickledData: "(dp1
S'org.robofab.postScriptHintData'
p2
(dp3
sS'com.typemytype.robofont.layerData'
p4
(dp5
S'b'
(dp6
S'name'
p7
S'five'
p8
sS'lib'
p9
(dp10
sS'unicodes'
p11
(tsS'width'
p12
I964
sS'contours'
p13
(tsS'components'
p14
(tsS'anchors'
p15
(tsss."
LayerCount: 2
Fore
SplineSet
485 -22 m 256
 757 -22 910 114 910 354 c 256
 910 595 765 730 508 730 c 256
 392 730 293 688 232 613 c 257
 236 1094 l 257
 770 1094 l 257
 770 902 l 257
 841 902 l 257
 841 1152 l 257
 166 1152 l 257
 162 573 l 257
 229 546 l 257
 301 627 412 666 505 666 c 256
 717 666 835 554 835 352 c 256
 835 152 709 40 485 40 c 256
 348 40 231 105 150 219 c 257
 105 169 l 257
 198 48 329 -22 485 -22 c 256
EndSplineSet
EndChar

StartChar: fj
Encoding: 65544 -1 241
Width: 1076
VWidth: 0
Flags: HW
PickledData: "(dp1
S'org.robofab.postScriptHintData'
p2
(dp3
s."
LayerCount: 2
Fore
SplineSet
637 -260 m 257
 714 -260 l 258
 908.174089069 -260 919.179907882 -148.369552033 919.179907882 -53.3592272143 c 0
 919.179907882 -41.2117884247 919 -29.3360323887 919 -18 c 258
 919 804 l 257
 346 804 l 257
 346 941 l 258
 346 1089 463 1169 646 1169 c 256
 713 1169 809 1153 835 1106 c 257
 810 1098 800 1076 800 1055 c 256
 800 1022 830 999 869 999 c 256
 909 999 933 1026 933 1066 c 256
 933 1160 815 1220 649 1220 c 256
 422 1220 271 1121 271 940 c 258
 271 804 l 257
 106 804 l 257
 106 749 l 257
 271 749 l 257
 271 55 l 257
 111 55 l 257
 111 0 l 257
 541 0 l 257
 541 55 l 257
 346 55 l 257
 346 749 l 257
 842 749 l 257
 842 -34 l 258
 842 -148 841 -204 706 -204 c 258
 637 -204 l 257
 637 -260 l 257
EndSplineSet
EndChar

StartChar: fl
Encoding: 64258 64258 242
Width: 1228
VWidth: 0
Flags: HW
PickledData: "(dp1
S'org.robofab.postScriptHintData'
p2
(dp3
sS'com.typemytype.robofont.layerData'
p4
(dp5
S'b'
(dp6
S'name'
p7
S'fl'
p8
sS'lib'
p9
(dp10
sS'unicodes'
p11
(tsS'width'
p12
I1223
sS'contours'
p13
(tsS'components'
p14
(tsS'anchors'
p15
(tsss."
LayerCount: 2
Fore
SplineSet
111 0 m 257
 541 0 l 257
 541 55 l 257
 346 55 l 257
 346 749 l 257
 554 749 l 257
 554 804 l 257
 346 804 l 257
 346 963 l 258
 346 1102 475 1184 658 1184 c 256
 787 1184 872 1155 872 1110 c 258
 872 55 l 258
 872 42 883 0 899 0 c 258
 1142 0 l 257
 1142 55 l 257
 947 55 l 257
 947 1117 l 258
 947 1196 830 1245 661 1245 c 256
 435 1245 271 1139 271 955 c 258
 271 804 l 257
 106 804 l 257
 106 749 l 257
 271 749 l 257
 271 55 l 257
 111 55 l 257
 111 0 l 257
EndSplineSet
EndChar

StartChar: florin
Encoding: 402 402 243
Width: 794
VWidth: 0
Flags: HW
PickledData: "(dp1
S'org.robofab.postScriptHintData'
p2
(dp3
s."
LayerCount: 2
Fore
SplineSet
770.047845409 1115.52724922 m 0
 770.047845409 1169.0627633 705.893205396 1202.09262251 635.593284504 1202.09262251 c 0
 519.340213511 1202.09262251 456.546794172 1132.42496689 435 1010 c 257
 395 800 l 257
 223 800 l 257
 216 752 l 257
 389 752 l 257
 268 55 l 257
 247.412375826 -70.2413803891 201.805812157 -92.463598147 131.811535123 -92.463598147 c 0
 120.210061493 -92.463598147 107.938591675 -91.8530939566 95 -91 c 257
 93 -134 l 257
 111.784883973 -136.030798267 130.312009096 -137.431519345 148.28087272 -137.431519345 c 0
 236.490139616 -137.431519345 311.246228857 -103.676460911 337 55 c 257
 460 752 l 257
 677 752 l 257
 683 800 l 257
 467 800 l 257
 505 1009 l 258
 526.132164147 1127.14800864 567.562890182 1163.17910782 623.974584613 1163.17910782 c 0
 678.999031323 1163.17910782 700.893352408 1124.30607537 703 1059 c 257
 754.765154113 1059 770.047845409 1088.46354584 770.047845409 1115.52724922 c 0
EndSplineSet
EndChar

StartChar: foundryicon
Encoding: 65545 -1 244
Width: 1347
VWidth: 0
Flags: HW
PickledData: "(dp1
S'org.robofab.postScriptHintData'
p2
(dp3
sS'com.typemytype.robofont.layerData'
p4
(dp5
S'b'
(dp6
S'name'
p7
S'foundryicon'
p8
sS'lib'
p9
(dp10
sS'unicodes'
p11
(tsS'width'
p12
I313
sS'contours'
p13
(tsS'components'
p14
(tsS'anchors'
p15
(tsss."
LayerCount: 2
Fore
SplineSet
485 405 m 257
 485 672 l 257
 591 672 l 257
 761 523 l 257
 761 672 l 257
 867 672 l 257
 867 405 l 257
 761 405 l 257
 591 552 l 257
 591 405 l 257
 485 405 l 257
280 2 m 257
 669 278 l 257
 1066 2 l 257
 922 461 l 257
 1313 755 l 257
 828 755 l 257
 669 1215 l 257
 519 755 l 257
 34 755 l 257
 423 461 l 257
 280 2 l 257
EndSplineSet
EndChar

StartChar: four
Encoding: 52 52 245
Width: 966
VWidth: 0
Flags: HW
PickledData: "(dp1
S'org.robofab.postScriptHintData'
p2
(dp3
sS'com.typemytype.robofont.layerData'
p4
(dp5
S'b'
(dp6
S'name'
p7
S'four'
p8
sS'lib'
p9
(dp10
sS'unicodes'
p11
(tsS'width'
p12
I964
sS'contours'
p13
(tsS'components'
p14
(tsS'anchors'
p15
(tsss."
LayerCount: 2
Fore
SplineSet
434 0 m 257
 794 0 l 257
 794 55 l 257
 651 55 l 257
 651 363 l 257
 862 363 l 257
 862 418 l 257
 651 418 l 257
 651 1152 l 257
 571 1152 l 257
 97 426 l 257
 109 363 l 257
 580 363 l 257
 580 55 l 257
 434 55 l 257
 434 0 l 257
170 418 m 257
 580 1064 l 257
 580 418 l 257
 170 418 l 257
EndSplineSet
EndChar

StartChar: foursuperior
Encoding: 8308 8308 246
Width: 769
VWidth: 0
Flags: HW
PickledData: "(dp1
S'org.robofab.postScriptHintData'
p2
(dp3
sS'com.typemytype.robofont.layerData'
p4
(dp5
S'b'
(dp6
S'name'
p7
S'uni2074'
p8
sS'lib'
p9
(dp10
sS'unicodes'
p11
(tsS'width'
p12
I718
sS'contours'
p13
(tsS'components'
p14
(tsS'anchors'
p15
(tsss."
LayerCount: 2
Fore
SplineSet
325 546 m 257
 620 546 l 257
 620 593 l 257
 501 593 l 257
 501 779 l 257
 683 779 l 257
 683 826 l 257
 501 826 l 257
 501 1326 l 257
 436 1326 l 257
 68 826 l 257
 80 779 l 257
 444 779 l 257
 444 593 l 257
 325 593 l 257
 325 546 l 257
134 826 m 257
 444 1256 l 257
 444 826 l 257
 134 826 l 257
EndSplineSet
EndChar

StartChar: fraction
Encoding: 8260 8260 247
Width: 411
VWidth: 0
Flags: HW
PickledData: "(dp1
S'org.robofab.postScriptHintData'
p2
(dp3
sS'com.typemytype.robofont.layerData'
p4
(dp5
S'b'
(dp6
S'name'
p7
S'fraction'
p8
sS'lib'
p9
(dp10
sS'unicodes'
p11
(tsS'width'
p12
I337
sS'contours'
p13
(tsS'components'
p14
(tsS'anchors'
p15
(tsss."
LayerCount: 2
Fore
SplineSet
-54 -30 m 257
 16 -30 l 257
 453 1282 l 257
 389 1282 l 257
 -54 -30 l 257
EndSplineSet
EndChar

StartChar: g
Encoding: 103 103 248
Width: 1024
VWidth: 0
Flags: HW
PickledData: "(dp1
S'org.robofab.postScriptHintData'
p2
(dp3
sS'com.typemytype.robofont.layerData'
p4
(dp5
S'b'
(dp6
S'name'
p7
S'g'
sS'lib'
p8
(dp9
sS'unicodes'
p10
(tsS'width'
p11
I1013
sS'contours'
p12
((dp13
S'points'
p14
((dp15
S'segmentType'
p16
S'curve'
p17
sS'x'
I510
sS'smooth'
p18
I1
sS'y'
S'-333'
p19
s(dp20
S'y'
S'-333'
p21
sS'x'
I722
sg18
I0
s(dp22
S'y'
S'-225'
p23
sS'x'
I880
sg18
I0
s(dp24
g16
S'curve'
p25
sS'x'
I880
sg18
I0
sS'y'
I15
s(dp26
g16
S'line'
p27
sS'x'
I880
sg18
I0
sS'y'
I735
s(dp28
g16
S'line'
p29
sS'x'
I1005
sg18
I0
sS'y'
I735
s(dp30
g16
S'line'
p31
sS'x'
I1005
sg18
I0
sS'y'
I789
s(dp32
g16
S'line'
p33
sS'x'
I804
sg18
I0
sS'y'
I789
s(dp34
g16
S'line'
p35
sS'x'
I804
sg18
I0
sS'y'
I673
s(dp36
S'y'
I673
sS'x'
I804
sg18
I0
s(dp37
S'y'
S'-2'
p38
sS'x'
I804
sg18
I0
s(dp39
g16
S'curve'
p40
sS'x'
I804
sg18
I1
sS'y'
S'-2'
p41
s(dp42
S'y'
S'-173'
p43
sS'x'
I804
sg18
I0
s(dp44
S'y'
S'-271'
p45
sS'x'
I695
sg18
I0
s(dp46
g16
S'curve'
p47
sS'x'
I515
sg18
I1
sS'y'
S'-271'
p48
s(dp49
S'y'
S'-271'
p50
sS'x'
I444
sg18
I0
s(dp51
S'y'
S'-255'
p52
sS'x'
I362
sg18
I0
s(dp53
g16
S'curve'
p54
sS'x'
I272
sg18
I0
sS'y'
S'-224'
p55
s(dp56
g16
S'line'
p57
sS'x'
I257
sg18
I0
sS'y'
S'-289'
p58
s(dp59
S'y'
S'-318'
p60
sS'x'
I345
sg18
I0
s(dp61
S'y'
S'-333'
p62
sS'x'
I431
sg18
I0
stp63
stp64
sS'components'
p65
(tsS'anchors'
p66
(tsss."
AnchorPoint: "top" 491 804 basechar 0
LayerCount: 2
Fore
SplineSet
62.9611335504 411.542128475 m 0
 62.9611335504 161.042085349 243.50596647 -7 485 -7 c 0
 589 -7 704 37 787 105 c 1
 787 -30 l 2
 787 -212 685 -318 479 -318 c 0
 403 -318 311 -303 202 -272 c 1
 189 -330 l 1
 293 -358 391 -377 478 -377 c 0
 712 -377 861 -267 861 -17 c 2
 861 749 l 1
 997 749 l 1
 997 804 l 1
 786 804 l 1
 786 712 l 1
 698 780 573 824 462 824 c 0
 232.997034992 824 62.9611335504 660.857790801 62.9611335504 411.542128475 c 0
786 659 m 1
 787 161 l 1
 704 93 592 49 494 49 c 0
 288 49 138 191 138 402 c 0
 138 622 277 769 471 769 c 0
 576 769 697 726 786 659 c 1
EndSplineSet
EndChar

StartChar: germandbls
Encoding: 223 223 255
Width: 1187
VWidth: 0
Flags: HW
PickledData: "(dp1
S'org.robofab.postScriptHintData'
p2
(dp3
sS'com.typemytype.robofont.layerData'
p4
(dp5
S'b'
(dp6
S'name'
p7
S'germandbls'
p8
sS'lib'
p9
(dp10
sS'unicodes'
p11
(tsS'width'
p12
I1198
sS'contours'
p13
(tsS'components'
p14
(tsS'anchors'
p15
(tsss."
LayerCount: 2
Fore
SplineSet
97 0 m 257
 450 0 l 257
 450 60 l 257
 329 60 l 257
 329 871 l 258
 329 1073 418 1200 604 1200 c 256
 788 1200 876 1112 876 974 c 256
 876 812 779 709 597 700 c 257
 597 653 l 257
 863 652 1020 540 1020 356 c 256
 1020 165 841 60 583 60 c 257
 583 0 l 257
 903 0 1097 141 1097 356 c 256
 1097 528 987 660 732 685 c 257
 866 717 950 826 950 975 c 256
 950 1160 824 1258 604 1258 c 256
 375 1258 250 1119 250 866 c 258
 250 60 l 257
 97 60 l 257
 97 0 l 257
EndSplineSet
EndChar

StartChar: grave
Encoding: 96 96 256
Width: 191
VWidth: 0
Flags: HW
PickledData: "(dp1
S'org.robofab.postScriptHintData'
p2
(dp3
sS'com.typemytype.robofont.layerData'
p4
(dp5
S'b'
(dp6
S'name'
p7
S'grave'
p8
sS'lib'
p9
(dp10
sS'unicodes'
p11
(tsS'width'
p12
I50
sS'contours'
p13
(tsS'components'
p14
(tsS'anchors'
p15
(tsss."
AnchorPoint: "top" 157 804 mark 0
LayerCount: 2
Fore
SplineSet
131 987 m 257
 173 987 l 257
 80 1247 l 257
 1 1247 l 257
 131 987 l 257
EndSplineSet
EndChar

StartChar: greater
Encoding: 62 62 257
Width: 933
VWidth: 0
Flags: HW
PickledData: "(dp1
S'org.robofab.postScriptHintData'
p2
(dp3
sS'com.typemytype.robofont.layerData'
p4
(dp5
S'b'
(dp6
S'name'
p7
S'greater'
p8
sS'lib'
p9
(dp10
sS'unicodes'
p11
(tsS'width'
p12
I896
sS'contours'
p13
(tsS'components'
p14
(tsS'anchors'
p15
(tsss."
LayerCount: 2
Fore
SplineSet
144 -77 m 257
 970 551 l 257
 970 593 l 257
 144 1227 l 257
 144 1134 l 257
 889 573 l 257
 144 14 l 257
 144 -77 l 257
EndSplineSet
EndChar

StartChar: greaterequal
Encoding: 8805 8805 258
Width: 683
VWidth: 0
Flags: HW
PickledData: "(dp1
S'org.robofab.postScriptHintData'
p2
(dp3
sS'com.typemytype.robofont.layerData'
p4
(dp5
S'b'
(dp6
S'name'
p7
S'greaterequal'
p8
sS'lib'
p9
(dp10
sS'unicodes'
p11
(tsS'width'
p12
I595
sS'contours'
p13
(tsS'components'
p14
(tsS'anchors'
p15
(tsss."
LayerCount: 2
Fore
SplineSet
25 188 m 257
 689 535 l 257
 689 570 l 257
 25 919 l 257
 25 853 l 257
 588 552 l 257
 25 253 l 257
 25 188 l 257
25 0 m 257
 689 0 l 257
 689 55 l 257
 25 55 l 257
 25 0 l 257
EndSplineSet
EndChar

StartChar: guillemotleft
Encoding: 171 171 259
Width: 786
VWidth: 0
Flags: HW
PickledData: "(dp1
S'org.robofab.postScriptHintData'
p2
(dp3
sS'com.typemytype.robofont.layerData'
p4
(dp5
S'b'
(dp6
S'name'
p7
S'guillemotleft'
p8
sS'lib'
p9
(dp10
sS'unicodes'
p11
(tsS'width'
p12
I744
sS'contours'
p13
(tsS'components'
p14
(tsS'anchors'
p15
(tsss."
LayerCount: 2
Fore
SplineSet
330 276 m 257
 382 276 l 257
 170 659 l 257
 382 1040 l 257
 330 1040 l 257
 56 659 l 257
 330 276 l 257
605 276 m 257
 657 276 l 257
 443 659 l 257
 657 1040 l 257
 605 1040 l 257
 330 659 l 257
 605 276 l 257
EndSplineSet
EndChar

StartChar: guillemotright
Encoding: 187 187 260
Width: 786
VWidth: 0
Flags: HW
PickledData: "(dp1
S'org.robofab.postScriptHintData'
p2
(dp3
sS'com.typemytype.robofont.layerData'
p4
(dp5
S'b'
(dp6
S'name'
p7
S'guillemotright'
p8
sS'lib'
p9
(dp10
sS'unicodes'
p11
(tsS'width'
p12
I744
sS'contours'
p13
(tsS'components'
p14
(tsS'anchors'
p15
(tsss."
LayerCount: 2
Fore
SplineSet
129 276 m 257
 181 276 l 257
 455 659 l 257
 181 1040 l 257
 129 1040 l 257
 341 659 l 257
 129 276 l 257
404 276 m 257
 456 276 l 257
 730 659 l 257
 456 1040 l 257
 404 1040 l 257
 616 659 l 257
 404 276 l 257
EndSplineSet
EndChar

StartChar: guilsinglleft
Encoding: 8249 8249 261
Width: 448
VWidth: 0
Flags: HW
PickledData: "(dp1
S'org.robofab.postScriptHintData'
p2
(dp3
sS'com.typemytype.robofont.layerData'
p4
(dp5
S'b'
(dp6
S'name'
p7
S'guilsinglleft'
p8
sS'lib'
p9
(dp10
sS'unicodes'
p11
(tsS'width'
p12
I405
sS'contours'
p13
(tsS'components'
p14
(tsS'anchors'
p15
(tsss."
LayerCount: 2
Fore
SplineSet
284 276 m 257
 336 276 l 257
 124 659 l 257
 336 1040 l 257
 284 1040 l 257
 11 659 l 257
 284 276 l 257
EndSplineSet
EndChar

StartChar: guilsinglright
Encoding: 8250 8250 262
Width: 448
VWidth: 0
Flags: HW
PickledData: "(dp1
S'org.robofab.postScriptHintData'
p2
(dp3
sS'com.typemytype.robofont.layerData'
p4
(dp5
S'b'
(dp6
S'name'
p7
S'guilsinglright'
p8
sS'lib'
p9
(dp10
sS'unicodes'
p11
(tsS'width'
p12
I405
sS'contours'
p13
(tsS'components'
p14
(tsS'anchors'
p15
(tsss."
LayerCount: 2
Fore
SplineSet
112 276 m 257
 164 276 l 257
 438 660 l 257
 164 1040 l 257
 112 1040 l 257
 324 659 l 257
 112 276 l 257
EndSplineSet
EndChar

StartChar: h
Encoding: 104 104 263
Width: 994
VWidth: 0
Flags: HW
PickledData: "(dp1
S'org.robofab.postScriptHintData'
p2
(dp3
sS'com.typemytype.robofont.layerData'
p4
(dp5
S'b'
(dp6
S'name'
p7
S'h'
sS'lib'
p8
(dp9
sS'unicodes'
p10
(tsS'width'
p11
I965
sS'contours'
p12
(tsS'components'
p13
(tsS'anchors'
p14
(tsss."
AnchorPoint: "top" 533 1021 basechar 0
LayerCount: 2
Fore
SplineSet
30 0 m 1
 398 0 l 1
 398 55 l 1
 254 55 l 1
 254 655 l 1
 375 723 495 766 572 766 c 0
 688 766 761 697 761 583 c 2
 761 55 l 1
 594 55 l 1
 594 0 l 1
 988 0 l 1
 988 55 l 1
 835 55 l 1
 835 575 l 2
 835 732 734 826 586 826 c 0
 492 826 370 781 254 712 c 1
 254 1174 l 1
 36 1174 l 1
 36 1119 l 1
 179 1119 l 1
 179 55 l 1
 30 55 l 1
 30 0 l 1
EndSplineSet
EndChar

StartChar: hungarumlaut
Encoding: 733 733 266
Width: 436
VWidth: 0
Flags: HW
PickledData: "(dp1
S'org.robofab.postScriptHintData'
p2
(dp3
sS'com.typemytype.robofont.layerData'
p4
(dp5
S'b'
(dp6
S'name'
p7
S'hungarumlaut'
p8
sS'lib'
p9
(dp10
sS'unicodes'
p11
(tsS'width'
p12
I356
sS'contours'
p13
(tsS'components'
p14
(tsS'anchors'
p15
(tsss."
AnchorPoint: "top" 165 804 mark 0
LayerCount: 2
Fore
SplineSet
376 1287 m 257
 267 987 l 257
 309 987 l 257
 455 1287 l 257
 376 1287 l 257
168 1287 m 257
 59 987 l 257
 101 987 l 257
 247 1287 l 257
 168 1287 l 257
EndSplineSet
EndChar

StartChar: hyphen
Encoding: 45 45 267
Width: 857
VWidth: 0
Flags: HW
PickledData: "(dp1
S'org.robofab.postScriptHintData'
p2
(dp3
sS'com.typemytype.robofont.layerData'
p4
(dp5
S'b'
(dp6
S'name'
p7
S'hyphen'
p8
sS'lib'
p9
(dp10
sS'unicodes'
p11
(tsS'width'
p12
I915
sS'contours'
p13
(tsS'components'
p14
(tsS'anchors'
p15
(tsss."
LayerCount: 2
Fore
SplineSet
171 421 m 257
 684 421 l 257
 684 478 l 257
 171 478 l 257
 171 421 l 257
EndSplineSet
EndChar

StartChar: i
Encoding: 105 105 268
Width: 562
VWidth: 0
Flags: HW
PickledData: "(dp1
S'org.robofab.postScriptHintData'
p2
(dp3
sS'com.typemytype.robofont.layerData'
p4
(dp5
S'b'
(dp6
S'name'
p7
S'i'
sS'lib'
p8
(dp9
sS'unicodes'
p10
(tsS'width'
p11
I531
sS'contours'
p12
(tsS'components'
p13
(tsS'anchors'
p14
(tsss."
LayerCount: 2
Fore
SplineSet
297 1008 m 0
 335 1008 362 1033 362 1068 c 0
 362 1102 335 1127 297 1127 c 0
 261 1127 234 1102 234 1068 c 0
 234 1033 261 1008 297 1008 c 0
103 0 m 1
 518 0 l 1
 518 55 l 1
 351 55 l 1
 351 304.666666667 351 554.333333333 351 804 c 1
 106 804 l 1
 106 749 l 1
 277 749 l 1
 277 55 l 1
 103 55 l 1
 103 0 l 1
EndSplineSet
EndChar

StartChar: infinity
Encoding: 8734 8734 276
Width: 1315
VWidth: 0
Flags: HW
PickledData: "(dp1
S'org.robofab.postScriptHintData'
p2
(dp3
sS'com.typemytype.robofont.layerData'
p4
(dp5
S'b'
(dp6
S'name'
p7
S'infinity'
p8
sS'lib'
p9
(dp10
sS'unicodes'
p11
(tsS'width'
p12
I1244
sS'contours'
p13
(tsS'components'
p14
(tsS'anchors'
p15
(tsss."
LayerCount: 2
Fore
SplineSet
924 263 m 256
 1049 263 1176 365 1176 550 c 256
 1176 742 1053 838 926 838 c 256
 811 838 722 769 658 648 c 257
 587 787 477 842 394 842 c 256
 236 842 139 707 139 555 c 256
 139 396 223 268 394 268 c 256
 489 268 585 324 660 461 c 257
 733 312 828 263 924 263 c 256
389 321 m 256
 270 321 210 423 210 554 c 256
 210 664 266 788 386 788 c 256
 485 788 564 704 629 555 c 257
 554 391 478 321 389 321 c 256
927 317 m 256
 825 317 759 384 685 550 c 257
 757 705 829 783 926 783 c 256
 1034 783 1105 681 1105 552 c 256
 1105 411 1032 317 927 317 c 256
EndSplineSet
EndChar

StartChar: integral
Encoding: 8747 8747 277
Width: 671
VWidth: 0
Flags: HW
PickledData: "(dp1
S'org.robofab.postScriptHintData'
p2
(dp3
s."
LayerCount: 2
Fore
SplineSet
700.047845409 1115.52724922 m 0
 700.047845409 1169.01948702 635.945600465 1202.09139188 565.687496024 1202.09139188 c 0
 449.295349606 1202.09139188 384.593421817 1131.47921526 365 1010 c 257
 202 57 l 257
 186 -49 160 -97 100 -97 c 256
 52 -97 28 -58 27 8 c 257
 -23.3071120041 8 -40.0125285022 -21.2128734165 -40.0125285022 -46.3263797307 c 0
 -40.0125285022 -98.6328462163 18.5853319118 -136 88 -136 c 256
 215 -136 255 -47 274 65 c 258
 435 1009 l 258
 454.229656592 1126.30090521 497.494993205 1163.17472727 554.129905083 1163.17472727 c 0
 609.024452843 1163.17472727 630.896718245 1124.20173442 633 1059 c 257
 684.765154113 1059 700.047845409 1088.46354584 700.047845409 1115.52724922 c 0
EndSplineSet
EndChar

StartChar: j
Encoding: 106 106 280
Width: 430
VWidth: 0
Flags: HW
PickledData: "(dp1
S'org.robofab.postScriptHintData'
p2
(dp3
sS'com.typemytype.robofont.layerData'
p4
(dp5
S'b'
(dp6
S'name'
p7
S'j'
sS'lib'
p8
(dp9
sS'unicodes'
p10
(tsS'width'
p11
I398
sS'contours'
p12
(tsS'components'
p13
(tsS'anchors'
p14
(tsss."
LayerCount: 2
Fore
SplineSet
241 1009 m 0
 279 1009 306 1034 306 1069 c 0
 306 1103 279 1128 241 1128 c 0
 205 1128 178 1103 178 1069 c 0
 178 1034 205 1009 241 1009 c 0
19 -260 m 1
 96 -260 l 2
 290.174089069 -260 301.179907882 -148.369552033 301.179907882 -53.3592272143 c 0
 301.179907882 -41.2117884247 301 -29.3360323887 301 -18 c 2
 301 805 l 1
 64 805 l 1
 64 752 l 1
 223 752 l 1
 223 -34 l 2
 223 -148 223 -204 88 -204 c 2
 19 -204 l 1
 19 -260 l 1
EndSplineSet
EndChar

StartChar: k
Encoding: 107 107 282
Width: 986
VWidth: 0
Flags: HW
PickledData: "(dp1
S'org.robofab.postScriptHintData'
p2
(dp3
sS'com.typemytype.robofont.guides'
p4
((dp5
S'y'
I421
sS'x'
I474
sS'magnetic'
p6
I5
sS'angle'
p7
I0
sS'isGlobal'
p8
I0
stp9
sS'com.typemytype.robofont.layerData'
p10
(dp11
S'b'
(dp12
S'name'
p13
S'k'
sS'lib'
p14
(dp15
sS'unicodes'
p16
(tsS'width'
p17
I927
sS'contours'
p18
(tsS'components'
p19
(tsS'anchors'
p20
(tsss."
AnchorPoint: "bot" 536 0 basechar 0
AnchorPoint: "top" 593 992 basechar 0
LayerCount: 2
Fore
SplineSet
731 0 m 1
 944 0 l 1
 944 55 l 1
 767 55 l 1
 370 419 l 1
 794 749 l 1
 939 749 l 1
 939 804 l 1
 548 804 l 1
 548 749 l 1
 710 749 l 1
 285 426 l 1
 285 1174 l 1
 67 1174 l 1
 67 1119 l 1
 210 1119 l 1
 210 55 l 1
 61 55 l 1
 61 0 l 1
 429 0 l 1
 429 55 l 1
 285 55 l 1
 285 415 l 1
 731 0 l 1
EndSplineSet
EndChar

StartChar: kgreenlandic
Encoding: 312 312 284
Width: 967
VWidth: 0
Flags: HW
PickledData: "(dp1
S'org.robofab.postScriptHintData'
p2
(dp3
sS'com.typemytype.robofont.layerData'
p4
(dp5
S'b'
(dp6
S'name'
p7
S'kgreenlandic'
p8
sS'lib'
p9
(dp10
sS'unicodes'
p11
(tsS'width'
p12
I927
sS'contours'
p13
(tsS'components'
p14
(tsS'anchors'
p15
(tsss."
LayerCount: 2
Fore
SplineSet
720 0 m 257
 923 0 l 257
 923 55 l 257
 757 55 l 257
 399 409 l 257
 775 749 l 257
 917 749 l 257
 917 804 l 257
 538 804 l 257
 538 749 l 257
 686 749 l 257
 308 408 l 257
 720 0 l 257
74 0 m 257
 423 0 l 257
 423 55 l 257
 290 55 l 257
 290 804 l 257
 80 804 l 257
 80 749 l 257
 216 749 l 257
 216 55 l 257
 74 55 l 257
 74 0 l 257
EndSplineSet
EndChar

StartChar: l
Encoding: 108 108 285
Width: 470
VWidth: 0
Flags: HW
PickledData: "(dp1
S'org.robofab.postScriptHintData'
p2
(dp3
sS'com.typemytype.robofont.layerData'
p4
(dp5
S'b'
(dp6
S'name'
p7
S'l'
sS'lib'
p8
(dp9
sS'unicodes'
p10
(tsS'width'
p11
I563
sS'contours'
p12
(tsS'components'
p13
(tsS'anchors'
p14
(tsss."
AnchorPoint: "bot" 245 0 basechar 0
AnchorPoint: "top" 242 1152 basechar 0
LayerCount: 2
Fore
SplineSet
57 0 m 1
 425 0 l 1
 425 55 l 1
 281 55 l 1
 281 1174 l 1
 63 1174 l 1
 63 1119 l 1
 206 1119 l 1
 206 55 l 1
 57 55 l 1
 57 0 l 1
EndSplineSet
EndChar

StartChar: less
Encoding: 60 60 290
Width: 932
VWidth: 0
Flags: HW
PickledData: "(dp1
S'org.robofab.postScriptHintData'
p2
(dp3
sS'com.typemytype.robofont.layerData'
p4
(dp5
S'b'
(dp6
S'name'
p7
S'less'
p8
sS'lib'
p9
(dp10
sS'unicodes'
p11
(tsS'width'
p12
I896
sS'contours'
p13
(tsS'components'
p14
(tsS'anchors'
p15
(tsss."
LayerCount: 2
Fore
SplineSet
791 -77 m 257
 791 14 l 257
 45 573 l 257
 791 1134 l 257
 791 1227 l 257
 -37 591 l 257
 -37 553 l 257
 791 -77 l 257
EndSplineSet
EndChar

StartChar: lessequal
Encoding: 8804 8804 291
Width: 681
VWidth: 0
Flags: HW
PickledData: "(dp1
S'org.robofab.postScriptHintData'
p2
(dp3
sS'com.typemytype.robofont.layerData'
p4
(dp5
S'b'
(dp6
S'name'
p7
S'lessequal'
p8
sS'lib'
p9
(dp10
sS'unicodes'
p11
(tsS'width'
p12
I593
sS'contours'
p13
(tsS'components'
p14
(tsS'anchors'
p15
(tsss."
LayerCount: 2
Fore
SplineSet
667 188 m 257
 667 253 l 257
 104 552 l 257
 667 853 l 257
 667 919 l 257
 2 570 l 257
 2 535 l 257
 667 188 l 257
2 0 m 257
 667 0 l 257
 667 55 l 257
 2 55 l 257
 2 0 l 257
EndSplineSet
EndChar

StartChar: logicalnot
Encoding: 172 172 293
Width: 886
VWidth: 0
Flags: HW
PickledData: "(dp1
S'org.robofab.postScriptHintData'
p2
(dp3
sS'com.typemytype.robofont.layerData'
p4
(dp5
S'b'
(dp6
S'name'
p7
S'logicalnot'
p8
sS'lib'
p9
(dp10
sS'unicodes'
p11
(tsS'width'
p12
I827
sS'contours'
p13
(tsS'components'
p14
(tsS'anchors'
p15
(tsss."
LayerCount: 2
Fore
SplineSet
725 309 m 257
 778 309 l 257
 778 684 l 257
 83 684 l 257
 83 627 l 257
 725 627 l 257
 725 309 l 257
EndSplineSet
EndChar

StartChar: lozenge
Encoding: 9674 9674 294
Width: 986
VWidth: 0
Flags: HW
PickledData: "(dp1
S'org.robofab.postScriptHintData'
p2
(dp3
sS'com.typemytype.robofont.layerData'
p4
(dp5
S'b'
(dp6
S'name'
p7
S'lozenge'
p8
sS'lib'
p9
(dp10
sS'unicodes'
p11
(tsS'width'
p12
I948
sS'contours'
p13
(tsS'components'
p14
(tsS'anchors'
p15
(tsss."
LayerCount: 2
Fore
SplineSet
468 -26 m 257
 518 -26 l 257
 947 622 l 257
 518 1268 l 257
 468 1268 l 257
 39 620 l 257
 468 -26 l 257
496 38 m 257
 130 622 l 257
 496 1203 l 257
 861 622 l 257
 496 38 l 257
EndSplineSet
EndChar

StartChar: lslash
Encoding: 322 322 295
Width: 467
VWidth: 0
Flags: HW
PickledData: "(dp1
S'org.robofab.postScriptHintData'
p2
(dp3
sS'com.typemytype.robofont.layerData'
p4
(dp5
S'b'
(dp6
S'name'
p7
S'lslash'
p8
sS'lib'
p9
(dp10
sS'unicodes'
p11
(tsS'width'
p12
I506
sS'contours'
p13
(tsS'components'
p14
(tsS'anchors'
p15
(tsss."
LayerCount: 2
Fore
SplineSet
52 441 m 257
 425 665 l 257
 425 736 l 257
 51 509 l 257
 52 441 l 257
EndSplineSet
Refer: 285 108 N 1 0 0 1 0 0 2
EndChar

StartChar: m
Encoding: 109 109 296
Width: 1583
VWidth: 0
Flags: HW
PickledData: "(dp1
S'org.robofab.postScriptHintData'
p2
(dp3
sS'com.typemytype.robofont.layerData'
p4
(dp5
S'b'
(dp6
S'name'
p7
S'm'
sS'lib'
p8
(dp9
sS'unicodes'
p10
(tsS'width'
p11
I1571
sS'contours'
p12
(tsS'components'
p13
(tsS'anchors'
p14
(tsss."
AnchorPoint: "top" 817 804 basechar 0
LayerCount: 2
Fore
SplineSet
37 0 m 1
 452 0 l 1
 452 55 l 1
 285 55 l 1
 285 257.666666667 285 460.333333333 285 663 c 1
 401 726 515 766 589 766 c 0
 705 766 778 697 778 583 c 2
 778 55 l 1
 611 55 l 1
 611 0 l 1
 1005 0 l 1
 1005 55 l 1
 852 55 l 1
 852 575 l 2
 852 604 848 630 842 654 c 1
 964 722 1085 766 1162 766 c 0
 1278 766 1351 697 1351 583 c 2
 1351 55 l 1
 1184 55 l 1
 1184 0 l 1
 1578 0 l 1
 1578 55 l 1
 1425 55 l 1
 1425 575 l 2
 1425 732 1324 826 1176 826 c 0
 1077 826 946 775 825 700 c 1
 786 780 706 826 603 826 c 0
 513 826 397 784 285 720 c 1
 285 804 l 1
 40 804 l 1
 40 749 l 1
 211 749 l 1
 211 55 l 1
 37 55 l 1
 37 0 l 1
EndSplineSet
EndChar

StartChar: macron
Encoding: 175 175 297
Width: 331
VWidth: 0
Flags: HW
PickledData: "(dp1
S'org.robofab.postScriptHintData'
p2
(dp3
sS'com.typemytype.robofont.layerData'
p4
(dp5
S'b'
(dp6
S'name'
p7
S'macron'
p8
sS'lib'
p9
(dp10
sS'unicodes'
p11
(tsS'width'
p12
I316
sS'contours'
p13
(tsS'components'
p14
(tsS'anchors'
p15
(tsss."
AnchorPoint: "top" 173 804 mark 0
LayerCount: 2
Fore
SplineSet
-24 925 m 257
 362 925 l 257
 362 974 l 257
 -24 974 l 257
 -24 925 l 257
EndSplineSet
EndChar

StartChar: minus
Encoding: 8722 8722 299
Width: 916
VWidth: 0
Flags: HW
PickledData: "(dp1
S'org.robofab.postScriptHintData'
p2
(dp3
sS'com.typemytype.robofont.layerData'
p4
(dp5
S'b'
(dp6
S'name'
p7
S'minus'
p8
sS'lib'
p9
(dp10
sS'unicodes'
p11
(tsS'width'
p12
I912
sS'contours'
p13
(tsS'components'
p14
(tsS'anchors'
p15
(tsss."
LayerCount: 2
Fore
SplineSet
99 541 m 257
 817 541 l 257
 817 607 l 257
 99 607 l 257
 99 541 l 257
EndSplineSet
EndChar

StartChar: mu
Encoding: 956 956 300
Width: 1031
VWidth: 0
Flags: HW
PickledData: "(dp1
S'org.robofab.postScriptHintData'
p2
(dp3
s."
LayerCount: 2
Fore
SplineSet
187 -303 m 257
 262 -303 l 257
 262 385 l 257
 187 385 l 257
 187 -303 l 257
EndSplineSet
Refer: 392 117 N 1 0 0 1 0 0 2
EndChar

StartChar: multiply
Encoding: 215 215 301
Width: 615
VWidth: 0
Flags: HW
PickledData: "(dp1
S'org.robofab.postScriptHintData'
p2
(dp3
sS'com.typemytype.robofont.layerData'
p4
(dp5
S'b'
(dp6
S'name'
p7
S'multiply'
p8
sS'lib'
p9
(dp10
sS'unicodes'
p11
(tsS'width'
p12
I520
sS'contours'
p13
(tsS'components'
p14
(tsS'anchors'
p15
(tsss."
LayerCount: 2
Fore
SplineSet
528 337 m 257
 569 379 l 257
 356 594 l 257
 570 811 l 257
 530 853 l 257
 313 637 l 257
 97 850 l 257
 55 809 l 257
 271 594 l 257
 54 379 l 257
 95 337 l 257
 312 553 l 257
 528 337 l 257
EndSplineSet
EndChar

StartChar: n
Encoding: 110 110 302
Width: 1024
VWidth: 0
Flags: HW
PickledData: "(dp1
S'org.robofab.postScriptHintData'
p2
(dp3
sS'com.typemytype.robofont.layerData'
p4
(dp5
S'b'
(dp6
S'name'
p7
S'n'
sS'lib'
p8
(dp9
sS'unicodes'
p10
(tsS'width'
p11
I1010
sS'contours'
p12
(tsS'components'
p13
(tsS'anchors'
p14
(tsss."
AnchorPoint: "bot" 552 0 basechar 0
AnchorPoint: "top" 594 804 basechar 0
LayerCount: 2
Fore
SplineSet
37 0 m 1
 452 0 l 1
 452 55 l 1
 285 55 l 1
 285 255 285 455 285 655 c 1
 406 723 526 766 603 766 c 0
 719 766 792 697 792 583 c 2
 792 55 l 1
 625 55 l 1
 625 0 l 1
 1019 0 l 1
 1019 55 l 1
 866 55 l 1
 866 575 l 2
 866 732 765 826 617 826 c 0
 523 826 401 781 285 712 c 1
 285 804 l 1
 40 804 l 1
 40 749 l 1
 211 749 l 1
 211 55 l 1
 37 55 l 1
 37 0 l 1
EndSplineSet
EndChar

StartChar: nine
Encoding: 57 57 307
Width: 862
VWidth: 0
Flags: HW
PickledData: "(dp1
S'org.robofab.postScriptHintData'
p2
(dp3
sS'com.typemytype.robofont.layerData'
p4
(dp5
S'b'
(dp6
S'name'
p7
S'nine'
p8
sS'lib'
p9
(dp10
sS'unicodes'
p11
(tsS'width'
p12
I830
sS'contours'
p13
(tsS'components'
p14
(tsS'anchors'
p15
(tsss."
LayerCount: 2
Fore
SplineSet
355 -82 m 257
 716 524 l 257
 761 595 807 700 807 833 c 256
 807 1034 654 1174 441 1174 c 256
 210 1174 68 1034 68 817 c 256
 68 605 214 471 426 471 c 256
 506 471 610 508 659 559 c 257
 290 -44 l 257
 355 -82 l 257
432 525 m 256
 251 525 139 640 139 820 c 256
 139 1001 255 1118 440 1118 c 256
 617 1118 732 997 732 832 c 256
 732 636 584 525 432 525 c 256
EndSplineSet
EndChar

StartChar: notequal
Encoding: 8800 8800 309
Width: 863
VWidth: 0
Flags: HW
PickledData: "(dp1
S'org.robofab.postScriptHintData'
p2
(dp3
sS'com.typemytype.robofont.layerData'
p4
(dp5
S'b'
(dp6
S'name'
p7
S'notequal'
p8
sS'lib'
p9
(dp10
sS'unicodes'
p11
(tsS'width'
p12
I570
sS'contours'
p13
(tsS'components'
p14
(tsS'anchors'
p15
(tsss."
LayerCount: 2
Fore
SplineSet
313 70 m 257
 368 70 l 257
 417 257 l 257
 782 257 l 257
 782 308 l 257
 431 308 l 257
 491 535 l 257
 772 535 l 257
 772 589 l 257
 504 589 l 257
 554 774 l 257
 503 774 l 257
 452 589 l 257
 88 589 l 257
 88 535 l 257
 437 535 l 257
 377 308 l 257
 98 308 l 257
 98 257 l 257
 363 257 l 257
 313 70 l 257
EndSplineSet
EndChar

StartChar: numbersign
Encoding: 35 35 311
Width: 979
VWidth: 0
Flags: HW
PickledData: "(dp1
S'org.robofab.postScriptHintData'
p2
(dp3
sS'com.typemytype.robofont.layerData'
p4
(dp5
S'b'
(dp6
S'name'
p7
S'numbersign'
p8
sS'lib'
p9
(dp10
sS'unicodes'
p11
(tsS'width'
p12
I917
sS'contours'
p13
(tsS'components'
p14
(tsS'anchors'
p15
(tsss."
LayerCount: 2
Fore
SplineSet
187 -2 m 257
 261 -2 l 257
 296 378 l 257
 638 378 l 257
 602 -2 l 257
 676 -2 l 257
 711 378 l 257
 888 378 l 257
 889 431 l 257
 717 431 l 257
 748 777 l 257
 921 777 l 257
 922 831 l 257
 753 831 l 257
 783 1165 l 257
 711 1165 l 257
 680 831 l 257
 337 831 l 257
 368 1165 l 257
 294 1165 l 257
 264 831 l 257
 97 831 l 257
 95 777 l 257
 259 777 l 257
 229 431 l 257
 63 431 l 257
 60 378 l 257
 222 378 l 257
 187 -2 l 257
300 431 m 257
 333 777 l 257
 675 777 l 257
 643 431 l 257
 300 431 l 257
EndSplineSet
EndChar

StartChar: o
Encoding: 111 111 312
Width: 983
VWidth: 0
Flags: HW
PickledData: "(dp1
S'org.robofab.postScriptHintData'
p2
(dp3
sS'com.typemytype.robofont.layerData'
p4
(dp5
S'b'
(dp6
S'name'
p7
S'o'
sS'lib'
p8
(dp9
sS'unicodes'
p10
(tsS'width'
p11
I986
sS'contours'
p12
(tsS'components'
p13
(tsS'anchors'
p14
(tsss."
AnchorPoint: "top" 487 805 basechar 0
LayerCount: 2
Fore
SplineSet
490 -22 m 0
 744 -22 924 156 924 407 c 0
 924 653 744 826 490 826 c 0
 238 826 60 652 60 406 c 0
 60 155 237 -22 490 -22 c 0
490 36 m 0
 282 36 134 190 134 406 c 0
 134 618 282 768 490 768 c 0
 700 768 849 618 849 407 c 0
 849 190 700 36 490 36 c 0
EndSplineSet
EndChar

StartChar: oe
Encoding: 339 339 317
Width: 1773
VWidth: 0
Flags: HW
PickledData: "(dp1
S'org.robofab.postScriptHintData'
p2
(dp3
sS'com.typemytype.robofont.layerData'
p4
(dp5
S'b'
(dp6
S'name'
p7
S'oe'
p8
sS'lib'
p9
(dp10
sS'unicodes'
p11
(tsS'width'
p12
I1961
sS'contours'
p13
(tsS'components'
p14
(tsS'anchors'
p15
(tsss."
LayerCount: 2
Fore
SplineSet
497 -22 m 256
 686 -22 833 81 892 239 c 257
 954 72 1112 -22 1284 -22 c 256
 1412 -22 1542 27 1640 128 c 257
 1609 178 l 257
 1541 97 1406 34 1285 34 c 256
 1108 34 941 157 930 384 c 257
 1659 384 l 257
 1653 698 1461 826 1267 826 c 256
 1110 826 954 740 893 570 c 257
 834 726 686 826 497 826 c 256
 246 826 69 651 69 405 c 256
 69 155 245 -22 497 -22 c 256
497 35 m 256
 287 35 141 188 141 405 c 256
 141 618 287 768 497 768 c 256
 708 768 856 618 856 406 c 256
 856 188 708 35 497 35 c 256
930 434 m 257
 940 639 1083 770 1266 770 c 256
 1430 770 1568 661 1591 434 c 257
 930 434 l 257
EndSplineSet
EndChar

StartChar: ogonek
Encoding: 731 731 318
Width: 409
VWidth: 0
Flags: HW
PickledData: "(dp1
S'org.robofab.postScriptHintData'
p2
(dp3
sS'com.typemytype.robofont.layerData'
p4
(dp5
S'b'
(dp6
S'name'
p7
S'ogonek'
p8
sS'lib'
p9
(dp10
sS'unicodes'
p11
(tsS'width'
p12
I390
sS'contours'
p13
(tsS'components'
p14
(tsS'anchors'
p15
(tsss."
LayerCount: 2
Fore
SplineSet
248 -317 m 256
 287 -317 326 -305 364 -279 c 257
 364 -231 l 257
 333 -253 300 -264 269 -264 c 256
 215 -264 175 -231 175 -167 c 256
 175 -118 208 -57 270 2 c 257
 222 2 l 257
 148 -63 110 -132 110 -189 c 256
 110 -271 174 -317 248 -317 c 256
EndSplineSet
EndChar

StartChar: one
Encoding: 49 49 322
Width: 592
VWidth: 0
Flags: HW
PickledData: "(dp1
S'org.robofab.postScriptHintData'
p2
(dp3
sS'com.typemytype.robofont.layerData'
p4
(dp5
S'b'
(dp6
S'name'
p7
S'one'
p8
sS'lib'
p9
(dp10
sS'unicodes'
p11
(tsS'width'
p12
I559
sS'contours'
p13
(tsS'components'
p14
(tsS'anchors'
p15
(tsss."
LayerCount: 2
Fore
SplineSet
125 0 m 257
 526 0 l 257
 526 55 l 257
 365 55 l 257
 365 1154 l 257
 128 1093 l 257
 140 1039 l 257
 291 1080 l 257
 291 55 l 257
 125 55 l 257
 125 0 l 257
EndSplineSet
EndChar

StartChar: onehalf
Encoding: 189 189 323
Width: 1746
VWidth: 0
Flags: HW
PickledData: "(dp1
S'org.robofab.postScriptHintData'
p2
(dp3
s."
LayerCount: 2
Fore
SplineSet
1114 0 m 257
 1642 0 l 257
 1642 195 l 257
 1591 195 l 257
 1592 47 l 257
 1189 47 l 257
 1453 299 l 258
 1555 395 1620 474 1620 585 c 256
 1620 728 1511 803 1367 803 c 256
 1191 803 1104 690 1104 555 c 256
 1104 529 1108 503 1114 476 c 257
 1170 476 l 257
 1163 502 1160 527 1160 550 c 256
 1160 664 1227 754 1367 754 c 256
 1487.25322013 754 1562.01595143 690.238091331 1562.01595143 583.857370386 c 0
 1562.01595143 486.847191421 1515.95803609 433.000565227 1419 340 c 258
 1114 48 l 257
 1114 0 l 257
137 360 m 257
 438 360 l 257
 438 407 l 257
 317 407 l 257
 317 1152 l 257
 136 1145 l 257
 136 1098 l 257
 259 1101 l 257
 259 407 l 257
 137 407 l 257
 137 360 l 257
395 -10 m 257
 455 -10 l 257
 1239 1172 l 257
 1182 1172 l 257
 395 -10 l 257
EndSplineSet
EndChar

StartChar: onequarter
Encoding: 188 188 324
Width: 1534
VWidth: 0
Flags: HW
PickledData: "(dp1
S'org.robofab.postScriptHintData'
p2
(dp3
sS'com.typemytype.robofont.layerData'
p4
(dp5
S'b'
(dp6
S'name'
p7
S'onequarter'
p8
sS'lib'
p9
(dp10
sS'unicodes'
p11
(tsS'width'
p12
I1395
sS'contours'
p13
(tsS'components'
p14
(tsS'anchors'
p15
(tsss."
LayerCount: 2
Fore
SplineSet
1171 0 m 257
 1451 0 l 257
 1451 47 l 257
 1345 47 l 257
 1345 257 l 257
 1456 257 l 257
 1456 304 l 257
 1345 304 l 257
 1345 807 l 257
 1281 807 l 257
 924 300 l 257
 937 257 l 257
 1289 257 l 257
 1289 47 l 257
 1171 47 l 257
 1171 0 l 257
137 360 m 257
 437 360 l 257
 437 407 l 257
 316 407 l 257
 316 1152 l 257
 135 1145 l 257
 136 1098 l 257
 258 1101 l 257
 258 407 l 257
 137 407 l 257
 137 360 l 257
386 -10 m 257
 446 -10 l 257
 1230 1172 l 257
 1173 1172 l 257
 386 -10 l 257
987 304 m 257
 1289 737 l 257
 1289 304 l 257
 987 304 l 257
EndSplineSet
EndChar

StartChar: onesuperior
Encoding: 185 185 325
Width: 620
VWidth: 0
Flags: HW
PickledData: "(dp1
S'org.robofab.postScriptHintData'
p2
(dp3
sS'com.typemytype.robofont.layerData'
p4
(dp5
S'b'
(dp6
S'name'
p7
S'uni00B9'
p8
sS'lib'
p9
(dp10
sS'unicodes'
p11
(tsS'width'
p12
I531
sS'contours'
p13
(tsS'components'
p14
(tsS'anchors'
p15
(tsss."
LayerCount: 2
Fore
SplineSet
154 546 m 257
 470 546 l 257
 470 593 l 257
 346 593 l 257
 346 1316 l 257
 159 1281 l 257
 168 1232 l 257
 283 1255 l 257
 283 593 l 257
 154 593 l 257
 154 546 l 257
EndSplineSet
EndChar

StartChar: ordfeminine
Encoding: 170 170 326
Width: 797
VWidth: 0
Flags: HW
PickledData: "(dp1
S'org.robofab.postScriptHintData'
p2
(dp3
sS'com.typemytype.robofont.layerData'
p4
(dp5
S'b'
(dp6
S'name'
p7
S'ordfeminine'
p8
sS'lib'
p9
(dp10
sS'unicodes'
p11
(tsS'width'
p12
I801
sS'contours'
p13
(tsS'components'
p14
(tsS'anchors'
p15
(tsss."
LayerCount: 2
Fore
SplineSet
324 551 m 256
 404 551 494 582 546 624 c 257
 548 561 l 257
 716 561 l 257
 716 613 l 257
 612 613 l 257
 612 978 l 258
 612 1064 563 1174 377 1174 c 256
 294 1174 210 1156 142 1105 c 257
 169 1058 l 257
 228 1103 307 1121 378 1121 c 256
 490 1121 544 1070 544 967 c 258
 544 888 l 257
 490 896 425 905 362 905 c 256
 233 905 115 867 115 729 c 256
 115 636 182 551 324 551 c 256
329 602 m 256
 231 602 182 655 182 731 c 256
 182 832 267 857 372 857 c 256
 431 857 490 850 544 843 c 257
 544 677 l 257
 487 628 405 602 329 602 c 256
EndSplineSet
EndChar

StartChar: ordmasculine
Encoding: 186 186 327
Width: 833
VWidth: 0
Flags: HW
PickledData: "(dp1
S'org.robofab.postScriptHintData'
p2
(dp3
sS'com.typemytype.robofont.layerData'
p4
(dp5
S'b'
(dp6
S'name'
p7
S'ordmasculine'
p8
sS'lib'
p9
(dp10
sS'unicodes'
p11
(tsS'width'
p12
I809
sS'contours'
p13
(tsS'components'
p14
(tsS'anchors'
p15
(tsss."
LayerCount: 2
Fore
SplineSet
417 543 m 256
 587 543 730 652 730 859 c 256
 730 1066 587 1174 418 1174 c 256
 248 1174 105 1066 105 859 c 256
 105 652 248 543 417 543 c 256
418 598 m 256
 292 598 175 680 175 859 c 256
 175 1038 292 1119 417 1119 c 256
 544 1119 661 1038 661 859 c 256
 661 680 544 598 418 598 c 256
EndSplineSet
EndChar

StartChar: oslash
Encoding: 248 248 328
Width: 1013
VWidth: 0
Flags: HW
PickledData: "(dp1
S'org.robofab.postScriptHintData'
p2
(dp3
sS'com.typemytype.robofont.layerData'
p4
(dp5
S'b'
(dp6
S'name'
p7
S'oslash'
p8
sS'lib'
p9
(dp10
sS'unicodes'
p11
(tsS'width'
p12
I1023
sS'contours'
p13
(tsS'components'
p14
(tsS'anchors'
p15
(tsss."
LayerCount: 2
Fore
SplineSet
205 -178 m 257
 871 961 l 257
 836 982 l 257
 171 -156 l 257
 205 -178 l 257
EndSplineSet
Refer: 312 111 N 1 0 0 1 0 0 2
EndChar

StartChar: p
Encoding: 112 112 331
Width: 1040
VWidth: 0
Flags: HW
PickledData: "(dp1
S'org.robofab.postScriptHintData'
p2
(dp3
sS'com.typemytype.robofont.layerData'
p4
(dp5
S'b'
(dp6
S'name'
p7
S'p'
sS'lib'
p8
(dp9
sS'unicodes'
p10
(tsS'width'
p11
I1037
sS'contours'
p12
(tsS'components'
p13
(tsS'anchors'
p14
(tsss."
AnchorPoint: "top" 565 805 basechar 0
LayerCount: 2
Fore
SplineSet
555 -22 m 0
 806.356779165 -22 980.071572634 142.164627613 980.071572634 412.412133313 c 0
 980.071572634 670.774513845 817.050614464 826 573 826 c 0
 475 826 363 786 273 718 c 1
 271 804 l 1
 71 804 l 1
 71 749 l 1
 199 749 l 1
 199 -262 l 1
 58 -262 l 1
 58 -317 l 1
 414 -317 l 1
 414 -262 l 1
 274 -262 l 1
 274 88 l 1
 352 18 456 -22 555 -22 c 0
274 147 m 1
 274 658 l 1
 364 727 470 768 561 768 c 0
 769 768 905 629 905 400 c 0
 905 173 763 35 547 35 c 0
 453 35 352 76 274 147 c 1
EndSplineSet
EndChar

StartChar: paragraph
Encoding: 182 182 332
Width: 992
VWidth: 0
Flags: HW
PickledData: "(dp1
S'org.robofab.postScriptHintData'
p2
(dp3
sS'com.typemytype.robofont.layerData'
p4
(dp5
S'b'
(dp6
S'name'
p7
S'paragraph'
p8
sS'lib'
p9
(dp10
sS'unicodes'
p11
(tsS'width'
p12
I953
sS'contours'
p13
(tsS'components'
p14
(tsS'anchors'
p15
(tsss."
LayerCount: 2
Fore
SplineSet
491 -15 m 257
 888 -15 l 257
 888 41 l 257
 746 41 l 257
 746 1101 l 257
 904 1101 l 257
 904 1152 l 257
 430 1152 l 258
 213 1152 117 1016 117 902 c 256
 117 780.844727294 214.633795374 638.979255569 424.591958779 638.979255569 c 0
 426.055843819 638.979255569 427.525189233 638.986152012 429 639 c 258
 673 639 l 257
 673 41 l 257
 491 41 l 257
 491 -15 l 257
491 705 m 257
 491 1101 l 257
 673 1101 l 257
 673 705 l 257
 491 705 l 257
EndSplineSet
EndChar

StartChar: parenleft
Encoding: 40 40 333
Width: 519
VWidth: 0
Flags: HW
PickledData: "(dp1
S'org.robofab.postScriptHintData'
p2
(dp3
sS'com.typemytype.robofont.layerData'
p4
(dp5
S'b'
(dp6
S'name'
p7
S'parenleft'
p8
sS'lib'
p9
(dp10
sS'unicodes'
p11
(tsS'width'
p12
I500
sS'contours'
p13
(tsS'components'
p14
(tsS'anchors'
p15
(tsss."
LayerCount: 2
Fore
SplineSet
482 -116 m 257
 484 -69 l 257
 281 19 179 275 179 530 c 256
 179 785 281 1041 484 1128 c 257
 482 1174 l 257
 225 1080 96 804 96 528 c 256
 96 251 225 -24 482 -116 c 257
EndSplineSet
EndChar

StartChar: parenright
Encoding: 41 41 334
Width: 520
VWidth: 0
Flags: HW
PickledData: "(dp1
S'org.robofab.postScriptHintData'
p2
(dp3
sS'com.typemytype.robofont.layerData'
p4
(dp5
S'b'
(dp6
S'name'
p7
S'parenright'
p8
sS'lib'
p9
(dp10
sS'unicodes'
p11
(tsS'width'
p12
I501
sS'contours'
p13
(tsS'components'
p14
(tsS'anchors'
p15
(tsss."
LayerCount: 2
Fore
SplineSet
92 -116 m 257
 350 -24 479 251 479 528 c 256
 479 804 350 1080 92 1174 c 257
 91 1128 l 257
 294 1041 396 785 396 530 c 256
 396 275 294 19 91 -69 c 257
 92 -116 l 257
EndSplineSet
EndChar

StartChar: partialdiff
Encoding: 8706 8706 335
Width: 1016
VWidth: 0
Flags: HW
PickledData: "(dp1
S'org.robofab.postScriptHintData'
p2
(dp3
s."
LayerCount: 2
Fore
SplineSet
401 -21 m 256
 740 -21 852 352 852 645 c 256
 852 972 734 1179 496 1179 c 256
 352 1179 260 1115 260 1027 c 256
 260 981 284 963 324 963 c 257
 324 1080 409 1131 516 1131 c 256
 685.6526503 1131 809.144819322 969.438315525 809.144819322 568.983258832 c 0
 809.144819322 561.082037652 809.096744211 553.087816038 809 545 c 257
 821 550 l 257
 804 624 713 707 561 707 c 256
 254 707 134 419 134 244 c 256
 134 105 201 -21 401 -21 c 256
427 26 m 256
 268 26 218 128 218 242 c 256
 218 384 306 660 572 660 c 256
 699 660 778 604 801 511 c 257
 775 269 643 26 427 26 c 256
EndSplineSet
EndChar

StartChar: percent
Encoding: 37 37 337
Width: 1611
VWidth: 0
Flags: HW
PickledData: "(dp1
S'org.robofab.postScriptHintData'
p2
(dp3
sS'com.typemytype.robofont.layerData'
p4
(dp5
S'b'
(dp6
S'name'
p7
S'percent'
p8
sS'lib'
p9
(dp10
sS'unicodes'
p11
(tsS'width'
p12
I1578
sS'contours'
p13
(tsS'components'
p14
(tsS'anchors'
p15
(tsss."
LayerCount: 2
Fore
SplineSet
396 676 m 256
 265 676 172 770 172 902 c 256
 172 1032 265 1125 396 1126 c 256
 529 1125 623 1032 623 902 c 256
 623 770 529 676 396 676 c 256
396 625 m 256
 564 625 684 740 684 902 c 256
 684 1060 564 1175 396 1175 c 256
 230 1175 111 1060 111 902 c 256
 111 740 230 625 396 625 c 256
324 -42 m 257
 1346 1195 l 257
 1308 1226 l 257
 282 -5 l 257
 324 -42 l 257
1229 29 m 256
 1097 29 1004 123 1004 255 c 256
 1004 386 1097 479 1229 479 c 256
 1361 479 1455 386 1455 255 c 256
 1455 123 1361 29 1229 29 c 256
1229 -22 m 256
 1396 -22 1516 93 1516 255 c 256
 1516 414 1396 528 1229 528 c 256
 1063 528 943 414 943 255 c 256
 943 93 1063 -22 1229 -22 c 256
EndSplineSet
EndChar

StartChar: period
Encoding: 46 46 338
Width: 472
VWidth: 0
Flags: HW
PickledData: "(dp1
S'org.robofab.postScriptHintData'
p2
(dp3
sS'com.typemytype.robofont.layerData'
p4
(dp5
S'b'
(dp6
S'name'
p7
S'period'
p8
sS'lib'
p9
(dp10
sS'unicodes'
p11
(tsS'width'
p12
I452
sS'contours'
p13
(tsS'components'
p14
(tsS'anchors'
p15
(tsss."
LayerCount: 2
Fore
SplineSet
188 0 m 257
 295 0 l 257
 295 115 l 257
 188 115 l 257
 188 0 l 257
EndSplineSet
EndChar

StartChar: periodcentered
Encoding: 183 183 339
Width: 477
VWidth: 0
Flags: HW
PickledData: "(dp1
S'org.robofab.postScriptHintData'
p2
(dp3
sS'com.typemytype.robofont.layerData'
p4
(dp5
S'b'
(dp6
S'name'
p7
S'periodcentered'
p8
sS'lib'
p9
(dp10
sS'unicodes'
p11
(tsS'width'
p12
I453
sS'contours'
p13
(tsS'components'
p14
(tsS'anchors'
p15
(tsss."
LayerCount: 2
Fore
SplineSet
248 494 m 256
 286 494 313 519 313 554 c 256
 313 587 286 612 248 612 c 256
 212 612 185 587 185 554 c 256
 185 519 212 494 248 494 c 256
EndSplineSet
EndChar

StartChar: perthousand
Encoding: 8240 8240 340
Width: 2313
VWidth: 0
Flags: HW
PickledData: "(dp1
S'org.robofab.postScriptHintData'
p2
(dp3
s."
LayerCount: 2
Fore
SplineSet
1936 -22 m 256
 2104 -22 2224 93 2224 255 c 256
 2224 414 2104 528 1936 528 c 256
 1770 528 1651 414 1651 255 c 256
 1651 93 1770 -22 1936 -22 c 256
1936 29 m 256
 1805 29 1711 123 1711 255 c 256
 1711 386 1805 479 1936 479 c 256
 2069 479 2163 386 2163 255 c 256
 2163 123 2069 29 1936 29 c 256
EndSplineSet
Refer: 337 37 N 1 0 0 1 0 0 2
EndChar

StartChar: pi
Encoding: 960 960 341
Width: 1126
VWidth: 0
Flags: HW
PickledData: "(dp1
S'org.robofab.postScriptHintData'
p2
(dp3
s."
LayerCount: 2
Fore
SplineSet
900 -12 m 256
 932 -12 974 -3 1010 13 c 257
 1010 58 l 257
 980 48 954 43 930 43 c 256
 839 43 791 110 791 243 c 256
 791 344 832 565 867 736 c 257
 1037 736 l 257
 1037 804 l 257
 312 804 l 258
 197 804 163 711 163 609 c 257
 208 609 l 257
 209 703 245 736 299 736 c 258
 391 736 l 257
 319 248 l 258
 298 108 266 40 128 40 c 257
 128 -3 l 257
 332 -3 374 62 393 238 c 258
 447 736 l 257
 817 736 l 257
 774 581 719 354 719 229 c 256
 719 67 781 -12 900 -12 c 256
EndSplineSet
EndChar

StartChar: plus
Encoding: 43 43 342
Width: 759
VWidth: 0
Flags: HW
PickledData: "(dp1
S'org.robofab.postScriptHintData'
p2
(dp3
sS'com.typemytype.robofont.layerData'
p4
(dp5
S'b'
(dp6
S'name'
p7
S'plus'
p8
sS'lib'
p9
(dp10
sS'unicodes'
p11
(tsS'width'
p12
I690
sS'contours'
p13
(tsS'components'
p14
(tsS'anchors'
p15
(tsss."
LayerCount: 2
Fore
SplineSet
352 144 m 257
 413 144 l 257
 413 544 l 257
 755 544 l 257
 755 608 l 257
 413 608 l 257
 413 994 l 257
 352 994 l 257
 352 608 l 257
 8 608 l 257
 8 544 l 257
 352 544 l 257
 352 144 l 257
EndSplineSet
EndChar

StartChar: plusminus
Encoding: 177 177 343
Width: 723
VWidth: 0
Flags: HW
PickledData: "(dp1
S'org.robofab.postScriptHintData'
p2
(dp3
sS'com.typemytype.robofont.layerData'
p4
(dp5
S'b'
(dp6
S'name'
p7
S'plusminus'
p8
sS'lib'
p9
(dp10
sS'unicodes'
p11
(tsS'width'
p12
I659
sS'contours'
p13
(tsS'components'
p14
(tsS'anchors'
p15
(tsss."
LayerCount: 2
Fore
SplineSet
334 119 m 257
 393 119 l 257
 393 515 l 257
 744 515 l 257
 744 577 l 257
 393 577 l 257
 393 959 l 257
 334 959 l 257
 334 577 l 257
 -18 577 l 257
 -18 515 l 257
 334 515 l 257
 334 119 l 257
-20 0 m 257
 741 0 l 257
 741 59 l 257
 -20 59 l 257
 -20 0 l 257
EndSplineSet
EndChar

StartChar: product
Encoding: 8719 8719 344
Width: 1339
VWidth: 0
Flags: HW
PickledData: "(dp1
S'org.robofab.postScriptHintData'
p2
(dp3
sS'com.typemytype.robofont.layerData'
p4
(dp5
S'b'
(dp6
S'name'
p7
S'product'
p8
sS'lib'
p9
(dp10
sS'unicodes'
p11
(tsS'width'
p12
I1305
sS'contours'
p13
(tsS'components'
p14
(tsS'anchors'
p15
(tsss."
LayerCount: 2
Fore
SplineSet
117 0 m 257
 493 0 l 257
 493 57 l 257
 343 57 l 257
 343 1096 l 257
 996 1096 l 257
 996 57 l 257
 847 57 l 257
 847 0 l 257
 1223 0 l 257
 1223 57 l 257
 1073 57 l 257
 1073 1096 l 257
 1223 1096 l 257
 1223 1152 l 257
 117 1152 l 257
 117 1096 l 257
 266 1096 l 257
 266 57 l 257
 117 57 l 257
 117 0 l 257
EndSplineSet
EndChar

StartChar: q
Encoding: 113 113 345
Width: 1060
VWidth: 0
Flags: HW
PickledData: "(dp1
S'org.robofab.postScriptHintData'
p2
(dp3
sS'com.typemytype.robofont.layerData'
p4
(dp5
S'b'
(dp6
S'name'
p7
S'q'
sS'lib'
p8
(dp9
sS'unicodes'
p10
(tsS'width'
p11
I1049
sS'contours'
p12
(tsS'components'
p13
(tsS'anchors'
p14
(tsss."
LayerCount: 2
Fore
SplineSet
60.9611335504 404.671579916 m 0
 60.9611335504 149.157270403 241.465666999 -22 483 -22 c 0
 585 -22 698 21 780 88 c 1
 780 -273 l 1
 639 -273 l 1
 639 -330 l 1
 994 -330 l 1
 994 -273 l 1
 855 -273 l 1
 855 749 l 1
 987 749 l 1
 987 804 l 1
 785 804 l 1
 781 713 l 1
 693 782 570 826 460 826 c 0
 230.997034992 826 60.9611335504 658.92665323 60.9611335504 404.671579916 c 0
780 660 m 1
 780 145 l 1
 698 78 588 35 492 35 c 0
 286 35 136 180 136 395 c 0
 136 620 275 769 469 769 c 0
 573 769 691 727 780 660 c 1
EndSplineSet
EndChar

StartChar: question
Encoding: 63 63 346
Width: 673
VWidth: 0
Flags: HW
PickledData: "(dp1
S'org.robofab.postScriptHintData'
p2
(dp3
sS'com.typemytype.robofont.layerData'
p4
(dp5
S'b'
(dp6
S'name'
p7
S'question'
p8
sS'lib'
p9
(dp10
sS'unicodes'
p11
(tsS'width'
p12
I629
sS'contours'
p13
(tsS'components'
p14
(tsS'anchors'
p15
(tsss."
LayerCount: 2
Fore
SplineSet
278 291 m 257
 322 291 l 257
 377 696 644 615 644 908 c 256
 644 1078 526 1186 332 1186 c 256
 158 1186 31 1121 18 937 c 257
 76 937 l 257
 101 1080 183 1130 333 1130 c 256
 489 1130 580 1044 580 908 c 256
 580 651 310 725 278 291 c 257
298 -20 m 256
 338 -20 367 7 367 43 c 256
 367 78 338 105 298 105 c 256
 260 105 232 78 232 43 c 256
 232 7 260 -20 298 -20 c 256
EndSplineSet
EndChar

StartChar: quotedbl
Encoding: 34 34 348
Width: 573
VWidth: 0
Flags: HW
PickledData: "(dp1
S'org.robofab.postScriptHintData'
p2
(dp3
sS'com.typemytype.robofont.layerData'
p4
(dp5
S'b'
(dp6
S'name'
p7
S'quotedbl'
p8
sS'lib'
p9
(dp10
sS'unicodes'
p11
(tsS'width'
p12
I514
sS'contours'
p13
(tsS'components'
p14
(tsS'anchors'
p15
(tsss."
LayerCount: 2
Fore
SplineSet
184 879 m 257
 224 879 l 257
 241 1252 l 257
 159 1252 l 257
 184 879 l 257
356 879 m 257
 394 879 l 257
 421 1252 l 257
 338 1252 l 257
 356 879 l 257
EndSplineSet
EndChar

StartChar: quotedblbase
Encoding: 8222 8222 349
Width: 701
VWidth: 0
Flags: HW
PickledData: "(dp1
S'org.robofab.postScriptHintData'
p2
(dp3
sS'com.typemytype.robofont.layerData'
p4
(dp5
S'b'
(dp6
S'name'
p7
S'quotedblbase'
p8
sS'lib'
p9
(dp10
sS'unicodes'
p11
(tsS'width'
p12
I652
sS'contours'
p13
(tsS'components'
p14
(tsS'anchors'
p15
(tsss."
LayerCount: 2
Fore
SplineSet
187 -174 m 257
 282 -173 310 -96 310 -8 c 258
 310 103 l 257
 197 103 l 257
 197 -7 l 257
 250 -7 l 257
 249 -87 248 -112 187 -133 c 257
 187 -174 l 257
412 -174 m 257
 506 -173 535 -96 535 -8 c 258
 535 103 l 257
 423 103 l 257
 423 -7 l 257
 474 -7 l 257
 474 -88 474 -112 412 -133 c 257
 412 -174 l 257
EndSplineSet
EndChar

StartChar: quotedblleft
Encoding: 8220 8220 350
Width: 682
VWidth: 0
Flags: HW
PickledData: "(dp1
S'org.robofab.postScriptHintData'
p2
(dp3
sS'com.typemytype.robofont.layerData'
p4
(dp5
S'b'
(dp6
S'name'
p7
S'quotedblleft'
p8
sS'lib'
p9
(dp10
sS'unicodes'
p11
(tsS'width'
p12
I642
sS'contours'
p13
(tsS'components'
p14
(tsS'anchors'
p15
(tsss."
LayerCount: 2
Fore
SplineSet
170 1000 m 257
 283 1000 l 257
 283 1110 l 257
 231 1110 l 257
 232 1190 233 1215 295 1237 c 257
 295 1278 l 257
 199 1277 170 1201 170 1112 c 258
 170 1000 l 257
378 1000 m 257
 490 1000 l 257
 490 1110 l 257
 439 1110 l 257
 439 1190 441 1215 502 1237 c 257
 502 1278 l 257
 407 1276 378 1201 378 1112 c 258
 378 1000 l 257
EndSplineSet
EndChar

StartChar: quotedblright
Encoding: 8221 8221 351
Width: 686
VWidth: 0
Flags: HW
PickledData: "(dp1
S'org.robofab.postScriptHintData'
p2
(dp3
sS'com.typemytype.robofont.layerData'
p4
(dp5
S'b'
(dp6
S'name'
p7
S'quotedblright'
p8
sS'lib'
p9
(dp10
sS'unicodes'
p11
(tsS'width'
p12
I649
sS'contours'
p13
(tsS'components'
p14
(tsS'anchors'
p15
(tsss."
LayerCount: 2
Fore
SplineSet
187 978 m 257
 282 979 311 1056 311 1144 c 258
 311 1256 l 257
 199 1256 l 257
 199 1146 l 257
 251 1146 l 257
 249 1066 248 1040 187 1019 c 257
 187 978 l 257
393 978 m 257
 489 979 518 1056 518 1144 c 258
 518 1256 l 257
 405 1256 l 257
 405 1146 l 257
 457 1146 l 257
 456 1066 455 1040 393 1019 c 257
 393 978 l 257
EndSplineSet
EndChar

StartChar: quoteleft
Encoding: 8216 8216 352
Width: 421
VWidth: 0
Flags: HW
PickledData: "(dp1
S'org.robofab.postScriptHintData'
p2
(dp3
sS'com.typemytype.robofont.layerData'
p4
(dp5
S'b'
(dp6
S'name'
p7
S'quoteleft'
p8
sS'lib'
p9
(dp10
sS'unicodes'
p11
(tsS'width'
p12
I399
sS'contours'
p13
(tsS'components'
p14
(tsS'anchors'
p15
(tsss."
LayerCount: 2
Fore
SplineSet
134 1000 m 257
 246 1000 l 257
 246 1110 l 257
 195 1110 l 257
 195 1190 197 1215 258 1237 c 257
 258 1278 l 257
 163 1277 134 1201 134 1112 c 258
 134 1000 l 257
EndSplineSet
EndChar

StartChar: quoteright
Encoding: 8217 8217 353
Width: 429
VWidth: 0
Flags: HW
PickledData: "(dp1
S'org.robofab.postScriptHintData'
p2
(dp3
sS'com.typemytype.robofont.layerData'
p4
(dp5
S'b'
(dp6
S'name'
p7
S'quoteright'
p8
sS'lib'
p9
(dp10
sS'unicodes'
p11
(tsS'width'
p12
I409
sS'contours'
p13
(tsS'components'
p14
(tsS'anchors'
p15
(tsss."
LayerCount: 2
Fore
SplineSet
174 978 m 257
 270 979 299 1056 299 1144 c 258
 299 1256 l 257
 186 1256 l 257
 186 1146 l 257
 238 1146 l 257
 237 1066 236 1040 174 1019 c 257
 174 978 l 257
EndSplineSet
EndChar

StartChar: quotesinglbase
Encoding: 8218 8218 354
Width: 424
VWidth: 0
Flags: HW
PickledData: "(dp1
S'org.robofab.postScriptHintData'
p2
(dp3
sS'com.typemytype.robofont.layerData'
p4
(dp5
S'b'
(dp6
S'name'
p7
S'quotesinglbase'
p8
sS'lib'
p9
(dp10
sS'unicodes'
p11
(tsS'width'
p12
I403
sS'contours'
p13
(tsS'components'
p14
(tsS'anchors'
p15
(tsss."
LayerCount: 2
Fore
SplineSet
178 -174 m 257
 274 -173 302 -96 301 -8 c 257
 301 103 l 257
 189 103 l 257
 189 -7 l 257
 242 -7 l 257
 241 -87 240 -112 178 -133 c 257
 178 -174 l 257
EndSplineSet
EndChar

StartChar: quotesingle
Encoding: 39 39 355
Width: 287
VWidth: 0
Flags: HW
PickledData: "(dp1
S'org.robofab.postScriptHintData'
p2
(dp3
sS'com.typemytype.robofont.layerData'
p4
(dp5
S'b'
(dp6
S'name'
p7
S'quotesingle'
p8
sS'lib'
p9
(dp10
sS'unicodes'
p11
(tsS'width'
p12
I239
sS'contours'
p13
(tsS'components'
p14
(tsS'anchors'
p15
(tsss."
LayerCount: 2
Fore
SplineSet
130 879 m 257
 170 879 l 257
 188 1252 l 257
 105 1252 l 257
 130 879 l 257
EndSplineSet
EndChar

StartChar: r
Encoding: 114 114 356
Width: 778
VWidth: 0
Flags: HW
PickledData: "(dp1
S'org.robofab.postScriptHintData'
p2
(dp3
sS'com.typemytype.robofont.layerData'
p4
(dp5
S'b'
(dp6
S'name'
p7
S'r'
sS'lib'
p8
(dp9
sS'unicodes'
p10
(tsS'width'
p11
I773
sS'contours'
p12
((dp13
S'points'
p14
((dp15
S'segmentType'
p16
S'line'
p17
sS'x'
I338
sS'smooth'
p18
I0
sS'y'
I449
s(dp19
S'y'
I643
sS'x'
I338
sg18
I0
s(dp20
S'y'
I756
sS'x'
I441
sg18
I0
s(dp21
g16
S'curve'
p22
sS'x'
I570
sg18
I1
sS'y'
I756
s(dp23
S'y'
I756
sS'x'
I614
sg18
I0
s(dp24
S'y'
I742
sS'x'
I651
sg18
I0
s(dp25
g16
S'curve'
p26
sS'x'
I704
sg18
I0
sS'y'
I716
s(dp27
g16
S'line'
p28
sS'x'
I722
sg18
I0
sS'y'
I784
s(dp29
S'y'
I810
sS'x'
I664
sg18
I0
s(dp30
S'y'
I820
sS'x'
I622
sg18
I0
s(dp31
g16
S'curve'
p32
sS'x'
I575
sg18
I1
sS'y'
I820
s(dp33
S'y'
I820
sS'x'
I467
sg18
I0
s(dp34
S'y'
I769
sS'x'
I381
sg18
I0
s(dp35
g16
S'curve'
p36
sS'x'
I316
sg18
I0
sS'y'
I582
stp37
stp38
sS'components'
p39
(tsS'anchors'
p40
(tsss."
AnchorPoint: "bot" 324 0 basechar 0
AnchorPoint: "top" 491 805 basechar 0
LayerCount: 2
Fore
SplineSet
356 457 m 1
 356 648 452 760 560 760 c 0
 614 760 652 747 695 721 c 1
 712 783 l 1
 664 809 617 822 562 822 c 0
 482 822 400 777 354 649 c 1
 354 804 l 1
 109 804 l 1
 109 749 l 1
 280 749 l 1
 280 55 l 1
 106 55 l 1
 106 0 l 1
 521 0 l 1
 521 55 l 1
 354 55 l 1
 354 463 l 1
 356 457 l 1
EndSplineSet
EndChar

StartChar: radical
Encoding: 8730 8730 358
Width: 1129
VWidth: 0
Flags: HW
PickledData: "(dp1
S'org.robofab.postScriptHintData'
p2
(dp3
sS'com.typemytype.robofont.layerData'
p4
(dp5
S'b'
(dp6
S'name'
p7
S'radical'
p8
sS'lib'
p9
(dp10
sS'unicodes'
p11
(tsS'width'
p12
I1118
sS'contours'
p13
(tsS'components'
p14
(tsS'anchors'
p15
(tsss."
LayerCount: 2
Fore
SplineSet
499 -14 m 257
 545 -14 l 257
 1001 1363 l 257
 944 1363 l 257
 527 99 l 257
 294 635 l 257
 46 635 l 257
 46 583 l 257
 231 583 l 257
 499 -14 l 257
EndSplineSet
EndChar

StartChar: registered
Encoding: 174 174 361
Width: 1517
VWidth: 0
Flags: HW
PickledData: "(dp1
S'org.robofab.postScriptHintData'
p2
(dp3
sS'com.typemytype.robofont.layerData'
p4
(dp5
S'b'
(dp6
S'name'
p7
S'registered'
p8
sS'lib'
p9
(dp10
sS'unicodes'
p11
(tsS'width'
p12
I1512
sS'contours'
p13
(tsS'components'
p14
(tsS'anchors'
p15
(tsss."
LayerCount: 2
Fore
SplineSet
436 235 m 257
 680 235 l 257
 680 275 l 257
 584 275 l 257
 584 580 l 257
 756 580 l 257
 949 235 l 257
 1087 235 l 257
 1087 277 l 257
 985 277 l 257
 811 585 l 257
 939 594 1013 659 1013 764 c 256
 1013 889 934 961 796 961 c 258
 429 961 l 257
 429 920 l 257
 531 920 l 257
 531 275 l 257
 436 275 l 257
 436 235 l 257
584 624 m 257
 584 920 l 257
 797 920 l 258
 899 920 960 864 960 764 c 256
 960 675 899 624 796 624 c 258
 584 624 l 257
736 32 m 256
 366 32 192 302 192 578 c 256
 192 845 369 1130 736 1130 c 256
 1099 1130 1280 845 1280 578 c 256
 1280 310 1099 32 736 32 c 256
736 -22 m 256
 1147 -22 1345 279 1345 577 c 256
 1345 875 1145 1184 736 1184 c 256
 328 1184 127 876 127 577 c 256
 127 280.488897175 324.348673621 -22.0024684863 733.972067404 -22.0024684863 c 0
 734.647467813 -22.0024684863 735.323445323 -22.0016461184 736 -22 c 256
EndSplineSet
EndChar

StartChar: ring
Encoding: 730 730 362
Width: 353
VWidth: 0
Flags: HW
PickledData: "(dp1
S'org.robofab.postScriptHintData'
p2
(dp3
sS'com.typemytype.robofont.layerData'
p4
(dp5
S'b'
(dp6
S'name'
p7
S'ring'
p8
sS'lib'
p9
(dp10
sS'unicodes'
p11
(tsS'width'
p12
I317
sS'contours'
p13
(tsS'components'
p14
(tsS'anchors'
p15
(tsss."
AnchorPoint: "top" 174 804 mark 0
LayerCount: 2
Fore
SplineSet
175 884 m 256
 254 884 301 933 301 1008 c 256
 301 1081 254 1129 174 1129 c 256
 94 1129 47 1081 46 1008 c 256
 47 933 94 884 175 884 c 256
175 922 m 256
 122 922 90 955 90 1008 c 256
 90 1058 122 1091 175 1091 c 256
 227 1091 258 1058 258 1008 c 256
 258 955 227 922 175 922 c 256
EndSplineSet
EndChar

StartChar: s
Encoding: 115 115 363
Width: 910
VWidth: 0
Flags: HW
PickledData: "(dp1
S'org.robofab.postScriptHintData'
p2
(dp3
sS'com.typemytype.robofont.layerData'
p4
(dp5
S'b'
(dp6
S'name'
p7
S's'
sS'lib'
p8
(dp9
sS'unicodes'
p10
(tsS'width'
p11
I919
sS'contours'
p12
(tsS'components'
p13
(tsS'anchors'
p14
(tsss."
AnchorPoint: "bot" 471 0 basechar 0
AnchorPoint: "top" 452 805 basechar 0
LayerCount: 2
Fore
SplineSet
485 -22 m 0
 644.501614268 -22 799.025679869 45.6135117243 799.025679869 200.439862773 c 0
 799.025679869 370.497514684 684.543703126 399.325525184 516 437 c 2
 387 466 l 2
 289.752967351 488.056028023 218.993411403 522.150896426 218.993411403 607.486524234 c 0
 218.993411403 719.447368421 331.496705701 770 444 770 c 0
 534 770 648 727 692 669 c 1
 699 541 l 1
 759 541 l 1
 759 805 l 1
 694 805 l 1
 694 734 l 1
 632 793 529 826 437 826 c 0
 282 826 145 756 145 603 c 0
 145 482 233 431 366 402 c 2
 496 374 l 2
 658.068750881 339.774301056 729.027831996 312.934013097 729.027831996 193.223413641 c 0
 729.027831996 94.81685896 623.644184423 32 479 32 c 0
 367 32 265 69 204 144 c 1
 199 246 l 1
 141 246 l 1
 141 0 l 1
 203 0 l 1
 203 80 l 1
 255 23 365 -22 485 -22 c 0
EndSplineSet
EndChar

StartChar: section
Encoding: 167 167 371
Width: 941
VWidth: 0
Flags: HW
PickledData: "(dp1
S'org.robofab.postScriptHintData'
p2
(dp3
s."
LayerCount: 2
Fore
SplineSet
494 -142 m 256
 689 -142 780 -46 780 101 c 256
 780 181 756 225 721 263 c 257
 789.453411954 307.350097886 828.161172755 382.375398522 828.161172755 466.566838753 c 0
 828.161172755 594.403398628 741.691756722 648.95480144 525 769 c 256
 356 864 287 890 287 1018 c 256
 287 1125 358 1198 496 1198 c 256
 643 1198 694 1115 704 999 c 257
 740 999 755 1018 755 1052 c 256
 755 1142 687 1240 498 1240 c 256
 324 1240 222 1146 222 1014 c 256
 222 914 265 854 335 806 c 257
 252 785 186 722 186 627 c 256
 186 504 247 454 444 355 c 256
 685 232 723 200 723 90 c 256
 723 -26 657 -100 499 -100 c 256
 355 -100 270 -56 266 81 c 257
 238 81 214 69 214 25 c 256
 214 -81 304 -142 494 -142 c 256
693 288 m 257
 643 325 566 365 482 408 c 256
 308 499 249 527 249 635 c 256
 249 703 288 759 363 785 c 257
 373 777 490 715 504 708 c 256
 705 599 766 545 766 459 c 256
 766 391 748 333 693 288 c 257
EndSplineSet
EndChar

StartChar: semicolon
Encoding: 59 59 372
Width: 339
VWidth: 0
Flags: HW
PickledData: "(dp1
S'org.robofab.postScriptHintData'
p2
(dp3
sS'com.typemytype.robofont.layerData'
p4
(dp5
S'b'
(dp6
S'name'
p7
S'semicolon'
p8
sS'lib'
p9
(dp10
sS'unicodes'
p11
(tsS'width'
p12
I294
sS'contours'
p13
(tsS'components'
p14
(tsS'anchors'
p15
(tsss."
LayerCount: 2
Fore
SplineSet
90 58 m 257
 193 59 220 140 220 232 c 258
 220 351 l 257
 101 351 l 257
 101 235 l 257
 157 235 l 257
 157 152 157 121 90 102 c 257
 90 58 l 257
107 707 m 257
 216 707 l 257
 216 824 l 257
 107 824 l 257
 107 707 l 257
EndSplineSet
EndChar

StartChar: seven
Encoding: 55 55 373
Width: 971
VWidth: 0
Flags: HW
PickledData: "(dp1
S'org.robofab.postScriptHintData'
p2
(dp3
sS'com.typemytype.robofont.layerData'
p4
(dp5
S'b'
(dp6
S'name'
p7
S'seven'
p8
sS'lib'
p9
(dp10
sS'unicodes'
p11
(tsS'width'
p12
I964
sS'contours'
p13
(tsS'components'
p14
(tsS'anchors'
p15
(tsss."
LayerCount: 2
Fore
SplineSet
403 0 m 257
 481 0 l 257
 481 0 679 655 865 1099 c 257
 865 1152 l 257
 124 1152 l 257
 124 846 l 257
 196 846 l 257
 196 1095 l 257
 782 1095 l 257
 551 510 403 0 403 0 c 257
EndSplineSet
EndChar

StartChar: six
Encoding: 54 54 374
Width: 861
VWidth: 0
Flags: HW
PickledData: "(dp1
S'org.robofab.postScriptHintData'
p2
(dp3
sS'com.typemytype.robofont.layerData'
p4
(dp5
S'b'
(dp6
S'name'
p7
S'six'
p8
sS'lib'
p9
(dp10
sS'unicodes'
p11
(tsS'width'
p12
I829
sS'contours'
p13
(tsS'components'
p14
(tsS'anchors'
p15
(tsss."
LayerCount: 2
Fore
SplineSet
426 -21 m 256
 657 -21 799 118 799 335 c 256
 799 548 655 683 444 683 c 256
 364 683 258 645 209 593 c 257
 578 1197 l 257
 513 1235 l 257
 151 628 l 257
 107 558 60 452 60 320 c 256
 60 119 213 -21 426 -21 c 256
428 35 m 256
 251 35 136 156 136 321 c 256
 136 517 284 627 435 627 c 256
 616 627 729 512 729 332 c 256
 729 152 613 35 428 35 c 256
EndSplineSet
EndChar

StartChar: slash
Encoding: 47 47 375
Width: 382
VWidth: 0
Flags: HW
PickledData: "(dp1
S'org.robofab.postScriptHintData'
p2
(dp3
sS'com.typemytype.robofont.layerData'
p4
(dp5
S'b'
(dp6
S'name'
p7
S'slash'
p8
sS'lib'
p9
(dp10
sS'unicodes'
p11
(tsS'width'
p12
I295
sS'contours'
p13
(tsS'components'
p14
(tsS'anchors'
p15
(tsss."
LayerCount: 2
Fore
SplineSet
-26 -20 m 257
 37 -27 l 257
 398 1181 l 257
 339 1188 l 257
 -26 -20 l 257
EndSplineSet
EndChar

StartChar: sterling
Encoding: 163 163 377
Width: 1047
VWidth: 0
Flags: HW
PickledData: "(dp1
S'org.robofab.postScriptHintData'
p2
(dp3
s."
LayerCount: 2
Fore
SplineSet
285 -21 m 256
 399 -21 482 46 524 136 c 257
 603 47 698 -7 795 -7 c 256
 959 -7 1032 101 1032 254 c 256
 1032 266 1032 283 1030 295 c 257
 979 295 l 257
 978 153 929 57 794 57 c 256
 709 57 615 118 551 192 c 257
 567.670100251 241.547242412 577.693086679 291.737753903 577.693086679 346.443858934 c 0
 577.693086679 409.878601979 564.216499582 479.384867725 532 561 c 257
 900 561 l 257
 900 615 l 257
 507 615 l 257
 448 728 380 827 380 936 c 256
 380 1090 498 1191 659 1191 c 256
 837 1191 910 1088 910 952 c 257
 976 952 l 257
 976 1137 867 1251 657 1251 c 256
 460 1251 309 1126 309 932 c 256
 309 829 379 710 428 615 c 257
 194 615 l 257
 194 561 l 257
 457 561 l 257
 502.276463438 468.560553814 516.708649285 388.379730773 516.708649285 324.436219786 c 0
 516.708649285 286.694827812 511.68088414 254.610055872 505 229 c 257
 458 287 367 335 288 335 c 256
 153 335 69 259 69 150 c 256
 69 48 149 -21 285 -21 c 256
284 29 m 256
 190 29 130 76 130 150 c 256
 130 230 190 281 286 281 c 256
 348 281 431 238 484 174 c 257
 460 83 363 29 284 29 c 256
EndSplineSet
EndChar

StartChar: summation
Encoding: 8721 8721 378
Width: 1232
VWidth: 0
Flags: HW
PickledData: "(dp1
S'org.robofab.postScriptHintData'
p2
(dp3
sS'com.typemytype.robofont.layerData'
p4
(dp5
S'b'
(dp6
S'name'
p7
S'summation'
p8
sS'lib'
p9
(dp10
sS'unicodes'
p11
(tsS'width'
p12
I1212
sS'contours'
p13
(tsS'components'
p14
(tsS'anchors'
p15
(tsss."
LayerCount: 2
Fore
SplineSet
121 0 m 257
 1079 0 l 257
 1079 361 l 257
 1014 361 l 257
 1014 55 l 257
 337 55 l 257
 727 580 l 257
 727 618 l 257
 353 1097 l 257
 992 1097 l 257
 992 798 l 257
 1056 798 l 257
 1056 1152 l 257
 121 1152 l 257
 121 1097 l 257
 276 1097 l 257
 666 592 l 257
 268 55 l 257
 121 55 l 257
 121 0 l 257
EndSplineSet
EndChar

StartChar: t
Encoding: 116 116 379
Width: 585
VWidth: 0
Flags: HW
PickledData: "(dp1
S'org.robofab.postScriptHintData'
p2
(dp3
sS'com.typemytype.robofont.layerData'
p4
(dp5
S'b'
(dp6
S'name'
p7
S't'
sS'lib'
p8
(dp9
sS'unicodes'
p10
(tsS'width'
p11
I572
sS'contours'
p12
(tsS'components'
p13
(tsS'anchors'
p14
(tsss."
AnchorPoint: "bot" 392 8 basechar 0
AnchorPoint: "top" 228 1011 basechar 0
LayerCount: 2
Fore
SplineSet
437 0 m 2
 532 0 l 1
 532 55 l 1
 445 55 l 2
 316 55 264 100 264 227 c 2
 264 749 l 1
 495 749 l 1
 496 804 l 1
 264 804 l 1
 264 1108 l 1
 189 1083 l 1
 189 804 l 1
 41 804 l 1
 41 749 l 1
 189 749 l 1
 189 222 l 2
 189 55 290 0 437 0 c 2
EndSplineSet
EndChar

StartChar: thorn
Encoding: 254 254 384
Width: 1047
VWidth: 0
Flags: HW
PickledData: "(dp1
S'org.robofab.postScriptHintData'
p2
(dp3
sS'com.typemytype.robofont.layerData'
p4
(dp5
S'b'
(dp6
S'name'
p7
S'thorn'
p8
sS'lib'
p9
(dp10
sS'unicodes'
p11
(tsS'width'
p12
I1069
sS'contours'
p13
(tsS'components'
p14
(tsS'anchors'
p15
(tsss."
LayerCount: 2
Fore
SplineSet
557 -1 m 256
 808.356445312 -1 982.071289062 163.165039062 982.071289062 433.412109375 c 0
 982.071289062 691.774414062 819.05078125 847 575 847 c 256
 462 847 331 794 236 707 c 257
 240 649 l 257
 336 737 460 789 563 789 c 256
 771 789 907 650 907 421 c 256
 907 194 765 56 549 56 c 256
 439 56 321 112 239 206 c 257
 237 149 l 257
 317 55 440 -1 557 -1 c 256
23 -372 m 257
 266 -372 l 257
 269 1152 l 257
 40 1152 l 257
 40 1094 l 257
 191 1094 l 257
 191 -316 l 257
 23 -316 l 257
 23 -372 l 257
EndSplineSet
EndChar

StartChar: three
Encoding: 51 51 385
Width: 985
VWidth: 0
Flags: HW
PickledData: "(dp1
S'org.robofab.postScriptHintData'
p2
(dp3
sS'com.typemytype.robofont.layerData'
p4
(dp5
S'b'
(dp6
S'name'
p7
S'three'
p8
sS'lib'
p9
(dp10
sS'unicodes'
p11
(tsS'width'
p12
I964
sS'contours'
p13
(tsS'components'
p14
(tsS'anchors'
p15
(tsss."
LayerCount: 2
Fore
SplineSet
479 -20 m 256
 731 -20 874 108 874 332 c 256
 874 487 771 583 589 607 c 257
 760 629 857 724 857 874 c 256
 857 1063 714 1174 466 1174 c 256
 284 1174 150 1089 93 942 c 257
 150 916 l 257
 201 1042 314 1114 466 1114 c 256
 668 1114 784 1026 784 873 c 256
 784 720 662 635 417 635 c 257
 417 577 l 257
 667.17829642 577 800.006358293 491.806775127 800.006358293 328.638591633 c 0
 800.006358293 144.103099678 683.135111561 39 480 39 c 256
 332 39 217 111 155 242 c 257
 98 205 l 257
 158 62 297 -20 479 -20 c 256
EndSplineSet
EndChar

StartChar: threequarters
Encoding: 190 190 386
Width: 1642
VWidth: 0
Flags: HW
PickledData: "(dp1
S'org.robofab.postScriptHintData'
p2
(dp3
s."
LayerCount: 2
Fore
SplineSet
361 360 m 256
 534 360 643 446 643 582 c 256
 643 687 566 760 442 779 c 257
 555 794 625 863 625 959 c 256
 625 1090 524 1174 367 1174 c 256
 248 1174 148 1118 103 1030 c 257
 149 1004 l 257
 186 1079 268 1125 365 1125 c 256
 486 1125 564 1059 564 958 c 256
 564 861 480 802 327 802 c 257
 329 751 l 257
 487.504357916 751 580.008728215 687.791971763 580.008728215 577.20510431 c 0
 580.008728215 475.245441043 495.219953424 411 362 411 c 257
 258 411 173 459 138 537 c 257
 91 507 l 257
 129 417 233 360 361 360 c 256
1299 0 m 257
 1580 0 l 257
 1580 47 l 257
 1473 47 l 257
 1473 257 l 257
 1584 257 l 257
 1584 304 l 257
 1473 304 l 257
 1473 807 l 257
 1409 807 l 257
 1043 300 l 257
 1056 257 l 257
 1417 257 l 257
 1417 47 l 257
 1299 47 l 257
 1299 0 l 257
520 -10 m 257
 580 -10 l 257
 1364 1172 l 257
 1307 1172 l 257
 520 -10 l 257
1106 304 m 257
 1417 737 l 257
 1417 304 l 257
 1106 304 l 257
EndSplineSet
EndChar

StartChar: threesuperior
Encoding: 179 179 387
Width: 966
VWidth: 0
Flags: HW
PickledData: "(dp1
S'org.robofab.postScriptHintData'
p2
(dp3
s."
LayerCount: 2
Fore
SplineSet
484 528 m 256
 655 528 765 613 765 746 c 256
 765 848 691 932 561 946 c 257
 675 960 747 1032 747 1128 c 256
 747 1259 646 1342 488 1342 c 256
 370 1342 270 1286 225 1198 c 257
 271 1172 l 257
 308 1246 390 1293 488 1293 c 256
 608 1293 686 1227 686 1127 c 256
 686 1029 602 970 449 970 c 257
 451 919 l 257
 625.484844351 919 702.008728215 855.796744156 702.008728215 746.187742044 c 0
 702.008728215 643.245441043 617.219953424 579 484 579 c 256
 380 579 295 627 260 705 c 257
 213 675 l 257
 251 585 355 528 484 528 c 256
EndSplineSet
EndChar

StartChar: tilde
Encoding: 732 732 388
Width: 470
VWidth: 0
Flags: HW
PickledData: "(dp1
S'org.robofab.postScriptHintData'
p2
(dp3
sS'com.typemytype.robofont.layerData'
p4
(dp5
S'b'
(dp6
S'name'
p7
S'tilde'
p8
sS'lib'
p9
(dp10
sS'unicodes'
p11
(tsS'width'
p12
I429
sS'contours'
p13
(tsS'components'
p14
(tsS'anchors'
p15
(tsss."
AnchorPoint: "top" 241 792 mark 0
LayerCount: 2
Fore
SplineSet
359 934 m 256
 431 934 451 984 459 1068 c 257
 425 1068 l 257
 410 999 392 989 358 989 c 256
 298 989 204 1072 127 1072 c 256
 63 1072 32 1023 22 937 c 257
 57 937 l 257
 72 1001 86 1017 119 1017 c 256
 183 1017 268 934 359 934 c 256
EndSplineSet
EndChar

StartChar: trademark
Encoding: 8482 8482 389
Width: 1631
VWidth: 0
Flags: HW
PickledData: "(dp1
S'org.robofab.postScriptHintData'
p2
(dp3
sS'com.typemytype.robofont.layerData'
p4
(dp5
S'b'
(dp6
S'name'
p7
S'trademark'
p8
sS'lib'
p9
(dp10
sS'unicodes'
p11
(tsS'width'
p12
I1581
sS'contours'
p13
(tsS'components'
p14
(tsS'anchors'
p15
(tsss."
LayerCount: 2
Fore
SplineSet
800 564 m 257
 998 564 l 257
 998 609 l 257
 922 609 l 257
 922 1034 l 257
 1134 608 l 257
 1145 608 l 257
 1347 1032 l 257
 1347 609 l 257
 1273 609 l 257
 1273 564 l 257
 1472 564 l 257
 1472 609 l 257
 1400 609 l 257
 1400 1108 l 257
 1472 1108 l 257
 1472 1152 l 257
 1350 1152 l 257
 1140 694 l 257
 920 1152 l 257
 800 1152 l 257
 800 1108 l 257
 873 1108 l 257
 873 609 l 257
 800 609 l 257
 800 564 l 257
291 564 m 257
 497 564 l 257
 497 607 l 257
 419 607 l 257
 419 1104 l 257
 607 1104 l 257
 607 946 l 257
 657 946 l 257
 657 1152 l 257
 136 1152 l 257
 136 946 l 257
 185 946 l 257
 185 1104 l 257
 368 1104 l 257
 368 607 l 257
 291 607 l 257
 291 564 l 257
EndSplineSet
EndChar

StartChar: two
Encoding: 50 50 390
Width: 978
VWidth: 0
Flags: HW
PickledData: "(dp1
S'org.robofab.postScriptHintData'
p2
(dp3
sS'com.typemytype.robofont.layerData'
p4
(dp5
S'b'
(dp6
S'name'
p7
S'two'
p8
sS'lib'
p9
(dp10
sS'unicodes'
p11
(tsS'width'
p12
I964
sS'contours'
p13
(tsS'components'
p14
(tsS'anchors'
p15
(tsss."
LayerCount: 2
Fore
SplineSet
122 0 m 257
 841 0 l 257
 840 269 l 257
 780 269 l 257
 779 59 l 257
 211 59 l 257
 570 418 l 258
 740 588 838 719 838 850 c 256
 838 1048 706 1174 487 1174 c 256
 269 1174 132 1046 132 844 c 256
 132 812 139 768 150 728 c 257
 218 728 l 257
 208 773 202 815 202 839 c 256
 202 1009 313 1112 488 1112 c 256
 663.40813881 1112 764.008825566 1006.42955985 764.008825566 847.074863123 c 0
 764.008825566 738.609864347 680.064382027 621.064382027 522 463 c 258
 122 61 l 257
 122 0 l 257
EndSplineSet
EndChar

StartChar: twosuperior
Encoding: 178 178 391
Width: 913
VWidth: 0
Flags: HW
PickledData: "(dp1
S'org.robofab.postScriptHintData'
p2
(dp3
sS'com.typemytype.robofont.layerData'
p4
(dp5
S'b'
(dp6
S'name'
p7
S'uni00B2'
p8
sS'lib'
p9
(dp10
sS'unicodes'
p11
(tsS'width'
p12
I897
sS'contours'
p13
(tsS'components'
p14
(tsS'anchors'
p15
(tsss."
LayerCount: 2
Fore
SplineSet
198 589 m 257
 198 539 l 257
 720 539 l 257
 720 735 l 257
 668 735 l 257
 668 588 l 257
 272 588 l 257
 533 838 l 258
 634 934 701 1012 701 1124 c 256
 701 1267 592 1342 447 1342 c 256
 274 1342 189 1231 189 1096 c 256
 189 1070 193 1044 199 1016 c 257
 255 1016 l 257
 249 1042 245 1067 245 1091 c 256
 245 1201 313 1291 447 1291 c 256
 567.911299551 1291 641.015306122 1228.28716262 641.015306122 1123.01396421 c 0
 641.015306122 1026.91399417 593.010204082 974.030612245 497 880 c 258
 198 589 l 257
EndSplineSet
EndChar

StartChar: u
Encoding: 117 117 392
Width: 1031
VWidth: 0
Flags: HW
PickledData: "(dp1
S'org.robofab.postScriptHintData'
p2
(dp3
sS'com.typemytype.robofont.layerData'
p4
(dp5
S'b'
(dp6
S'name'
p7
S'u'
sS'lib'
p8
(dp9
sS'unicodes'
p10
(tsS'width'
p11
I1025
sS'contours'
p12
(tsS'components'
p13
(tsS'anchors'
p14
(tsss."
AnchorPoint: "top" 489 804 basechar 0
LayerCount: 2
Fore
SplineSet
438 -21 m 0
 560 -21 666 28 767 100 c 1
 773 0 l 1
 991 0 l 1
 991 54 l 1
 839 54 l 1
 839 804 l 1
 615 804 l 1
 615 749 l 1
 765 749 l 1
 765 156 l 1
 666 86 574 37 447 37 c 0
 317 37 262 125 262 222 c 2
 262 804 l 1
 35 804 l 1
 35 749 l 1
 187 749 l 1
 187 216 l 2
 187 122 237 -21 438 -21 c 0
EndSplineSet
EndChar

StartChar: underscore
Encoding: 95 95 400
Width: 868
VWidth: 0
Flags: HW
PickledData: "(dp1
S'org.robofab.postScriptHintData'
p2
(dp3
sS'com.typemytype.robofont.layerData'
p4
(dp5
S'b'
(dp6
S'name'
p7
S'underscore'
p8
sS'lib'
p9
(dp10
sS'unicodes'
p11
(tsS'width'
p12
I1126
sS'contours'
p13
(tsS'components'
p14
(tsS'anchors'
p15
(tsss."
LayerCount: 2
Fore
SplineSet
73 -134 m 257
 794 -134 l 257
 794 -84 l 257
 73 -84 l 257
 73 -134 l 257
EndSplineSet
EndChar

StartChar: uni00B5
Encoding: 181 181 407
Width: 1031
VWidth: 0
Flags: HW
PickledData: "(dp1
S'org.robofab.postScriptHintData'
p2
(dp3
sS'com.typemytype.robofont.layerData'
p4
(dp5
S'b'
(dp6
S'name'
p7
S'uni00B5'
p8
sS'lib'
p9
(dp10
sS'unicodes'
p11
(tsS'width'
p12
I1025
sS'contours'
p13
(tsS'components'
p14
(tsS'anchors'
p15
(tsss."
LayerCount: 2
Fore
SplineSet
187 -264 m 257
 262 -264 l 257
 262 388 l 257
 187 388 l 257
 187 -264 l 257
EndSplineSet
Refer: 392 117 N 1 0 0 1 0 0 2
EndChar

StartChar: uni0237
Encoding: 567 567 473
Width: 398
VWidth: 0
Flags: HW
PickledData: "(dp1
S'org.robofab.postScriptHintData'
p2
(dp3
sS'com.typemytype.robofont.layerData'
p4
(dp5
S'b'
(dp6
S'name'
p7
S'uni0237'
p8
sS'lib'
p9
(dp10
sS'unicodes'
p11
(tsS'width'
p12
I398
sS'contours'
p13
(tsS'components'
p14
(tsS'anchors'
p15
(tsss."
AnchorPoint: "top" 228 804 basechar 0
LayerCount: 2
Fore
SplineSet
23 -240 m 257
 95 -240 l 258
 250.204081633 -240 266.04123282 -151.9454394 266.04123282 -82.2231893174 c 0
 266.04123282 -64.3456892961 265 -47.6734693878 265 -34 c 258
 265 804 l 257
 48 804 l 257
 48 770 l 257
 221 770 l 257
 221 -39 l 258
 221 -49.076433121 221.055661487 -58.6996227027 221.055661487 -67.8702778087 c 0
 221.055661487 -161.541969248 215.248407643 -208 85 -208 c 258
 23 -208 l 257
 23 -240 l 257
EndSplineSet
EndChar

StartChar: uni02C9
Encoding: 713 713 474
Width: 600
VWidth: 0
Flags: HW
PickledData: "(dp1
S'org.robofab.postScriptHintData'
p2
(dp3
s."
LayerCount: 2
Fore
SplineSet
108 913 m 257
 494 913 l 257
 494 975 l 257
 108 975 l 257
 108 913 l 257
EndSplineSet
EndChar

StartChar: uni0307
Encoding: 775 775 475
Width: 381
VWidth: 0
Flags: HW
PickledData: "(dp1
S'org.robofab.postScriptHintData'
p2
(dp3
sS'com.typemytype.robofont.layerData'
p4
(dp5
S'b'
(dp6
S'name'
p7
S'uni0307'
p8
sS'lib'
p9
(dp10
sS'unicodes'
p11
(tsS'width'
p12
I342
sS'contours'
p13
(tsS'components'
p14
(tsS'anchors'
p15
(tsss."
AnchorPoint: "top" 192 805 mark 0
LayerCount: 2
Fore
SplineSet
190 968 m 256
 235 968 258 1001 257 1030 c 257
 257 1062 236 1093 190 1093 c 256
 144 1093 123 1062 123 1030 c 256
 123 1001 145 968 190 968 c 256
EndSplineSet
EndChar

StartChar: uni0311
Encoding: 785 785 476
Width: 962
VWidth: 0
Flags: HW
PickledData: "(dp1
S'org.robofab.postScriptHintData'
p2
(dp3
sS'com.typemytype.robofont.layerData'
p4
(dp5
S'b'
(dp6
S'name'
p7
S'uni0311'
p8
sS'lib'
p9
(dp10
sS'unicodes'
p11
(tsS'width'
p12
I962
sS'contours'
p13
(tsS'components'
p14
(tsS'anchors'
p15
(tsss."
AnchorPoint: "top" 488 804 mark 0
LayerCount: 2
Fore
SplineSet
352 934 m 257
 382 934 l 257
 400 996 434 1026 487 1026 c 256
 539 1026 573 996 591 934 c 257
 619 934 l 257
 604.178520842 1017.9883819 562.019553487 1059.01785377 489.62894071 1059.01785377 c 0
 488.757014704 1059.01785377 487.880702819 1059.01190139 487 1059 c 256
 486.14309996 1059.01190139 485.290165925 1059.01785377 484.441192839 1059.01785377 c 0
 413.956218805 1059.01785377 370.7738736 1017.9883819 352 934 c 257
EndSplineSet
EndChar

StartChar: uni2113
Encoding: 8467 8467 495
Width: 579
VWidth: 0
Flags: HW
PickledData: "(dp1
S'org.robofab.postScriptHintData'
p2
(dp3
s."
LayerCount: 2
Fore
SplineSet
407 -11 m 257
 418 39 l 257
 293.901772283 39 236.038902657 50.0392263486 236.038902657 167.354735345 c 0
 236.038902657 195.622194919 239.398310015 230.059851863 246 272 c 258
 394 1215 l 257
 144 1215 l 257
 140 1157 l 257
 321 1157 l 257
 174 260 l 258
 167.76037746 220.860549523 164.309336533 186.761996577 164.309336533 157.21087657 c 0
 164.309336533 32.7530931972 225.522713965 -11.0438881887 397.437885527 -11.0438881887 c 0
 400.587987004 -11.0438881887 403.775257008 -11.0291831945 407 -11 c 257
EndSplineSet
EndChar

StartChar: uni2126
Encoding: 8486 8486 496
Width: 1426
VWidth: 0
Flags: HW
PickledData: "(dp1
S'org.robofab.postScriptHintData'
p2
(dp3
s."
LayerCount: 2
Fore
SplineSet
173 0 m 257
 566 0 l 257
 566 57 l 257
 344 187 236 421 236 631 c 256
 236 885 395 1113 713 1113 c 256
 1030 1113 1190 885 1190 631 c 256
 1190 421 1082 187 860 57 c 257
 860 0 l 257
 1253 0 l 257
 1253 55 l 257
 939 55 l 257
 1161 187 1268 416 1268 627 c 256
 1268 911 1075 1174 713 1174 c 256
 351 1174 158 911 158 627 c 256
 158 416 265 187 487 55 c 257
 173 55 l 257
 173 0 l 257
EndSplineSet
EndChar

StartChar: uni2206
Encoding: 8710 8710 497
Width: 775
VWidth: 0
Flags: HW
PickledData: "(dp1
S'org.robofab.postScriptHintData'
p2
(dp3
sS'com.typemytype.robofont.layerData'
p4
(dp5
S'b'
(dp6
S'name'
p7
S'uni2206'
p8
sS'lib'
p9
(dp10
sS'unicodes'
p11
(tsS'width'
p12
I679
sS'contours'
p13
(tsS'components'
p14
(tsS'anchors'
p15
(tsss."
LayerCount: 2
Fore
SplineSet
63 0 m 257
 731 0 l 257
 731 60 l 257
 425 1024 l 257
 369 1024 l 257
 63 60 l 257
 63 0 l 257
114 64 m 257
 114 64 382 922 385 938 c 257
 389 922 655 64 655 64 c 257
 114 64 l 257
EndSplineSet
EndChar

StartChar: v
Encoding: 118 118 503
Width: 1054
VWidth: 0
Flags: HW
PickledData: "(dp1
S'org.robofab.postScriptHintData'
p2
(dp3
sS'com.typemytype.robofont.layerData'
p4
(dp5
S'b'
(dp6
S'name'
p7
S'v'
sS'lib'
p8
(dp9
sS'unicodes'
p10
(tsS'width'
p11
I1054
sS'contours'
p12
(tsS'components'
p13
(tsS'anchors'
p14
(tsss."
LayerCount: 2
Fore
SplineSet
491 0 m 1
 571 0 l 1
 896 750 l 1
 1036 750 l 1
 1036 805 l 1
 658 805 l 1
 658 750 l 1
 819 750 l 1
 535 66 l 1
 241 750 l 1
 405 750 l 1
 405 805 l 1
 17 805 l 1
 17 750 l 1
 162 750 l 1
 491 0 l 1
EndSplineSet
EndChar

StartChar: w
Encoding: 119 119 504
Width: 1543
VWidth: 0
Flags: HW
PickledData: "(dp1
S'org.robofab.postScriptHintData'
p2
(dp3
sS'com.typemytype.robofont.layerData'
p4
(dp5
S'b'
(dp6
S'name'
p7
S'w'
sS'lib'
p8
(dp9
sS'unicodes'
p10
(tsS'width'
p11
I1574
sS'contours'
p12
(tsS'components'
p13
(tsS'anchors'
p14
(tsss."
AnchorPoint: "top" 771 804 basechar 0
LayerCount: 2
Fore
SplineSet
430 0 m 1
 515 0 l 1
 769 685 l 1
 1023 0 l 1
 1106 0 l 1
 1366 750 l 1
 1497 750 l 1
 1497 805 l 1
 1159 805 l 1
 1159 750 l 1
 1294 750 l 1
 1064 63 l 1
 808 750 l 1
 952 750 l 1
 952 805 l 1
 587 805 l 1
 587 750 l 1
 727 750 l 1
 476 63 l 1
 234 750 l 1
 381 750 l 1
 381 805 l 1
 30 805 l 1
 30 750 l 1
 158 750 l 1
 430 0 l 1
EndSplineSet
EndChar

StartChar: x
Encoding: 120 120 509
Width: 1072
VWidth: 0
Flags: HW
PickledData: "(dp1
S'org.robofab.postScriptHintData'
p2
(dp3
sS'com.typemytype.robofont.layerData'
p4
(dp5
S'b'
(dp6
S'name'
p7
S'x'
sS'lib'
p8
(dp9
sS'unicodes'
p10
(tsS'width'
p11
I1088
sS'contours'
p12
(tsS'components'
p13
(tsS'anchors'
p14
(tsss."
LayerCount: 2
Fore
SplineSet
50 0 m 1
 418 0 l 1
 418 55 l 1
 270 55 l 1
 534 375 l 1
 807 55 l 1
 638 55 l 1
 638 0 l 1
 1028 0 l 1
 1028 55 l 1
 881 55 l 1
 578 413 l 1
 856 749 l 1
 1019 749 l 1
 1019 804 l 1
 630 804 l 1
 630 749 l 1
 785 749 l 1
 540 452 l 1
 290 749 l 1
 445 749 l 1
 445 804 l 1
 71 804 l 1
 71 749 l 1
 215 749 l 1
 497 415 l 1
 195 55 l 1
 50 55 l 1
 50 0 l 1
EndSplineSet
EndChar

StartChar: y
Encoding: 121 121 510
Width: 1069
VWidth: 0
Flags: HW
PickledData: "(dp1
S'org.robofab.postScriptHintData'
p2
(dp3
sS'com.typemytype.robofont.layerData'
p4
(dp5
S'b'
(dp6
S'name'
p7
S'y'
sS'lib'
p8
(dp9
sS'unicodes'
p10
(tsS'width'
p11
I1072
sS'contours'
p12
(tsS'components'
p13
(tsS'anchors'
p14
(tsss."
AnchorPoint: "top" 563 804 basechar 0
LayerCount: 2
Fore
SplineSet
230 -262 m 1
 316 -262 l 2
 469 -262 510 -223 566 -88 c 1
 922 749 l 1
 1053 749 l 1
 1053 804 l 1
 681 804 l 1
 681 749 l 1
 846 749 l 1
 572 94 l 1
 283 749 l 1
 423 749 l 1
 423 804 l 1
 42 804 l 1
 42 749 l 1
 205 749 l 1
 518 60 l 1
 559 60 l 1
 498 -81 l 1
 457 -182 430 -196 312 -196 c 2
 230 -196 l 1
 230 -262 l 1
EndSplineSet
EndChar

StartChar: yen
Encoding: 165 165 514
Width: 1444
VWidth: 0
Flags: HW
PickledData: "(dp1
S'org.robofab.postScriptHintData'
p2
(dp3
sS'com.typemytype.robofont.layerData'
p4
(dp5
S'b'
(dp6
S'name'
p7
S'yen'
p8
sS'lib'
p9
(dp10
sS'unicodes'
p11
(tsS'width'
p12
I1477
sS'contours'
p13
(tsS'components'
p14
(tsS'anchors'
p15
(tsss."
LayerCount: 2
Fore
SplineSet
307 222 m 257
 957 222 l 257
 957 271 l 257
 307 271 l 257
 307 222 l 257
307 388 m 257
 957 388 l 257
 957 436 l 257
 307 436 l 257
 307 388 l 257
EndSplineSet
Refer: 137 89 N 1 0 0 1 0 0 2
EndChar

StartChar: z
Encoding: 122 122 516
Width: 938
VWidth: 0
Flags: HW
PickledData: "(dp1
S'org.robofab.postScriptHintData'
p2
(dp3
sS'com.typemytype.robofont.layerData'
p4
(dp5
S'b'
(dp6
S'name'
p7
S'z'
sS'lib'
p8
(dp9
sS'unicodes'
p10
(tsS'width'
p11
I955
sS'contours'
p12
(tsS'components'
p13
(tsS'anchors'
p14
(tsss."
AnchorPoint: "top" 480 804 basechar 0
LayerCount: 2
Fore
SplineSet
137 0 m 1
 794 0 l 1
 794 269 l 1
 731 269 l 1
 731 54 l 1
 223 54 l 1
 781 738 l 1
 781 805 l 1
 161 805 l 1
 161 561 l 1
 225 561 l 1
 225 751 l 1
 703 751 l 1
 137 61 l 1
 137 0 l 1
EndSplineSet
EndChar

StartChar: zero
Encoding: 48 48 520
Width: 1092
VWidth: 0
Flags: HW
PickledData: "(dp1
S'org.robofab.postScriptHintData'
p2
(dp3
sS'com.typemytype.robofont.layerData'
p4
(dp5
S'b'
(dp6
S'name'
p7
S'zero'
p8
sS'lib'
p9
(dp10
sS'unicodes'
p11
(tsS'width'
p12
I1090
sS'contours'
p13
(tsS'components'
p14
(tsS'anchors'
p15
(tsss."
LayerCount: 2
Fore
SplineSet
546 32 m 256
 544.854383803 31.9896324326 543.711427896 31.9844510866 542.571135483 31.9844510866 c 0
 323.738435115 31.9844510866 203 222.80914051 203 570 c 256
 203 924 325 1119 546 1119 c 256
 768 1119 890 924 890 571 c 256
 890 223 768 32 546 32 c 256
546 -22 m 256
 817 -22 964 188 964 571 c 256
 964 955 817 1174 546 1174 c 256
 276 1174 129 954 129 571 c 256
 129 189 276 -22 546 -22 c 256
EndSplineSet
EndChar
